<?xml version="1.0" encoding="utf-8"?>
<!-- Generator: Adobe Illustrator 25.0.0, SVG Export Plug-In . SVG Version: 6.00 Build 0)  -->
<svg version="1.1" id="Layer_1" xmlns="http://www.w3.org/2000/svg" xmlns:xlink="http://www.w3.org/1999/xlink" x="0px" y="0px"
	 viewBox="0 0 22 22" style="enable-background:new 0 0 22 22;" xml:space="preserve">
<g>
	<path d="M14.42,0.04c0.09,0,0.17,0,0.26,0c0.11,0.13,0.23,0.24,0.32,0.39c0.79,1.31,1.18,2.74,1.31,4.25
		c0.03,0.39,0.04,0.79,0.06,1.23c0.08-0.13,0.14-0.22,0.2-0.32c0.47-0.74,1.01-1.43,1.61-2.07c0.13-0.13,0.27-0.22,0.46-0.17
		c0.19,0.05,0.3,0.19,0.33,0.38c0.01,0.03,0.02,0.07,0.03,0.1c0.5,2.16,0.44,4.31,0.02,6.47c-0.05,0.25-0.1,0.51-0.16,0.78
		c0.44-0.24,0.84-0.47,1.24-0.69c0.37-0.2,0.67-0.02,0.7,0.39c0.08,1.21-0.05,2.39-0.38,3.55c-0.12,0.41-0.26,0.81-0.41,1.21
		c-0.08,0.22-0.27,0.34-0.46,0.31c-0.21-0.03-0.34-0.15-0.37-0.36c-0.01-0.11,0.02-0.23,0.06-0.33c0.34-0.9,0.58-1.83,0.68-2.79
		c0.03-0.31,0.03-0.61,0.05-0.95c-3.46,1.93-5.58,6.35-5.4,9.39c0.29-0.19,0.56-0.36,0.83-0.55c0.77-0.56,1.44-1.23,2.05-1.96
		c0.19-0.24,0.44-0.27,0.64-0.11c0.2,0.16,0.22,0.44,0.01,0.66c-0.48,0.51-0.97,1.03-1.47,1.52c-0.26,0.25-0.55,0.46-0.87,0.71
		c0.11,0,0.18,0,0.25,0c0.8,0,1.6,0,2.4,0c0.31,0,0.63-0.01,0.94,0c0.33,0.01,0.54,0.28,0.43,0.56c-0.05,0.12-0.19,0.2-0.29,0.29
		c-4.64,0-9.27,0-13.91,0c-0.02-0.01-0.05-0.03-0.07-0.04c-0.19-0.11-0.27-0.27-0.23-0.48c0.04-0.19,0.2-0.31,0.42-0.33
		c0.06,0,0.13,0,0.19,0c2.11,0,4.22,0,6.33,0c0.07,0,0.14,0,0.24,0c-0.04-0.06-0.05-0.07-0.06-0.09c-0.04-0.04-0.07-0.09-0.11-0.13
		c-1.97-2.64-2.51-5.51-1.38-8.65c0.14-0.4,0.46-0.47,0.78-0.18c0.77,0.67,1.38,1.48,1.84,2.39c0.03,0.06,0.07,0.13,0.13,0.23
		c0.01-0.08,0.02-0.11,0.02-0.13c0-2.5,0-5.01,0-7.51c0-1.06-0.38-1.98-1.14-2.73c-0.42-0.42-0.92-0.72-1.51-0.91
		c0.01,0.04,0.02,0.05,0.03,0.06c0.75,0.81,0.9,1.78,0.75,2.83c-0.05,0.33-0.17,0.44-0.5,0.48c-0.31,0.03-0.62,0.05-0.92,0.07
		c-0.03,0.24-0.04,0.47-0.08,0.71c-0.04,0.28-0.15,0.38-0.42,0.43C9.69,8,9.51,8.02,9.33,8.05c0.02,0.04,0.02,0.07,0.04,0.09
		c0.43,0.73,0.52,1.53,0.42,2.36c-0.06,0.55-0.11,0.59-0.63,0.69c-0.01,0-0.02,0.02-0.03,0.03c0,0.01,0,0.03,0.01,0.04
		c0.67,0.89,0.77,1.89,0.6,2.95c-0.03,0.21-0.16,0.36-0.37,0.38c-0.39,0.04-0.78,0.06-1.17,0.06c-0.22,0-0.43-0.05-0.66-0.08
		c0.02,0.16,0.06,0.32,0.07,0.47c0.08,1.21-0.46,2.13-1.36,2.88c-0.55,0.46-0.62,0.46-1.18-0.01c-0.8-0.67-1.33-1.48-1.35-2.56
		c-0.01-0.26,0.04-0.52,0.06-0.79c-0.6,0.14-1.19,0.15-1.79,0.04c-0.22-0.04-0.36-0.15-0.39-0.36c-0.15-0.93-0.11-1.83,0.39-2.67
		c0.07-0.12,0.15-0.23,0.24-0.37c-0.11-0.02-0.2-0.04-0.29-0.06c-0.19-0.04-0.31-0.16-0.34-0.34C1.46,9.99,1.46,9.19,1.82,8.44
		C1.99,8.1,2.22,7.8,2.42,7.48c-0.21-0.09-0.46-0.18-0.69-0.3C1.1,6.85,1.08,6.83,1.28,6.13c0.28-0.99,0.8-1.81,1.76-2.28
		c0.16-0.08,0.32-0.13,0.45-0.18C3.22,3.24,2.95,2.84,2.71,2.43C2.57,2.2,2.6,2,2.81,1.83c0.33-0.27,0.66-0.55,1.02-0.77
		c1.19-0.7,2.59-0.54,3.6,0.41C7.77,1.8,8.05,2.21,8.37,2.6c1.62-0.52,3.15-0.23,4.53,0.87c0.02-0.09,0.04-0.16,0.06-0.23
		c0.23-1.02,0.58-1.98,1.13-2.87C14.17,0.24,14.31,0.15,14.42,0.04z M18.26,4.72c-2.59,3.32-3.68,7.11-3.53,11.29
		c0.04-0.01,0.06-0.03,0.07-0.06c0.7-1.45,1.63-2.74,2.8-3.85c0.07-0.06,0.11-0.16,0.14-0.25c0.33-1.12,0.56-2.25,0.67-3.41
		C18.53,7.2,18.51,5.96,18.26,4.72z M11.52,13.09c-0.98,1.82,0.08,6.31,1.81,7.65C14.16,18.32,13.41,14.94,11.52,13.09z M14.52,1.37
		c-0.02,0.05-0.05,0.09-0.07,0.13c-0.39,0.81-0.63,1.66-0.77,2.54c-0.03,0.17,0,0.29,0.09,0.43c0.45,0.68,0.71,1.43,0.73,2.24
		c0.02,0.95,0.01,1.91,0.02,2.86c0,0.07,0,0.15,0,0.22C15.79,7.5,15.81,3.73,14.52,1.37z M7.5,2.95C6.56,1.19,4.8,1.12,3.6,2.29
		C4.51,3.96,6.18,4.16,7.5,2.95z M8.92,13.78C9.2,11.93,7.87,10.7,6.13,11C5.87,13.08,7.41,14.03,8.92,13.78z M2.1,6.4
		c1.77,0.92,3.23,0.06,3.62-1.6C4.24,3.95,2.57,4.48,2.1,6.4z M6.13,7.54c-0.24,2.04,1.21,3.04,2.8,2.79
		C9.19,8.54,7.9,7.25,6.13,7.54z M5.66,13.31c-1.61,1.29-1.3,3.02,0.01,3.96C7.12,16.16,7.12,14.41,5.66,13.31z M2.41,10.34
		c2.06,0.27,3.05-1.27,2.77-2.8C3.34,7.3,2.14,8.56,2.41,10.34z M2.4,13.78c1.97,0.27,3.09-1.2,2.78-2.8
		C3.39,10.73,2.15,11.98,2.4,13.78z M9.5,6.81c0-0.44-0.09-0.86-0.33-1.24c-0.46-0.7-1.14-0.91-1.94-0.9
		c-0.18,0-0.25,0.05-0.26,0.24C6.91,6.25,7.76,7.17,9.11,7.19C9.5,7.19,9.5,7.19,9.5,6.81z M10.95,5.95
		c0.15-0.84-0.17-1.84-0.99-2.24C9.2,3.33,8.34,3.35,7.88,3.82C8.18,3.92,8.5,4,8.79,4.14c0.7,0.34,1.17,0.89,1.4,1.64
		c0.02,0.07,0.09,0.16,0.15,0.17C10.55,5.96,10.75,5.95,10.95,5.95z M6.1,6.67c0.15-0.01,0.27-0.02,0.4-0.04
		c-0.09-0.22-0.17-0.4-0.25-0.59c-0.01,0-0.03,0-0.04,0.01C6.18,6.25,6.14,6.45,6.1,6.67z"/>
	<path d="M3.93,21.96c-0.04-0.03-0.08-0.06-0.12-0.08c-0.16-0.12-0.22-0.28-0.16-0.47c0.06-0.19,0.2-0.29,0.4-0.3
		c0.18-0.01,0.35,0.13,0.4,0.32c0.05,0.2-0.02,0.35-0.18,0.46c-0.04,0.03-0.09,0.05-0.13,0.07C4.07,21.96,4,21.96,3.93,21.96z"/>
	<path d="M18.39,17.07c0-0.24,0.18-0.44,0.42-0.45c0.23-0.01,0.44,0.2,0.43,0.43c0,0.24-0.2,0.44-0.43,0.44
		C18.58,17.49,18.4,17.3,18.39,17.07z"/>
</g>
</svg>
