<svg width="428" height="869" viewBox="0 0 428 869" fill="none" xmlns="http://www.w3.org/2000/svg">
<g id="3" filter="url(#filter0_d_219_90)">
<rect width="428" height="869" rx="24" fill="white"/>
<path id="Crop Management" d="M46.792 63.0557C45.9229 63.0557 45.1514 63.2266 44.4775 63.5684C43.8135 63.9004 43.252 64.3838 42.793 65.0186C42.3438 65.6533 42.002 66.4199 41.7676 67.3184C41.5332 68.2168 41.416 69.2275 41.416 70.3506C41.416 71.8643 41.6016 73.1582 41.9727 74.2324C42.3535 75.2969 42.9395 76.1123 43.7305 76.6787C44.5215 77.2354 45.542 77.5137 46.792 77.5137C47.6611 77.5137 48.5303 77.416 49.3994 77.2207C50.2783 77.0254 51.2305 76.7471 52.2559 76.3857V80.1943C51.3086 80.585 50.376 80.8633 49.458 81.0293C48.54 81.2051 47.5098 81.293 46.3672 81.293C44.1602 81.293 42.3438 80.8389 40.918 79.9307C39.502 79.0127 38.4521 77.7334 37.7686 76.0928C37.085 74.4424 36.7432 72.5186 36.7432 70.3213C36.7432 68.7002 36.9629 67.2158 37.4023 65.8682C37.8418 64.5205 38.4863 63.3535 39.3359 62.3672C40.1855 61.3809 41.2354 60.6191 42.4854 60.082C43.7354 59.5449 45.1709 59.2764 46.792 59.2764C47.8564 59.2764 48.9209 59.4131 49.9854 59.6865C51.0596 59.9502 52.085 60.3164 53.0615 60.7852L51.5967 64.4766C50.7959 64.0957 49.9902 63.7637 49.1797 63.4805C48.3691 63.1973 47.5732 63.0557 46.792 63.0557ZM65.6152 64.3154C65.8398 64.3154 66.0986 64.3301 66.3916 64.3594C66.6943 64.3789 66.9385 64.4082 67.124 64.4473L66.7871 68.6367C66.6406 68.5879 66.4307 68.5537 66.1572 68.5342C65.8936 68.5049 65.6641 68.4902 65.4688 68.4902C64.8926 68.4902 64.3311 68.5635 63.7842 68.71C63.2471 68.8564 62.7637 69.0957 62.334 69.4277C61.9043 69.75 61.5625 70.1797 61.3086 70.7168C61.0645 71.2441 60.9424 71.8936 60.9424 72.665V81H56.4746V64.623H59.8584L60.5176 67.377H60.7373C61.0596 66.8203 61.46 66.3125 61.9385 65.8535C62.4268 65.3848 62.9785 65.0137 63.5938 64.7402C64.2188 64.457 64.8926 64.3154 65.6152 64.3154ZM84.9805 72.7822C84.9805 74.1494 84.7949 75.3604 84.4238 76.415C84.0625 77.4697 83.5303 78.3633 82.8271 79.0957C82.1338 79.8184 81.2939 80.3652 80.3076 80.7363C79.3311 81.1074 78.2275 81.293 76.9971 81.293C75.8447 81.293 74.7852 81.1074 73.8184 80.7363C72.8613 80.3652 72.0264 79.8184 71.3135 79.0957C70.6104 78.3633 70.0635 77.4697 69.6729 76.415C69.292 75.3604 69.1016 74.1494 69.1016 72.7822C69.1016 70.9658 69.4238 69.4277 70.0684 68.168C70.7129 66.9082 71.6309 65.9512 72.8223 65.2969C74.0137 64.6426 75.4346 64.3154 77.085 64.3154C78.6182 64.3154 79.9756 64.6426 81.1572 65.2969C82.3486 65.9512 83.2812 66.9082 83.9551 68.168C84.6387 69.4277 84.9805 70.9658 84.9805 72.7822ZM73.6572 72.7822C73.6572 73.8564 73.7744 74.7598 74.0088 75.4922C74.2432 76.2246 74.6094 76.7764 75.1074 77.1475C75.6055 77.5186 76.2549 77.7041 77.0557 77.7041C77.8467 77.7041 78.4863 77.5186 78.9746 77.1475C79.4727 76.7764 79.834 76.2246 80.0586 75.4922C80.293 74.7598 80.4102 73.8564 80.4102 72.7822C80.4102 71.6982 80.293 70.7998 80.0586 70.0869C79.834 69.3643 79.4727 68.8223 78.9746 68.4609C78.4766 68.0996 77.8271 67.9189 77.0264 67.9189C75.8447 67.9189 74.9854 68.3242 74.4482 69.1348C73.9209 69.9453 73.6572 71.1611 73.6572 72.7822ZM97.7832 64.3154C99.6289 64.3154 101.118 65.0332 102.251 66.4688C103.394 67.9043 103.965 70.0088 103.965 72.7822C103.965 74.6377 103.696 76.2002 103.159 77.4697C102.622 78.7295 101.88 79.6816 100.933 80.3262C99.9854 80.9707 98.8965 81.293 97.666 81.293C96.875 81.293 96.1963 81.1953 95.6299 81C95.0635 80.7949 94.5801 80.5361 94.1797 80.2236C93.7793 79.9014 93.4326 79.5596 93.1396 79.1982H92.9053C92.9834 79.5889 93.042 79.9893 93.0811 80.3994C93.1201 80.8096 93.1396 81.21 93.1396 81.6006V88.207H88.6719V64.623H92.3047L92.9346 66.7471H93.1396C93.4326 66.3076 93.7891 65.9023 94.209 65.5312C94.6289 65.1602 95.1318 64.8672 95.7178 64.6523C96.3135 64.4277 97.002 64.3154 97.7832 64.3154ZM96.3477 67.8896C95.5664 67.8896 94.9463 68.0508 94.4873 68.373C94.0283 68.6953 93.6914 69.1787 93.4766 69.8232C93.2715 70.4678 93.1592 71.2832 93.1396 72.2695V72.7529C93.1396 73.8076 93.2373 74.7012 93.4326 75.4336C93.6377 76.166 93.9746 76.7227 94.4434 77.1035C94.9219 77.4844 95.5762 77.6748 96.4062 77.6748C97.0898 77.6748 97.6514 77.4844 98.0908 77.1035C98.5303 76.7227 98.8574 76.166 99.0723 75.4336C99.2969 74.6914 99.4092 73.7881 99.4092 72.7236C99.4092 71.1221 99.1602 69.916 98.6621 69.1055C98.1641 68.2949 97.3926 67.8896 96.3477 67.8896ZM46.7627 120L41.6064 103.198H41.4746C41.4941 103.599 41.5234 104.204 41.5625 105.015C41.6113 105.815 41.6553 106.67 41.6943 107.578C41.7334 108.486 41.7529 109.307 41.7529 110.039V120H37.6953V98.584H43.877L48.9453 114.961H49.0332L54.4092 98.584H60.5908V120H56.3574V109.863C56.3574 109.189 56.3672 108.413 56.3867 107.534C56.416 106.655 56.4502 105.82 56.4893 105.029C56.5283 104.229 56.5576 103.628 56.5771 103.228H56.4453L50.9229 120H46.7627ZM72.3535 103.286C74.5508 103.286 76.2354 103.765 77.4072 104.722C78.5791 105.679 79.165 107.134 79.165 109.087V120H76.0449L75.1807 117.773H75.0635C74.5947 118.359 74.1162 118.838 73.6279 119.209C73.1396 119.58 72.5781 119.854 71.9434 120.029C71.3086 120.205 70.5371 120.293 69.6289 120.293C68.6621 120.293 67.793 120.107 67.0215 119.736C66.2598 119.365 65.6592 118.799 65.2197 118.037C64.7803 117.266 64.5605 116.289 64.5605 115.107C64.5605 113.369 65.1709 112.09 66.3916 111.27C67.6123 110.439 69.4434 109.98 71.8848 109.893L74.7266 109.805V109.087C74.7266 108.228 74.502 107.598 74.0527 107.197C73.6035 106.797 72.9785 106.597 72.1777 106.597C71.3867 106.597 70.6104 106.709 69.8486 106.934C69.0869 107.158 68.3252 107.441 67.5635 107.783L66.084 104.766C66.9531 104.307 67.9248 103.945 68.999 103.682C70.083 103.418 71.2012 103.286 72.3535 103.286ZM74.7266 112.412L72.998 112.471C71.5527 112.51 70.5469 112.769 69.9805 113.247C69.4238 113.726 69.1455 114.355 69.1455 115.137C69.1455 115.82 69.3457 116.309 69.7461 116.602C70.1465 116.885 70.6689 117.026 71.3135 117.026C72.2705 117.026 73.0762 116.743 73.7305 116.177C74.3945 115.61 74.7266 114.805 74.7266 113.76V112.412ZM93.0811 103.315C94.8291 103.315 96.2354 103.794 97.2998 104.751C98.3643 105.698 98.8965 107.222 98.8965 109.321V120H94.4287V110.435C94.4287 109.263 94.2139 108.379 93.7842 107.783C93.3643 107.188 92.7002 106.89 91.792 106.89C90.4248 106.89 89.4922 107.354 88.9941 108.281C88.4961 109.209 88.2471 110.547 88.2471 112.295V120H83.7793V103.623H87.1924L87.793 105.718H88.042C88.3936 105.151 88.8281 104.692 89.3457 104.341C89.873 103.989 90.4541 103.73 91.0889 103.564C91.7334 103.398 92.3975 103.315 93.0811 103.315ZM110.205 103.286C112.402 103.286 114.087 103.765 115.259 104.722C116.431 105.679 117.017 107.134 117.017 109.087V120H113.896L113.032 117.773H112.915C112.446 118.359 111.968 118.838 111.479 119.209C110.991 119.58 110.43 119.854 109.795 120.029C109.16 120.205 108.389 120.293 107.48 120.293C106.514 120.293 105.645 120.107 104.873 119.736C104.111 119.365 103.511 118.799 103.071 118.037C102.632 117.266 102.412 116.289 102.412 115.107C102.412 113.369 103.022 112.09 104.243 111.27C105.464 110.439 107.295 109.98 109.736 109.893L112.578 109.805V109.087C112.578 108.228 112.354 107.598 111.904 107.197C111.455 106.797 110.83 106.597 110.029 106.597C109.238 106.597 108.462 106.709 107.7 106.934C106.938 107.158 106.177 107.441 105.415 107.783L103.936 104.766C104.805 104.307 105.776 103.945 106.851 103.682C107.935 103.418 109.053 103.286 110.205 103.286ZM112.578 112.412L110.85 112.471C109.404 112.51 108.398 112.769 107.832 113.247C107.275 113.726 106.997 114.355 106.997 115.137C106.997 115.82 107.197 116.309 107.598 116.602C107.998 116.885 108.521 117.026 109.165 117.026C110.122 117.026 110.928 116.743 111.582 116.177C112.246 115.61 112.578 114.805 112.578 113.76V112.412ZM126.421 127.207C124.136 127.207 122.388 126.807 121.177 126.006C119.976 125.215 119.375 124.102 119.375 122.666C119.375 121.68 119.683 120.854 120.298 120.19C120.913 119.526 121.816 119.053 123.008 118.77C122.549 118.574 122.148 118.257 121.807 117.817C121.465 117.368 121.294 116.895 121.294 116.396C121.294 115.771 121.475 115.254 121.836 114.844C122.197 114.424 122.72 114.014 123.403 113.613C122.544 113.242 121.86 112.646 121.353 111.826C120.854 111.006 120.605 110.039 120.605 108.926C120.605 107.734 120.864 106.724 121.382 105.894C121.909 105.054 122.671 104.414 123.667 103.975C124.673 103.535 125.894 103.315 127.329 103.315C127.632 103.315 127.983 103.335 128.384 103.374C128.784 103.413 129.15 103.457 129.482 103.506C129.824 103.555 130.054 103.594 130.171 103.623H135.884V105.894L133.32 106.553C133.555 106.914 133.73 107.3 133.848 107.71C133.965 108.12 134.023 108.555 134.023 109.014C134.023 110.771 133.408 112.144 132.178 113.13C130.957 114.106 129.258 114.595 127.08 114.595C126.562 114.565 126.074 114.526 125.615 114.478C125.391 114.653 125.22 114.839 125.103 115.034C124.985 115.229 124.927 115.435 124.927 115.649C124.927 115.864 125.015 116.045 125.19 116.191C125.376 116.328 125.649 116.436 126.011 116.514C126.382 116.582 126.841 116.616 127.388 116.616H130.171C131.968 116.616 133.335 117.002 134.272 117.773C135.22 118.545 135.693 119.678 135.693 121.172C135.693 123.086 134.893 124.57 133.291 125.625C131.699 126.68 129.409 127.207 126.421 127.207ZM126.611 124.292C127.676 124.292 128.589 124.189 129.351 123.984C130.122 123.789 130.713 123.506 131.123 123.135C131.533 122.773 131.738 122.339 131.738 121.831C131.738 121.421 131.616 121.094 131.372 120.85C131.138 120.615 130.776 120.449 130.288 120.352C129.81 120.254 129.194 120.205 128.442 120.205H126.128C125.581 120.205 125.088 120.293 124.648 120.469C124.219 120.645 123.877 120.889 123.623 121.201C123.369 121.523 123.242 121.895 123.242 122.314C123.242 122.93 123.535 123.413 124.121 123.765C124.717 124.116 125.547 124.292 126.611 124.292ZM127.329 111.87C128.169 111.87 128.784 111.611 129.175 111.094C129.565 110.576 129.761 109.873 129.761 108.984C129.761 107.998 129.556 107.261 129.146 106.772C128.745 106.274 128.14 106.025 127.329 106.025C126.509 106.025 125.894 106.274 125.483 106.772C125.073 107.261 124.868 107.998 124.868 108.984C124.868 109.873 125.068 110.576 125.469 111.094C125.879 111.611 126.499 111.87 127.329 111.87ZM145.347 103.315C146.86 103.315 148.164 103.608 149.258 104.194C150.352 104.771 151.196 105.61 151.792 106.714C152.388 107.817 152.686 109.165 152.686 110.757V112.925H142.124C142.173 114.185 142.549 115.176 143.252 115.898C143.965 116.611 144.951 116.968 146.211 116.968C147.256 116.968 148.213 116.86 149.082 116.646C149.951 116.431 150.845 116.108 151.763 115.679V119.136C150.952 119.536 150.103 119.829 149.214 120.015C148.335 120.2 147.266 120.293 146.006 120.293C144.365 120.293 142.91 119.99 141.641 119.385C140.381 118.779 139.39 117.856 138.667 116.616C137.954 115.376 137.598 113.813 137.598 111.929C137.598 110.015 137.92 108.423 138.564 107.153C139.219 105.874 140.127 104.917 141.289 104.282C142.451 103.638 143.804 103.315 145.347 103.315ZM145.376 106.494C144.507 106.494 143.784 106.772 143.208 107.329C142.642 107.886 142.314 108.76 142.227 109.951H148.496C148.486 109.287 148.364 108.696 148.13 108.179C147.905 107.661 147.563 107.251 147.104 106.948C146.655 106.646 146.079 106.494 145.376 106.494ZM175.552 103.315C177.407 103.315 178.809 103.794 179.756 104.751C180.713 105.698 181.191 107.222 181.191 109.321V120H176.709V110.435C176.709 109.263 176.509 108.379 176.108 107.783C175.708 107.188 175.088 106.89 174.248 106.89C173.066 106.89 172.227 107.314 171.729 108.164C171.23 109.004 170.981 110.21 170.981 111.782V120H166.514V110.435C166.514 109.653 166.426 108.999 166.25 108.472C166.074 107.944 165.806 107.549 165.444 107.285C165.083 107.021 164.619 106.89 164.053 106.89C163.223 106.89 162.568 107.1 162.09 107.52C161.621 107.93 161.284 108.54 161.079 109.351C160.884 110.151 160.786 111.133 160.786 112.295V120H156.318V103.623H159.731L160.332 105.718H160.581C160.913 105.151 161.328 104.692 161.826 104.341C162.334 103.989 162.891 103.73 163.496 103.564C164.102 103.398 164.717 103.315 165.342 103.315C166.543 103.315 167.559 103.511 168.389 103.901C169.229 104.292 169.873 104.897 170.322 105.718H170.718C171.206 104.878 171.895 104.268 172.783 103.887C173.682 103.506 174.604 103.315 175.552 103.315ZM192.544 103.315C194.058 103.315 195.361 103.608 196.455 104.194C197.549 104.771 198.394 105.61 198.989 106.714C199.585 107.817 199.883 109.165 199.883 110.757V112.925H189.321C189.37 114.185 189.746 115.176 190.449 115.898C191.162 116.611 192.148 116.968 193.408 116.968C194.453 116.968 195.41 116.86 196.279 116.646C197.148 116.431 198.042 116.108 198.96 115.679V119.136C198.149 119.536 197.3 119.829 196.411 120.015C195.532 120.2 194.463 120.293 193.203 120.293C191.562 120.293 190.107 119.99 188.838 119.385C187.578 118.779 186.587 117.856 185.864 116.616C185.151 115.376 184.795 113.813 184.795 111.929C184.795 110.015 185.117 108.423 185.762 107.153C186.416 105.874 187.324 104.917 188.486 104.282C189.648 103.638 191.001 103.315 192.544 103.315ZM192.573 106.494C191.704 106.494 190.981 106.772 190.405 107.329C189.839 107.886 189.512 108.76 189.424 109.951H195.693C195.684 109.287 195.562 108.696 195.327 108.179C195.103 107.661 194.761 107.251 194.302 106.948C193.853 106.646 193.276 106.494 192.573 106.494ZM212.817 103.315C214.565 103.315 215.972 103.794 217.036 104.751C218.101 105.698 218.633 107.222 218.633 109.321V120H214.165V110.435C214.165 109.263 213.95 108.379 213.521 107.783C213.101 107.188 212.437 106.89 211.528 106.89C210.161 106.89 209.229 107.354 208.73 108.281C208.232 109.209 207.983 110.547 207.983 112.295V120H203.516V103.623H206.929L207.529 105.718H207.778C208.13 105.151 208.564 104.692 209.082 104.341C209.609 103.989 210.19 103.73 210.825 103.564C211.47 103.398 212.134 103.315 212.817 103.315ZM230.132 116.733C230.62 116.733 231.094 116.685 231.553 116.587C232.021 116.489 232.485 116.367 232.944 116.221V119.546C232.466 119.761 231.87 119.937 231.157 120.073C230.454 120.22 229.683 120.293 228.843 120.293C227.866 120.293 226.987 120.137 226.206 119.824C225.435 119.502 224.824 118.95 224.375 118.169C223.936 117.378 223.716 116.279 223.716 114.873V106.978H221.577V105.088L224.038 103.594L225.327 100.137H228.184V103.623H232.769V106.978H228.184V114.873C228.184 115.498 228.359 115.967 228.711 116.279C229.072 116.582 229.546 116.733 230.132 116.733Z" fill="black"/>
<g id="Graph">
<path id="Past" opacity="0.6" d="M220.35 248.83V252H218.867V243.469H222.131C223.084 243.469 223.84 243.717 224.398 244.213C224.961 244.709 225.242 245.365 225.242 246.182C225.242 247.018 224.967 247.668 224.416 248.133C223.869 248.598 223.102 248.83 222.113 248.83H220.35ZM220.35 247.641H222.131C222.658 247.641 223.061 247.518 223.338 247.271C223.615 247.021 223.754 246.662 223.754 246.193C223.754 245.732 223.613 245.365 223.332 245.092C223.051 244.814 222.664 244.672 222.172 244.664H220.35V247.641ZM230.123 252C230.061 251.879 230.006 251.682 229.959 251.408C229.506 251.881 228.951 252.117 228.295 252.117C227.658 252.117 227.139 251.936 226.736 251.572C226.334 251.209 226.133 250.76 226.133 250.225C226.133 249.549 226.383 249.031 226.883 248.672C227.387 248.309 228.105 248.127 229.039 248.127H229.912V247.711C229.912 247.383 229.82 247.121 229.637 246.926C229.453 246.727 229.174 246.627 228.799 246.627C228.475 246.627 228.209 246.709 228.002 246.873C227.795 247.033 227.691 247.238 227.691 247.488H226.268C226.268 247.141 226.383 246.816 226.613 246.516C226.844 246.211 227.156 245.973 227.551 245.801C227.949 245.629 228.393 245.543 228.881 245.543C229.623 245.543 230.215 245.73 230.656 246.105C231.098 246.477 231.324 247 231.336 247.676V250.535C231.336 251.105 231.416 251.561 231.576 251.9V252H230.123ZM228.559 250.975C228.84 250.975 229.104 250.906 229.35 250.77C229.6 250.633 229.787 250.449 229.912 250.219V249.023H229.145C228.617 249.023 228.221 249.115 227.955 249.299C227.689 249.482 227.557 249.742 227.557 250.078C227.557 250.352 227.646 250.57 227.826 250.734C228.01 250.895 228.254 250.975 228.559 250.975ZM236.381 250.277C236.381 250.023 236.275 249.83 236.064 249.697C235.857 249.564 235.512 249.447 235.027 249.346C234.543 249.244 234.139 249.115 233.814 248.959C233.104 248.615 232.748 248.117 232.748 247.465C232.748 246.918 232.979 246.461 233.439 246.094C233.9 245.727 234.486 245.543 235.197 245.543C235.955 245.543 236.566 245.73 237.031 246.105C237.5 246.48 237.734 246.967 237.734 247.564H236.311C236.311 247.291 236.209 247.064 236.006 246.885C235.803 246.701 235.533 246.609 235.197 246.609C234.885 246.609 234.629 246.682 234.43 246.826C234.234 246.971 234.137 247.164 234.137 247.406C234.137 247.625 234.229 247.795 234.412 247.916C234.596 248.037 234.967 248.16 235.525 248.285C236.084 248.406 236.521 248.553 236.838 248.725C237.158 248.893 237.395 249.096 237.547 249.334C237.703 249.572 237.781 249.861 237.781 250.201C237.781 250.771 237.545 251.234 237.072 251.59C236.6 251.941 235.98 252.117 235.215 252.117C234.695 252.117 234.232 252.023 233.826 251.836C233.42 251.648 233.104 251.391 232.877 251.062C232.65 250.734 232.537 250.381 232.537 250.002H233.92C233.939 250.338 234.066 250.598 234.301 250.781C234.535 250.961 234.846 251.051 235.232 251.051C235.607 251.051 235.893 250.98 236.088 250.84C236.283 250.695 236.381 250.508 236.381 250.277ZM240.811 244.119V245.66H241.93V246.715H240.811V250.254C240.811 250.496 240.857 250.672 240.951 250.781C241.049 250.887 241.221 250.939 241.467 250.939C241.631 250.939 241.797 250.92 241.965 250.881V251.982C241.641 252.072 241.328 252.117 241.027 252.117C239.934 252.117 239.387 251.514 239.387 250.307V246.715H238.344V245.66H239.387V244.119H240.811Z" fill="black"/>
<path id="3 month" d="M192.838 270.826H194.244C194.791 270.826 195.243 270.732 195.602 270.543C195.966 270.354 196.236 270.094 196.412 269.762C196.588 269.43 196.676 269.049 196.676 268.619C196.676 268.17 196.594 267.786 196.432 267.467C196.275 267.141 196.035 266.891 195.709 266.715C195.39 266.539 194.983 266.451 194.488 266.451C194.072 266.451 193.694 266.536 193.355 266.705C193.023 266.868 192.76 267.102 192.564 267.408C192.369 267.708 192.271 268.066 192.271 268.482H189.908C189.908 267.727 190.107 267.057 190.504 266.471C190.901 265.885 191.441 265.426 192.125 265.094C192.815 264.755 193.59 264.586 194.449 264.586C195.367 264.586 196.168 264.739 196.852 265.045C197.542 265.344 198.079 265.794 198.463 266.393C198.847 266.992 199.039 267.734 199.039 268.619C199.039 269.023 198.945 269.433 198.756 269.85C198.567 270.266 198.287 270.647 197.916 270.992C197.545 271.331 197.083 271.607 196.529 271.822C195.976 272.031 195.335 272.135 194.605 272.135H192.838V270.826ZM192.838 272.662V271.373H194.605C195.439 271.373 196.148 271.471 196.734 271.666C197.327 271.861 197.809 272.132 198.18 272.477C198.551 272.815 198.821 273.202 198.99 273.639C199.166 274.075 199.254 274.537 199.254 275.025C199.254 275.689 199.133 276.282 198.893 276.803C198.658 277.317 198.323 277.753 197.887 278.111C197.451 278.469 196.939 278.74 196.354 278.922C195.774 279.104 195.143 279.195 194.459 279.195C193.847 279.195 193.261 279.111 192.701 278.941C192.141 278.772 191.64 278.521 191.197 278.189C190.755 277.851 190.403 277.431 190.143 276.93C189.889 276.422 189.762 275.836 189.762 275.172H192.115C192.115 275.595 192.213 275.969 192.408 276.295C192.61 276.614 192.89 276.865 193.248 277.047C193.613 277.229 194.029 277.32 194.498 277.32C194.993 277.32 195.419 277.232 195.777 277.057C196.135 276.881 196.409 276.62 196.598 276.275C196.793 275.93 196.891 275.514 196.891 275.025C196.891 274.472 196.783 274.023 196.568 273.678C196.354 273.333 196.048 273.079 195.65 272.916C195.253 272.747 194.785 272.662 194.244 272.662H192.838ZM208.912 270.582V279H206.559V268.434H208.775L208.912 270.582ZM208.531 273.326L207.73 273.316C207.73 272.587 207.822 271.913 208.004 271.295C208.186 270.676 208.453 270.139 208.805 269.684C209.156 269.221 209.592 268.867 210.113 268.619C210.641 268.365 211.249 268.238 211.939 268.238C212.421 268.238 212.861 268.31 213.258 268.453C213.661 268.59 214.01 268.808 214.303 269.107C214.602 269.407 214.83 269.791 214.986 270.26C215.149 270.729 215.23 271.295 215.23 271.959V279H212.877V272.164C212.877 271.65 212.799 271.246 212.643 270.953C212.493 270.66 212.275 270.452 211.988 270.328C211.708 270.198 211.373 270.133 210.982 270.133C210.54 270.133 210.162 270.217 209.85 270.387C209.544 270.556 209.293 270.787 209.098 271.08C208.902 271.373 208.759 271.712 208.668 272.096C208.577 272.48 208.531 272.89 208.531 273.326ZM215.084 272.701L213.98 272.945C213.98 272.307 214.068 271.705 214.244 271.139C214.426 270.566 214.69 270.064 215.035 269.635C215.387 269.199 215.82 268.857 216.334 268.609C216.848 268.362 217.438 268.238 218.102 268.238C218.642 268.238 219.124 268.313 219.547 268.463C219.977 268.606 220.341 268.834 220.641 269.146C220.94 269.459 221.168 269.866 221.324 270.367C221.48 270.862 221.559 271.461 221.559 272.164V279H219.195V272.154C219.195 271.62 219.117 271.207 218.961 270.914C218.811 270.621 218.596 270.419 218.316 270.309C218.036 270.191 217.701 270.133 217.311 270.133C216.946 270.133 216.624 270.201 216.344 270.338C216.07 270.468 215.839 270.654 215.65 270.895C215.462 271.129 215.318 271.399 215.221 271.705C215.13 272.011 215.084 272.343 215.084 272.701ZM223.531 273.834V273.609C223.531 272.848 223.642 272.141 223.863 271.49C224.085 270.833 224.404 270.263 224.82 269.781C225.243 269.293 225.758 268.915 226.363 268.648C226.975 268.375 227.665 268.238 228.434 268.238C229.208 268.238 229.898 268.375 230.504 268.648C231.116 268.915 231.633 269.293 232.057 269.781C232.48 270.263 232.802 270.833 233.023 271.49C233.245 272.141 233.355 272.848 233.355 273.609V273.834C233.355 274.596 233.245 275.302 233.023 275.953C232.802 276.604 232.48 277.174 232.057 277.662C231.633 278.144 231.119 278.521 230.514 278.795C229.908 279.062 229.221 279.195 228.453 279.195C227.678 279.195 226.985 279.062 226.373 278.795C225.768 278.521 225.253 278.144 224.83 277.662C224.407 277.174 224.085 276.604 223.863 275.953C223.642 275.302 223.531 274.596 223.531 273.834ZM225.885 273.609V273.834C225.885 274.309 225.934 274.758 226.031 275.182C226.129 275.605 226.282 275.976 226.49 276.295C226.699 276.614 226.965 276.865 227.291 277.047C227.617 277.229 228.004 277.32 228.453 277.32C228.889 277.32 229.267 277.229 229.586 277.047C229.911 276.865 230.178 276.614 230.387 276.295C230.595 275.976 230.748 275.605 230.846 275.182C230.95 274.758 231.002 274.309 231.002 273.834V273.609C231.002 273.141 230.95 272.698 230.846 272.281C230.748 271.858 230.592 271.484 230.377 271.158C230.169 270.833 229.902 270.579 229.576 270.396C229.257 270.208 228.876 270.113 228.434 270.113C227.991 270.113 227.607 270.208 227.281 270.396C226.962 270.579 226.699 270.833 226.49 271.158C226.282 271.484 226.129 271.858 226.031 272.281C225.934 272.698 225.885 273.141 225.885 273.609ZM237.662 270.689V279H235.309V268.434H237.525L237.662 270.689ZM237.242 273.326L236.48 273.316C236.487 272.568 236.591 271.881 236.793 271.256C237.001 270.631 237.288 270.094 237.652 269.645C238.023 269.195 238.466 268.85 238.98 268.609C239.495 268.362 240.068 268.238 240.699 268.238C241.207 268.238 241.666 268.31 242.076 268.453C242.493 268.59 242.848 268.814 243.141 269.127C243.44 269.439 243.668 269.846 243.824 270.348C243.98 270.842 244.059 271.451 244.059 272.174V279H241.695V272.164C241.695 271.656 241.62 271.256 241.471 270.963C241.327 270.663 241.116 270.452 240.836 270.328C240.562 270.198 240.221 270.133 239.811 270.133C239.407 270.133 239.046 270.217 238.727 270.387C238.408 270.556 238.137 270.787 237.916 271.08C237.701 271.373 237.535 271.712 237.418 272.096C237.301 272.48 237.242 272.89 237.242 273.326ZM251.305 268.434V270.152H245.348V268.434H251.305ZM247.066 265.846H249.42V276.08C249.42 276.406 249.465 276.656 249.557 276.832C249.654 277.001 249.788 277.115 249.957 277.174C250.126 277.232 250.325 277.262 250.553 277.262C250.715 277.262 250.872 277.252 251.021 277.232C251.171 277.213 251.292 277.193 251.383 277.174L251.393 278.971C251.197 279.029 250.969 279.081 250.709 279.127C250.455 279.173 250.162 279.195 249.83 279.195C249.29 279.195 248.811 279.101 248.395 278.912C247.978 278.717 247.652 278.401 247.418 277.965C247.184 277.529 247.066 276.949 247.066 276.227V265.846ZM255.445 264V279H253.102V264H255.445ZM255.035 273.326L254.273 273.316C254.28 272.587 254.381 271.913 254.576 271.295C254.778 270.676 255.058 270.139 255.416 269.684C255.781 269.221 256.217 268.867 256.725 268.619C257.232 268.365 257.796 268.238 258.414 268.238C258.935 268.238 259.404 268.31 259.82 268.453C260.243 268.596 260.608 268.827 260.914 269.146C261.22 269.459 261.451 269.869 261.607 270.377C261.77 270.878 261.852 271.49 261.852 272.213V279H259.488V272.193C259.488 271.686 259.413 271.282 259.264 270.982C259.12 270.683 258.909 270.468 258.629 270.338C258.349 270.201 258.007 270.133 257.604 270.133C257.18 270.133 256.806 270.217 256.48 270.387C256.161 270.556 255.895 270.787 255.68 271.08C255.465 271.373 255.302 271.712 255.191 272.096C255.087 272.48 255.035 272.89 255.035 273.326Z" fill="black"/>
<path id="paddy" d="M65.502 235.025V243.844H63.8545V233.604H65.3721L65.502 235.025ZM70.3213 237.233V237.377C70.3213 237.915 70.2575 238.414 70.1299 238.874C70.0068 239.33 69.8223 239.729 69.5762 240.07C69.3346 240.408 69.0361 240.67 68.6807 240.856C68.3252 241.043 67.915 241.137 67.4502 241.137C66.9899 241.137 66.5866 241.052 66.2402 240.884C65.8984 240.711 65.609 240.467 65.3721 240.152C65.1351 239.838 64.9437 239.469 64.7979 239.045C64.6566 238.617 64.5563 238.147 64.4971 237.637V237.083C64.5563 236.541 64.6566 236.049 64.7979 235.606C64.9437 235.164 65.1351 234.784 65.3721 234.465C65.609 234.146 65.8984 233.9 66.2402 233.727C66.582 233.553 66.9808 233.467 67.4365 233.467C67.9014 233.467 68.3138 233.558 68.6738 233.74C69.0339 233.918 69.3369 234.173 69.583 234.506C69.8291 234.834 70.0137 235.23 70.1367 235.695C70.2598 236.156 70.3213 236.668 70.3213 237.233ZM68.6738 237.377V237.233C68.6738 236.892 68.6419 236.575 68.5781 236.283C68.5143 235.987 68.4141 235.727 68.2773 235.504C68.1406 235.281 67.9652 235.107 67.751 234.984C67.5413 234.857 67.2884 234.793 66.9922 234.793C66.7005 234.793 66.4499 234.843 66.2402 234.943C66.0306 235.039 65.8551 235.174 65.7139 235.347C65.5726 235.52 65.4632 235.723 65.3857 235.955C65.3083 236.183 65.2536 236.431 65.2217 236.7V238.026C65.2764 238.354 65.3698 238.655 65.502 238.929C65.6341 239.202 65.821 239.421 66.0625 239.585C66.3086 239.744 66.623 239.824 67.0059 239.824C67.3021 239.824 67.555 239.76 67.7646 239.633C67.9743 239.505 68.1452 239.33 68.2773 239.106C68.4141 238.879 68.5143 238.617 68.5781 238.32C68.6419 238.024 68.6738 237.71 68.6738 237.377ZM75.8926 239.517V235.989C75.8926 235.725 75.8447 235.497 75.749 235.306C75.6533 235.114 75.5075 234.966 75.3115 234.861C75.1201 234.757 74.8786 234.704 74.5869 234.704C74.318 234.704 74.0856 234.75 73.8896 234.841C73.6937 234.932 73.541 235.055 73.4316 235.21C73.3223 235.365 73.2676 235.54 73.2676 235.736H71.627C71.627 235.445 71.6976 235.162 71.8389 234.889C71.9801 234.615 72.1852 234.371 72.4541 234.157C72.723 233.943 73.0443 233.774 73.418 233.651C73.7917 233.528 74.2109 233.467 74.6758 233.467C75.2318 233.467 75.724 233.56 76.1523 233.747C76.5853 233.934 76.9248 234.216 77.1709 234.595C77.4215 234.968 77.5469 235.438 77.5469 236.003V239.291C77.5469 239.628 77.5697 239.931 77.6152 240.2C77.6654 240.465 77.736 240.695 77.8271 240.891V241H76.1387C76.0612 240.822 75.9997 240.597 75.9541 240.323C75.9131 240.045 75.8926 239.776 75.8926 239.517ZM76.1318 236.502L76.1455 237.521H74.9629C74.6576 237.521 74.3887 237.55 74.1562 237.609C73.9238 237.664 73.7301 237.746 73.5752 237.855C73.4202 237.965 73.304 238.097 73.2266 238.252C73.1491 238.407 73.1104 238.582 73.1104 238.778C73.1104 238.974 73.1559 239.154 73.2471 239.318C73.3382 239.478 73.4704 239.603 73.6436 239.694C73.8213 239.785 74.0355 239.831 74.2861 239.831C74.6234 239.831 74.9173 239.763 75.168 239.626C75.4232 239.485 75.6237 239.314 75.7695 239.113C75.9154 238.908 75.9928 238.715 76.002 238.532L76.5352 239.264C76.4805 239.451 76.387 239.651 76.2549 239.865C76.1227 240.079 75.9495 240.285 75.7354 240.48C75.5257 240.672 75.2728 240.829 74.9766 240.952C74.6849 241.075 74.3477 241.137 73.9648 241.137C73.4818 241.137 73.0511 241.041 72.6729 240.85C72.2946 240.654 71.9984 240.392 71.7842 240.063C71.57 239.731 71.4629 239.355 71.4629 238.936C71.4629 238.544 71.5358 238.197 71.6816 237.896C71.832 237.591 72.0508 237.336 72.3379 237.131C72.6296 236.926 72.985 236.771 73.4043 236.666C73.8236 236.557 74.3021 236.502 74.8398 236.502H76.1318ZM83.7812 239.469V230.5H85.4355V241H83.9385L83.7812 239.469ZM78.9688 237.384V237.24C78.9688 236.68 79.0348 236.169 79.167 235.709C79.2992 235.244 79.4906 234.845 79.7412 234.513C79.9919 234.175 80.2972 233.918 80.6572 233.74C81.0173 233.558 81.4229 233.467 81.874 233.467C82.3206 233.467 82.7126 233.553 83.0498 233.727C83.387 233.9 83.6742 234.148 83.9111 234.472C84.1481 234.791 84.3372 235.174 84.4785 235.62C84.6198 236.062 84.7201 236.554 84.7793 237.097V237.555C84.7201 238.083 84.6198 238.566 84.4785 239.004C84.3372 239.441 84.1481 239.82 83.9111 240.139C83.6742 240.458 83.3848 240.704 83.043 240.877C82.7057 241.05 82.3115 241.137 81.8604 241.137C81.4137 241.137 81.0104 241.043 80.6504 240.856C80.2949 240.67 79.9919 240.408 79.7412 240.07C79.4906 239.733 79.2992 239.337 79.167 238.881C79.0348 238.421 78.9688 237.922 78.9688 237.384ZM80.6162 237.24V237.384C80.6162 237.721 80.6458 238.035 80.7051 238.327C80.7689 238.619 80.8669 238.876 80.999 239.1C81.1312 239.318 81.3021 239.492 81.5117 239.619C81.7259 239.742 81.9811 239.804 82.2773 239.804C82.651 239.804 82.9587 239.722 83.2002 239.558C83.4417 239.394 83.6309 239.173 83.7676 238.895C83.9089 238.612 84.0046 238.298 84.0547 237.951V236.714C84.0273 236.445 83.9704 236.194 83.8838 235.962C83.8018 235.729 83.6901 235.527 83.5488 235.354C83.4076 235.176 83.2321 235.039 83.0225 234.943C82.8174 234.843 82.5736 234.793 82.291 234.793C81.9902 234.793 81.735 234.857 81.5254 234.984C81.3158 235.112 81.1426 235.287 81.0059 235.511C80.8737 235.734 80.7757 235.994 80.7119 236.29C80.6481 236.586 80.6162 236.903 80.6162 237.24ZM91.6699 239.469V230.5H93.3242V241H91.8271L91.6699 239.469ZM86.8574 237.384V237.24C86.8574 236.68 86.9235 236.169 87.0557 235.709C87.1878 235.244 87.3792 234.845 87.6299 234.513C87.8805 234.175 88.1859 233.918 88.5459 233.74C88.9059 233.558 89.3115 233.467 89.7627 233.467C90.2093 233.467 90.6012 233.553 90.9385 233.727C91.2757 233.9 91.5628 234.148 91.7998 234.472C92.0368 234.791 92.2259 235.174 92.3672 235.62C92.5085 236.062 92.6087 236.554 92.668 237.097V237.555C92.6087 238.083 92.5085 238.566 92.3672 239.004C92.2259 239.441 92.0368 239.82 91.7998 240.139C91.5628 240.458 91.2734 240.704 90.9316 240.877C90.5944 241.05 90.2002 241.137 89.749 241.137C89.3024 241.137 88.8991 241.043 88.5391 240.856C88.1836 240.67 87.8805 240.408 87.6299 240.07C87.3792 239.733 87.1878 239.337 87.0557 238.881C86.9235 238.421 86.8574 237.922 86.8574 237.384ZM88.5049 237.24V237.384C88.5049 237.721 88.5345 238.035 88.5938 238.327C88.6576 238.619 88.7555 238.876 88.8877 239.1C89.0199 239.318 89.1908 239.492 89.4004 239.619C89.6146 239.742 89.8698 239.804 90.166 239.804C90.5397 239.804 90.8473 239.722 91.0889 239.558C91.3304 239.394 91.5195 239.173 91.6562 238.895C91.7975 238.612 91.8932 238.298 91.9434 237.951V236.714C91.916 236.445 91.859 236.194 91.7725 235.962C91.6904 235.729 91.5788 235.527 91.4375 235.354C91.2962 235.176 91.1208 235.039 90.9111 234.943C90.7061 234.843 90.4622 234.793 90.1797 234.793C89.8789 234.793 89.6237 234.857 89.4141 234.984C89.2044 235.112 89.0312 235.287 88.8945 235.511C88.7624 235.734 88.6644 235.994 88.6006 236.29C88.5368 236.586 88.5049 236.903 88.5049 237.24ZM97.1934 240.193L99.2031 233.604H100.967L98 242.128C97.9316 242.31 97.8428 242.508 97.7334 242.723C97.624 242.937 97.4805 243.14 97.3027 243.331C97.1296 243.527 96.9131 243.684 96.6533 243.803C96.3936 243.926 96.0791 243.987 95.71 243.987C95.5641 243.987 95.4229 243.974 95.2861 243.946C95.154 243.924 95.0286 243.898 94.9102 243.871L94.9033 242.613C94.9489 242.618 95.0036 242.622 95.0674 242.627C95.1357 242.632 95.1904 242.634 95.2314 242.634C95.5049 242.634 95.7327 242.6 95.915 242.531C96.0973 242.467 96.2454 242.363 96.3594 242.217C96.4779 242.071 96.5781 241.875 96.6602 241.629L97.1934 240.193ZM96.0586 233.604L97.8154 239.141L98.1094 240.877L96.9678 241.171L94.2812 233.604H96.0586Z" fill="black"/>
<path id="Cow" d="M320.891 197.76H322.6C322.545 198.411 322.363 198.993 322.053 199.503C321.743 200.009 321.308 200.408 320.747 200.699C320.187 200.991 319.505 201.137 318.703 201.137C318.088 201.137 317.534 201.027 317.042 200.809C316.55 200.585 316.128 200.271 315.777 199.865C315.426 199.455 315.158 198.961 314.971 198.382C314.788 197.803 314.697 197.156 314.697 196.44V195.613C314.697 194.898 314.791 194.251 314.978 193.672C315.169 193.093 315.442 192.599 315.798 192.188C316.153 191.774 316.579 191.457 317.076 191.238C317.577 191.02 318.14 190.91 318.765 190.91C319.558 190.91 320.228 191.056 320.774 191.348C321.321 191.639 321.745 192.043 322.046 192.558C322.351 193.073 322.538 193.663 322.606 194.328H320.897C320.852 193.9 320.752 193.533 320.597 193.228C320.446 192.922 320.223 192.69 319.927 192.53C319.631 192.366 319.243 192.284 318.765 192.284C318.373 192.284 318.031 192.357 317.739 192.503C317.448 192.649 317.204 192.863 317.008 193.146C316.812 193.428 316.664 193.777 316.563 194.191C316.468 194.602 316.42 195.071 316.42 195.6V196.44C316.42 196.942 316.463 197.397 316.55 197.808C316.641 198.213 316.778 198.562 316.96 198.854C317.147 199.145 317.384 199.371 317.671 199.53C317.958 199.69 318.302 199.77 318.703 199.77C319.191 199.77 319.585 199.692 319.886 199.537C320.191 199.382 320.421 199.157 320.576 198.86C320.736 198.56 320.84 198.193 320.891 197.76ZM323.68 197.384V197.227C323.68 196.693 323.757 196.199 323.912 195.743C324.067 195.283 324.29 194.884 324.582 194.547C324.878 194.205 325.238 193.941 325.662 193.754C326.09 193.562 326.574 193.467 327.111 193.467C327.654 193.467 328.137 193.562 328.561 193.754C328.989 193.941 329.351 194.205 329.647 194.547C329.944 194.884 330.169 195.283 330.324 195.743C330.479 196.199 330.557 196.693 330.557 197.227V197.384C330.557 197.917 330.479 198.411 330.324 198.867C330.169 199.323 329.944 199.722 329.647 200.063C329.351 200.401 328.991 200.665 328.567 200.856C328.144 201.043 327.663 201.137 327.125 201.137C326.583 201.137 326.097 201.043 325.669 200.856C325.245 200.665 324.885 200.401 324.589 200.063C324.293 199.722 324.067 199.323 323.912 198.867C323.757 198.411 323.68 197.917 323.68 197.384ZM325.327 197.227V197.384C325.327 197.716 325.361 198.031 325.43 198.327C325.498 198.623 325.605 198.883 325.751 199.106C325.897 199.33 326.084 199.505 326.312 199.633C326.539 199.76 326.811 199.824 327.125 199.824C327.43 199.824 327.695 199.76 327.918 199.633C328.146 199.505 328.333 199.33 328.479 199.106C328.624 198.883 328.731 198.623 328.8 198.327C328.873 198.031 328.909 197.716 328.909 197.384V197.227C328.909 196.898 328.873 196.589 328.8 196.297C328.731 196.001 328.622 195.739 328.472 195.511C328.326 195.283 328.139 195.105 327.911 194.978C327.688 194.845 327.421 194.779 327.111 194.779C326.801 194.779 326.533 194.845 326.305 194.978C326.081 195.105 325.897 195.283 325.751 195.511C325.605 195.739 325.498 196.001 325.43 196.297C325.361 196.589 325.327 196.898 325.327 197.227ZM333.947 199.359L335.656 193.604H336.709L336.422 195.326L334.699 201H333.756L333.947 199.359ZM332.942 193.604L334.275 199.387L334.385 201H333.332L331.329 193.604H332.942ZM338.309 199.318L339.601 193.604H341.207L339.211 201H338.158L338.309 199.318ZM336.887 193.604L338.575 199.291L338.787 201H337.844L336.101 195.319L335.813 193.604H336.887Z" fill="black"/>
<path id="Goat" d="M316.654 340.914V344.715C316.513 344.902 316.292 345.107 315.991 345.33C315.695 345.549 315.301 345.738 314.809 345.897C314.316 346.057 313.703 346.137 312.97 346.137C312.345 346.137 311.773 346.032 311.254 345.822C310.734 345.608 310.285 345.296 309.907 344.886C309.534 344.476 309.244 343.977 309.039 343.389C308.834 342.796 308.731 342.122 308.731 341.365V340.675C308.731 339.923 308.825 339.253 309.012 338.665C309.203 338.073 309.477 337.571 309.832 337.161C310.188 336.751 310.616 336.441 311.117 336.231C311.623 336.017 312.195 335.91 312.833 335.91C313.649 335.91 314.323 336.047 314.856 336.32C315.394 336.589 315.809 336.963 316.101 337.441C316.392 337.92 316.577 338.467 316.654 339.082H314.973C314.918 338.736 314.811 338.426 314.651 338.152C314.496 337.879 314.273 337.665 313.981 337.51C313.694 337.35 313.321 337.271 312.86 337.271C312.464 337.271 312.115 337.346 311.814 337.496C311.514 337.646 311.263 337.868 311.062 338.159C310.867 338.451 310.718 338.806 310.618 339.226C310.518 339.645 310.468 340.123 310.468 340.661V341.365C310.468 341.912 310.525 342.397 310.639 342.821C310.757 343.245 310.926 343.603 311.145 343.895C311.368 344.186 311.639 344.407 311.958 344.558C312.277 344.703 312.637 344.776 313.038 344.776C313.43 344.776 313.751 344.744 314.002 344.681C314.253 344.612 314.451 344.533 314.597 344.441C314.747 344.346 314.863 344.255 314.945 344.168V342.192H312.874V340.914H316.654ZM318.076 342.384V342.227C318.076 341.693 318.154 341.199 318.309 340.743C318.464 340.283 318.687 339.884 318.979 339.547C319.275 339.205 319.635 338.941 320.059 338.754C320.487 338.562 320.97 338.467 321.508 338.467C322.05 338.467 322.533 338.562 322.957 338.754C323.385 338.941 323.748 339.205 324.044 339.547C324.34 339.884 324.566 340.283 324.721 340.743C324.876 341.199 324.953 341.693 324.953 342.227V342.384C324.953 342.917 324.876 343.411 324.721 343.867C324.566 344.323 324.34 344.722 324.044 345.063C323.748 345.401 323.388 345.665 322.964 345.856C322.54 346.043 322.059 346.137 321.521 346.137C320.979 346.137 320.494 346.043 320.065 345.856C319.642 345.665 319.282 345.401 318.985 345.063C318.689 344.722 318.464 344.323 318.309 343.867C318.154 343.411 318.076 342.917 318.076 342.384ZM319.724 342.227V342.384C319.724 342.716 319.758 343.031 319.826 343.327C319.895 343.623 320.002 343.883 320.147 344.106C320.293 344.33 320.48 344.505 320.708 344.633C320.936 344.76 321.207 344.824 321.521 344.824C321.827 344.824 322.091 344.76 322.314 344.633C322.542 344.505 322.729 344.33 322.875 344.106C323.021 343.883 323.128 343.623 323.196 343.327C323.269 343.031 323.306 342.716 323.306 342.384V342.227C323.306 341.898 323.269 341.589 323.196 341.297C323.128 341.001 323.019 340.739 322.868 340.511C322.722 340.283 322.535 340.105 322.308 339.978C322.084 339.845 321.818 339.779 321.508 339.779C321.198 339.779 320.929 339.845 320.701 339.978C320.478 340.105 320.293 340.283 320.147 340.511C320.002 340.739 319.895 341.001 319.826 341.297C319.758 341.589 319.724 341.898 319.724 342.227ZM330.504 344.517V340.989C330.504 340.725 330.456 340.497 330.36 340.306C330.265 340.114 330.119 339.966 329.923 339.861C329.731 339.757 329.49 339.704 329.198 339.704C328.929 339.704 328.697 339.75 328.501 339.841C328.305 339.932 328.152 340.055 328.043 340.21C327.934 340.365 327.879 340.54 327.879 340.736H326.238C326.238 340.445 326.309 340.162 326.45 339.889C326.591 339.615 326.797 339.371 327.065 339.157C327.334 338.943 327.656 338.774 328.029 338.651C328.403 338.528 328.822 338.467 329.287 338.467C329.843 338.467 330.335 338.56 330.764 338.747C331.197 338.934 331.536 339.216 331.782 339.595C332.033 339.968 332.158 340.438 332.158 341.003V344.291C332.158 344.628 332.181 344.931 332.227 345.2C332.277 345.465 332.347 345.695 332.438 345.891V346H330.75C330.673 345.822 330.611 345.597 330.565 345.323C330.524 345.045 330.504 344.776 330.504 344.517ZM330.743 341.502L330.757 342.521H329.574C329.269 342.521 329 342.55 328.768 342.609C328.535 342.664 328.341 342.746 328.187 342.855C328.032 342.965 327.915 343.097 327.838 343.252C327.76 343.407 327.722 343.582 327.722 343.778C327.722 343.974 327.767 344.154 327.858 344.318C327.95 344.478 328.082 344.603 328.255 344.694C328.433 344.785 328.647 344.831 328.897 344.831C329.235 344.831 329.529 344.763 329.779 344.626C330.035 344.485 330.235 344.314 330.381 344.113C330.527 343.908 330.604 343.715 330.613 343.532L331.146 344.264C331.092 344.451 330.998 344.651 330.866 344.865C330.734 345.079 330.561 345.285 330.347 345.48C330.137 345.672 329.884 345.829 329.588 345.952C329.296 346.075 328.959 346.137 328.576 346.137C328.093 346.137 327.662 346.041 327.284 345.85C326.906 345.654 326.61 345.392 326.396 345.063C326.181 344.731 326.074 344.355 326.074 343.936C326.074 343.544 326.147 343.197 326.293 342.896C326.443 342.591 326.662 342.336 326.949 342.131C327.241 341.926 327.596 341.771 328.016 341.666C328.435 341.557 328.913 341.502 329.451 341.502H330.743ZM337.271 338.604V339.807H333.102V338.604H337.271ZM334.305 336.792H335.952V343.956C335.952 344.184 335.984 344.359 336.048 344.482C336.116 344.601 336.21 344.681 336.328 344.722C336.447 344.763 336.586 344.783 336.745 344.783C336.859 344.783 336.968 344.776 337.073 344.763C337.178 344.749 337.262 344.735 337.326 344.722L337.333 345.979C337.196 346.021 337.037 346.057 336.854 346.089C336.677 346.121 336.472 346.137 336.239 346.137C335.861 346.137 335.526 346.071 335.234 345.938C334.943 345.802 334.715 345.581 334.551 345.275C334.387 344.97 334.305 344.564 334.305 344.059V336.792Z" fill="black"/>
<path id="Ellipse 29" d="M222.782 166.17C204.221 167.271 186.373 173.712 171.386 184.717C156.399 195.722 144.91 210.822 138.301 228.201C131.692 245.581 130.245 264.5 134.134 282.682C138.023 300.864 147.081 317.536 160.221 330.692L167.642 323.28C155.931 311.554 147.857 296.694 144.391 280.488C140.925 264.282 142.215 247.42 148.105 231.929C153.996 216.439 164.236 202.98 177.594 193.171C190.952 183.363 206.86 177.622 223.403 176.64L222.782 166.17Z" fill="#C6E1D7"/>
<path id="Ellipse 30" d="M323.521 279.328C326.231 264.025 325.205 248.294 320.53 233.472C315.856 218.651 307.67 205.178 296.67 194.199C285.67 183.22 272.182 175.06 257.351 170.414C244.192 166.291 230.321 165.042 216.675 166.727C213.8 167.082 211.904 169.822 212.414 172.673V172.673C212.925 175.525 215.649 177.405 218.526 177.069C230.506 175.671 242.668 176.805 254.215 180.423C267.434 184.565 279.456 191.837 289.26 201.623C299.065 211.408 306.36 223.417 310.527 236.627C314.694 249.838 315.608 263.859 313.193 277.499L323.521 279.328Z" fill="#D99BFF"/>
<path id="Ellipse 31" d="M159.373 322.074C157.179 323.965 156.923 327.287 158.93 329.375C170.481 341.391 184.97 350.234 201.004 355C218.716 360.265 237.568 360.334 255.318 355.199C273.069 350.063 288.971 339.94 301.137 326.031C313.302 312.122 321.218 295.013 323.944 276.737L313.57 275.189C311.14 291.479 304.084 306.728 293.241 319.125C282.398 331.522 268.224 340.546 252.403 345.123C236.582 349.7 219.78 349.638 203.992 344.946C189.885 340.752 177.118 333.017 166.889 322.516C164.867 320.441 161.567 320.183 159.373 322.074V322.074Z" fill="#358A8A"/>
</g>
<g id="3_Microphone">
<path id="goat" d="M99.9785 601.434H102.117V611.707C102.117 612.658 101.915 613.465 101.512 614.129C101.108 614.793 100.545 615.298 99.8223 615.643C99.0996 615.994 98.263 616.17 97.3125 616.17C96.9089 616.17 96.4596 616.111 95.9648 615.994C95.4766 615.877 95.0013 615.688 94.5391 615.428C94.0833 615.174 93.7025 614.839 93.3965 614.422L94.5 613.035C94.8776 613.484 95.2943 613.813 95.75 614.021C96.2057 614.23 96.6842 614.334 97.1855 614.334C97.7259 614.334 98.1849 614.233 98.5625 614.031C98.9466 613.836 99.2428 613.546 99.4512 613.162C99.6595 612.778 99.7637 612.309 99.7637 611.756V603.826L99.9785 601.434ZM92.8008 606.834V606.629C92.8008 605.828 92.8984 605.099 93.0938 604.441C93.2891 603.777 93.569 603.208 93.9336 602.732C94.2982 602.251 94.7409 601.883 95.2617 601.629C95.7826 601.368 96.3717 601.238 97.0293 601.238C97.7129 601.238 98.2956 601.362 98.7773 601.609C99.2656 601.857 99.6725 602.212 99.998 602.674C100.324 603.13 100.577 603.676 100.76 604.314C100.949 604.946 101.089 605.649 101.18 606.424V607.078C101.095 607.833 100.952 608.523 100.75 609.148C100.548 609.773 100.281 610.314 99.9492 610.77C99.6172 611.225 99.207 611.577 98.7188 611.824C98.237 612.072 97.6673 612.195 97.0098 612.195C96.3652 612.195 95.7826 612.062 95.2617 611.795C94.7474 611.528 94.3047 611.154 93.9336 610.672C93.569 610.19 93.2891 609.624 93.0938 608.973C92.8984 608.315 92.8008 607.602 92.8008 606.834ZM95.1543 606.629V606.834C95.1543 607.316 95.1999 607.765 95.291 608.182C95.3887 608.598 95.5352 608.966 95.7305 609.285C95.9323 609.598 96.1862 609.845 96.4922 610.027C96.8047 610.203 97.1725 610.291 97.5957 610.291C98.1491 610.291 98.6016 610.174 98.9531 609.939C99.3112 609.705 99.5846 609.389 99.7734 608.992C99.9688 608.589 100.105 608.139 100.184 607.645V605.877C100.145 605.493 100.063 605.135 99.9395 604.803C99.8223 604.471 99.6628 604.181 99.4609 603.934C99.2591 603.68 99.0052 603.484 98.6992 603.348C98.3932 603.204 98.0319 603.133 97.6152 603.133C97.1921 603.133 96.8242 603.224 96.5117 603.406C96.1992 603.589 95.9421 603.839 95.7402 604.158C95.5449 604.477 95.3984 604.848 95.3008 605.271C95.2031 605.695 95.1543 606.147 95.1543 606.629ZM104.109 606.834V606.609C104.109 605.848 104.22 605.141 104.441 604.49C104.663 603.833 104.982 603.263 105.398 602.781C105.822 602.293 106.336 601.915 106.941 601.648C107.553 601.375 108.243 601.238 109.012 601.238C109.786 601.238 110.477 601.375 111.082 601.648C111.694 601.915 112.212 602.293 112.635 602.781C113.058 603.263 113.38 603.833 113.602 604.49C113.823 605.141 113.934 605.848 113.934 606.609V606.834C113.934 607.596 113.823 608.302 113.602 608.953C113.38 609.604 113.058 610.174 112.635 610.662C112.212 611.144 111.697 611.521 111.092 611.795C110.486 612.062 109.799 612.195 109.031 612.195C108.257 612.195 107.563 612.062 106.951 611.795C106.346 611.521 105.831 611.144 105.408 610.662C104.985 610.174 104.663 609.604 104.441 608.953C104.22 608.302 104.109 607.596 104.109 606.834ZM106.463 606.609V606.834C106.463 607.309 106.512 607.758 106.609 608.182C106.707 608.605 106.86 608.976 107.068 609.295C107.277 609.614 107.544 609.865 107.869 610.047C108.195 610.229 108.582 610.32 109.031 610.32C109.467 610.32 109.845 610.229 110.164 610.047C110.49 609.865 110.757 609.614 110.965 609.295C111.173 608.976 111.326 608.605 111.424 608.182C111.528 607.758 111.58 607.309 111.58 606.834V606.609C111.58 606.141 111.528 605.698 111.424 605.281C111.326 604.858 111.17 604.484 110.955 604.158C110.747 603.833 110.48 603.579 110.154 603.396C109.835 603.208 109.454 603.113 109.012 603.113C108.569 603.113 108.185 603.208 107.859 603.396C107.54 603.579 107.277 603.833 107.068 604.158C106.86 604.484 106.707 604.858 106.609 605.281C106.512 605.698 106.463 606.141 106.463 606.609ZM121.863 609.881V604.842C121.863 604.464 121.795 604.139 121.658 603.865C121.521 603.592 121.313 603.38 121.033 603.23C120.76 603.081 120.415 603.006 119.998 603.006C119.614 603.006 119.282 603.071 119.002 603.201C118.722 603.331 118.504 603.507 118.348 603.729C118.191 603.95 118.113 604.201 118.113 604.48H115.77C115.77 604.064 115.87 603.66 116.072 603.27C116.274 602.879 116.567 602.531 116.951 602.225C117.335 601.919 117.794 601.678 118.328 601.502C118.862 601.326 119.461 601.238 120.125 601.238C120.919 601.238 121.622 601.372 122.234 601.639C122.853 601.906 123.338 602.309 123.689 602.85C124.048 603.383 124.227 604.054 124.227 604.861V609.559C124.227 610.04 124.259 610.473 124.324 610.857C124.396 611.235 124.497 611.564 124.627 611.844V612H122.215C122.104 611.746 122.016 611.424 121.951 611.033C121.893 610.636 121.863 610.252 121.863 609.881ZM122.205 605.574L122.225 607.029H120.535C120.099 607.029 119.715 607.072 119.383 607.156C119.051 607.234 118.774 607.352 118.553 607.508C118.331 607.664 118.165 607.853 118.055 608.074C117.944 608.296 117.889 608.546 117.889 608.826C117.889 609.106 117.954 609.363 118.084 609.598C118.214 609.826 118.403 610.005 118.65 610.135C118.904 610.265 119.21 610.33 119.568 610.33C120.05 610.33 120.47 610.232 120.828 610.037C121.193 609.835 121.479 609.591 121.688 609.305C121.896 609.012 122.007 608.735 122.02 608.475L122.781 609.52C122.703 609.786 122.57 610.073 122.381 610.379C122.192 610.685 121.945 610.978 121.639 611.258C121.339 611.531 120.978 611.756 120.555 611.932C120.138 612.107 119.656 612.195 119.109 612.195C118.419 612.195 117.804 612.059 117.264 611.785C116.723 611.505 116.3 611.131 115.994 610.662C115.688 610.187 115.535 609.65 115.535 609.051C115.535 608.491 115.639 607.996 115.848 607.566C116.062 607.13 116.375 606.766 116.785 606.473C117.202 606.18 117.71 605.958 118.309 605.809C118.908 605.652 119.591 605.574 120.359 605.574H122.205ZM131.531 601.434V603.152H125.574V601.434H131.531ZM127.293 598.846H129.646V609.08C129.646 609.406 129.692 609.656 129.783 609.832C129.881 610.001 130.014 610.115 130.184 610.174C130.353 610.232 130.551 610.262 130.779 610.262C130.942 610.262 131.098 610.252 131.248 610.232C131.398 610.213 131.518 610.193 131.609 610.174L131.619 611.971C131.424 612.029 131.196 612.081 130.936 612.127C130.682 612.173 130.389 612.195 130.057 612.195C129.516 612.195 129.038 612.101 128.621 611.912C128.204 611.717 127.879 611.401 127.645 610.965C127.41 610.529 127.293 609.949 127.293 609.227V598.846Z" fill="black"/>
<path id="20 goat" opacity="0.5" d="M99.4238 634.688V636H92.752V634.872L95.9922 631.338C96.3477 630.937 96.6279 630.59 96.833 630.299C97.0381 630.007 97.1816 629.745 97.2637 629.513C97.3503 629.276 97.3936 629.046 97.3936 628.822C97.3936 628.508 97.3343 628.232 97.2158 627.995C97.1019 627.754 96.9333 627.564 96.71 627.428C96.4867 627.286 96.2155 627.216 95.8965 627.216C95.5273 627.216 95.2174 627.296 94.9668 627.455C94.7161 627.615 94.527 627.836 94.3994 628.118C94.2718 628.396 94.208 628.715 94.208 629.075H92.5605C92.5605 628.496 92.6927 627.968 92.957 627.489C93.2214 627.006 93.6042 626.623 94.1055 626.341C94.6068 626.054 95.2106 625.91 95.917 625.91C96.5824 625.91 97.1475 626.022 97.6123 626.245C98.0771 626.468 98.4303 626.785 98.6719 627.195C98.918 627.605 99.041 628.091 99.041 628.651C99.041 628.961 98.9909 629.269 98.8906 629.574C98.7904 629.88 98.6468 630.185 98.46 630.49C98.2777 630.791 98.0612 631.094 97.8105 631.399C97.5599 631.7 97.2842 632.006 96.9834 632.315L94.8301 634.688H99.4238ZM107.196 630.189V631.816C107.196 632.596 107.119 633.261 106.964 633.812C106.813 634.359 106.595 634.804 106.308 635.146C106.021 635.487 105.676 635.738 105.275 635.897C104.879 636.057 104.435 636.137 103.942 636.137C103.55 636.137 103.186 636.087 102.849 635.986C102.516 635.886 102.215 635.729 101.946 635.515C101.677 635.3 101.447 635.025 101.256 634.688C101.069 634.346 100.923 633.938 100.818 633.464C100.718 632.99 100.668 632.441 100.668 631.816V630.189C100.668 629.406 100.745 628.745 100.9 628.207C101.055 627.665 101.276 627.225 101.563 626.888C101.851 626.546 102.192 626.298 102.589 626.143C102.99 625.988 103.437 625.91 103.929 625.91C104.325 625.91 104.69 625.96 105.022 626.061C105.36 626.156 105.66 626.309 105.925 626.519C106.194 626.728 106.422 627.002 106.608 627.339C106.8 627.672 106.946 628.075 107.046 628.549C107.146 629.018 107.196 629.565 107.196 630.189ZM105.549 632.049V629.943C105.549 629.547 105.526 629.198 105.48 628.897C105.435 628.592 105.367 628.335 105.275 628.125C105.189 627.911 105.079 627.738 104.947 627.605C104.815 627.469 104.665 627.371 104.496 627.312C104.327 627.248 104.138 627.216 103.929 627.216C103.674 627.216 103.446 627.266 103.245 627.366C103.045 627.462 102.876 627.617 102.739 627.831C102.603 628.045 102.498 628.328 102.425 628.679C102.356 629.025 102.322 629.447 102.322 629.943V632.049C102.322 632.45 102.345 632.803 102.391 633.108C102.436 633.414 102.505 633.676 102.596 633.895C102.687 634.109 102.796 634.286 102.924 634.428C103.056 634.564 103.206 634.665 103.375 634.729C103.548 634.792 103.737 634.824 103.942 634.824C104.202 634.824 104.432 634.774 104.633 634.674C104.833 634.574 105.002 634.414 105.139 634.195C105.275 633.972 105.378 633.683 105.446 633.327C105.515 632.972 105.549 632.546 105.549 632.049ZM116.985 628.604H118.482V635.795C118.482 636.46 118.341 637.025 118.059 637.49C117.776 637.955 117.382 638.308 116.876 638.55C116.37 638.796 115.785 638.919 115.119 638.919C114.837 638.919 114.522 638.878 114.176 638.796C113.834 638.714 113.501 638.582 113.178 638.399C112.859 638.222 112.592 637.987 112.378 637.695L113.15 636.725C113.415 637.039 113.706 637.269 114.025 637.415C114.344 637.561 114.679 637.634 115.03 637.634C115.409 637.634 115.73 637.563 115.994 637.422C116.263 637.285 116.47 637.082 116.616 636.813C116.762 636.545 116.835 636.216 116.835 635.829V630.278L116.985 628.604ZM111.961 632.384V632.24C111.961 631.68 112.029 631.169 112.166 630.709C112.303 630.244 112.499 629.845 112.754 629.513C113.009 629.175 113.319 628.918 113.684 628.74C114.048 628.558 114.461 628.467 114.921 628.467C115.399 628.467 115.807 628.553 116.145 628.727C116.486 628.9 116.771 629.148 116.999 629.472C117.227 629.791 117.405 630.174 117.532 630.62C117.664 631.062 117.762 631.554 117.826 632.097V632.555C117.767 633.083 117.667 633.566 117.525 634.004C117.384 634.441 117.197 634.82 116.965 635.139C116.732 635.458 116.445 635.704 116.104 635.877C115.766 636.05 115.368 636.137 114.907 636.137C114.456 636.137 114.048 636.043 113.684 635.856C113.324 635.67 113.014 635.408 112.754 635.07C112.499 634.733 112.303 634.337 112.166 633.881C112.029 633.421 111.961 632.922 111.961 632.384ZM113.608 632.24V632.384C113.608 632.721 113.64 633.035 113.704 633.327C113.772 633.619 113.875 633.876 114.012 634.1C114.153 634.318 114.331 634.492 114.545 634.619C114.764 634.742 115.021 634.804 115.317 634.804C115.705 634.804 116.021 634.722 116.268 634.558C116.518 634.394 116.71 634.173 116.842 633.895C116.979 633.612 117.074 633.298 117.129 632.951V631.714C117.102 631.445 117.045 631.194 116.958 630.962C116.876 630.729 116.764 630.527 116.623 630.354C116.482 630.176 116.304 630.039 116.09 629.943C115.876 629.843 115.623 629.793 115.331 629.793C115.035 629.793 114.777 629.857 114.559 629.984C114.34 630.112 114.16 630.287 114.019 630.511C113.882 630.734 113.779 630.994 113.711 631.29C113.643 631.586 113.608 631.903 113.608 632.24ZM119.877 632.384V632.227C119.877 631.693 119.954 631.199 120.109 630.743C120.264 630.283 120.488 629.884 120.779 629.547C121.076 629.205 121.436 628.941 121.859 628.754C122.288 628.562 122.771 628.467 123.309 628.467C123.851 628.467 124.334 628.562 124.758 628.754C125.186 628.941 125.549 629.205 125.845 629.547C126.141 629.884 126.367 630.283 126.521 630.743C126.676 631.199 126.754 631.693 126.754 632.227V632.384C126.754 632.917 126.676 633.411 126.521 633.867C126.367 634.323 126.141 634.722 125.845 635.063C125.549 635.401 125.188 635.665 124.765 635.856C124.341 636.043 123.86 636.137 123.322 636.137C122.78 636.137 122.295 636.043 121.866 635.856C121.442 635.665 121.082 635.401 120.786 635.063C120.49 634.722 120.264 634.323 120.109 633.867C119.954 633.411 119.877 632.917 119.877 632.384ZM121.524 632.227V632.384C121.524 632.716 121.559 633.031 121.627 633.327C121.695 633.623 121.802 633.883 121.948 634.106C122.094 634.33 122.281 634.505 122.509 634.633C122.737 634.76 123.008 634.824 123.322 634.824C123.628 634.824 123.892 634.76 124.115 634.633C124.343 634.505 124.53 634.33 124.676 634.106C124.822 633.883 124.929 633.623 124.997 633.327C125.07 633.031 125.106 632.716 125.106 632.384V632.227C125.106 631.898 125.07 631.589 124.997 631.297C124.929 631.001 124.819 630.739 124.669 630.511C124.523 630.283 124.336 630.105 124.108 629.978C123.885 629.845 123.618 629.779 123.309 629.779C122.999 629.779 122.73 629.845 122.502 629.978C122.279 630.105 122.094 630.283 121.948 630.511C121.802 630.739 121.695 631.001 121.627 631.297C121.559 631.589 121.524 631.898 121.524 632.227ZM132.305 634.517V630.989C132.305 630.725 132.257 630.497 132.161 630.306C132.065 630.114 131.92 629.966 131.724 629.861C131.532 629.757 131.291 629.704 130.999 629.704C130.73 629.704 130.498 629.75 130.302 629.841C130.106 629.932 129.953 630.055 129.844 630.21C129.734 630.365 129.68 630.54 129.68 630.736H128.039C128.039 630.445 128.11 630.162 128.251 629.889C128.392 629.615 128.597 629.371 128.866 629.157C129.135 628.943 129.456 628.774 129.83 628.651C130.204 628.528 130.623 628.467 131.088 628.467C131.644 628.467 132.136 628.56 132.564 628.747C132.997 628.934 133.337 629.216 133.583 629.595C133.834 629.968 133.959 630.438 133.959 631.003V634.291C133.959 634.628 133.982 634.931 134.027 635.2C134.077 635.465 134.148 635.695 134.239 635.891V636H132.551C132.473 635.822 132.412 635.597 132.366 635.323C132.325 635.045 132.305 634.776 132.305 634.517ZM132.544 631.502L132.558 632.521H131.375C131.07 632.521 130.801 632.55 130.568 632.609C130.336 632.664 130.142 632.746 129.987 632.855C129.832 632.965 129.716 633.097 129.639 633.252C129.561 633.407 129.522 633.582 129.522 633.778C129.522 633.974 129.568 634.154 129.659 634.318C129.75 634.478 129.882 634.603 130.056 634.694C130.233 634.785 130.448 634.831 130.698 634.831C131.035 634.831 131.329 634.763 131.58 634.626C131.835 634.485 132.036 634.314 132.182 634.113C132.327 633.908 132.405 633.715 132.414 633.532L132.947 634.264C132.893 634.451 132.799 634.651 132.667 634.865C132.535 635.079 132.362 635.285 132.147 635.48C131.938 635.672 131.685 635.829 131.389 635.952C131.097 636.075 130.76 636.137 130.377 636.137C129.894 636.137 129.463 636.041 129.085 635.85C128.707 635.654 128.41 635.392 128.196 635.063C127.982 634.731 127.875 634.355 127.875 633.936C127.875 633.544 127.948 633.197 128.094 632.896C128.244 632.591 128.463 632.336 128.75 632.131C129.042 631.926 129.397 631.771 129.816 631.666C130.236 631.557 130.714 631.502 131.252 631.502H132.544ZM139.072 628.604V629.807H134.902V628.604H139.072ZM136.105 626.792H137.753V633.956C137.753 634.184 137.785 634.359 137.849 634.482C137.917 634.601 138.01 634.681 138.129 634.722C138.247 634.763 138.386 634.783 138.546 634.783C138.66 634.783 138.769 634.776 138.874 634.763C138.979 634.749 139.063 634.735 139.127 634.722L139.134 635.979C138.997 636.021 138.838 636.057 138.655 636.089C138.478 636.121 138.272 636.137 138.04 636.137C137.662 636.137 137.327 636.071 137.035 635.938C136.743 635.802 136.516 635.581 136.352 635.275C136.188 634.97 136.105 634.564 136.105 634.059V626.792Z" fill="black"/>
</g>
<g id="1_Location">
<path id="Paddy" d="M98.8457 430.697H95.1445V428.754H98.8457C99.4902 428.754 100.011 428.65 100.408 428.441C100.805 428.233 101.095 427.947 101.277 427.582C101.466 427.211 101.561 426.788 101.561 426.312C101.561 425.863 101.466 425.443 101.277 425.053C101.095 424.656 100.805 424.337 100.408 424.096C100.011 423.855 99.4902 423.734 98.8457 423.734H95.8965V436H93.4453V421.781H98.8457C99.946 421.781 100.88 421.977 101.648 422.367C102.423 422.751 103.012 423.285 103.416 423.969C103.82 424.646 104.021 425.421 104.021 426.293C104.021 427.211 103.82 427.999 103.416 428.656C103.012 429.314 102.423 429.818 101.648 430.17C100.88 430.521 99.946 430.697 98.8457 430.697ZM111.824 433.881V428.842C111.824 428.464 111.756 428.139 111.619 427.865C111.482 427.592 111.274 427.38 110.994 427.23C110.721 427.081 110.376 427.006 109.959 427.006C109.575 427.006 109.243 427.071 108.963 427.201C108.683 427.331 108.465 427.507 108.309 427.729C108.152 427.95 108.074 428.201 108.074 428.48H105.73C105.73 428.064 105.831 427.66 106.033 427.27C106.235 426.879 106.528 426.531 106.912 426.225C107.296 425.919 107.755 425.678 108.289 425.502C108.823 425.326 109.422 425.238 110.086 425.238C110.88 425.238 111.583 425.372 112.195 425.639C112.814 425.906 113.299 426.309 113.65 426.85C114.008 427.383 114.188 428.054 114.188 428.861V433.559C114.188 434.04 114.22 434.473 114.285 434.857C114.357 435.235 114.458 435.564 114.588 435.844V436H112.176C112.065 435.746 111.977 435.424 111.912 435.033C111.854 434.636 111.824 434.252 111.824 433.881ZM112.166 429.574L112.186 431.029H110.496C110.06 431.029 109.676 431.072 109.344 431.156C109.012 431.234 108.735 431.352 108.514 431.508C108.292 431.664 108.126 431.853 108.016 432.074C107.905 432.296 107.85 432.546 107.85 432.826C107.85 433.106 107.915 433.363 108.045 433.598C108.175 433.826 108.364 434.005 108.611 434.135C108.865 434.265 109.171 434.33 109.529 434.33C110.011 434.33 110.431 434.232 110.789 434.037C111.154 433.835 111.44 433.591 111.648 433.305C111.857 433.012 111.967 432.735 111.98 432.475L112.742 433.52C112.664 433.786 112.531 434.073 112.342 434.379C112.153 434.685 111.906 434.978 111.6 435.258C111.3 435.531 110.939 435.756 110.516 435.932C110.099 436.107 109.617 436.195 109.07 436.195C108.38 436.195 107.765 436.059 107.225 435.785C106.684 435.505 106.261 435.131 105.955 434.662C105.649 434.187 105.496 433.65 105.496 433.051C105.496 432.491 105.6 431.996 105.809 431.566C106.023 431.13 106.336 430.766 106.746 430.473C107.163 430.18 107.671 429.958 108.27 429.809C108.868 429.652 109.552 429.574 110.32 429.574H112.166ZM123.094 433.812V421H125.457V436H123.318L123.094 433.812ZM116.219 430.834V430.629C116.219 429.828 116.313 429.099 116.502 428.441C116.691 427.777 116.964 427.208 117.322 426.732C117.68 426.251 118.117 425.883 118.631 425.629C119.145 425.368 119.725 425.238 120.369 425.238C121.007 425.238 121.567 425.362 122.049 425.609C122.531 425.857 122.941 426.212 123.279 426.674C123.618 427.13 123.888 427.676 124.09 428.314C124.292 428.946 124.435 429.649 124.52 430.424V431.078C124.435 431.833 124.292 432.523 124.09 433.148C123.888 433.773 123.618 434.314 123.279 434.77C122.941 435.225 122.527 435.577 122.039 435.824C121.557 436.072 120.994 436.195 120.35 436.195C119.712 436.195 119.135 436.062 118.621 435.795C118.113 435.528 117.68 435.154 117.322 434.672C116.964 434.19 116.691 433.624 116.502 432.973C116.313 432.315 116.219 431.602 116.219 430.834ZM118.572 430.629V430.834C118.572 431.316 118.615 431.765 118.699 432.182C118.79 432.598 118.93 432.966 119.119 433.285C119.308 433.598 119.552 433.845 119.852 434.027C120.158 434.203 120.522 434.291 120.945 434.291C121.479 434.291 121.919 434.174 122.264 433.939C122.609 433.705 122.879 433.389 123.074 432.992C123.276 432.589 123.413 432.139 123.484 431.645V429.877C123.445 429.493 123.364 429.135 123.24 428.803C123.123 428.471 122.964 428.181 122.762 427.934C122.56 427.68 122.309 427.484 122.01 427.348C121.717 427.204 121.368 427.133 120.965 427.133C120.535 427.133 120.171 427.224 119.871 427.406C119.572 427.589 119.324 427.839 119.129 428.158C118.94 428.477 118.8 428.848 118.709 429.271C118.618 429.695 118.572 430.147 118.572 430.629ZM134.363 433.812V421H136.727V436H134.588L134.363 433.812ZM127.488 430.834V430.629C127.488 429.828 127.583 429.099 127.771 428.441C127.96 427.777 128.234 427.208 128.592 426.732C128.95 426.251 129.386 425.883 129.9 425.629C130.415 425.368 130.994 425.238 131.639 425.238C132.277 425.238 132.837 425.362 133.318 425.609C133.8 425.857 134.21 426.212 134.549 426.674C134.887 427.13 135.158 427.676 135.359 428.314C135.561 428.946 135.704 429.649 135.789 430.424V431.078C135.704 431.833 135.561 432.523 135.359 433.148C135.158 433.773 134.887 434.314 134.549 434.77C134.21 435.225 133.797 435.577 133.309 435.824C132.827 436.072 132.264 436.195 131.619 436.195C130.981 436.195 130.405 436.062 129.891 435.795C129.383 435.528 128.95 435.154 128.592 434.672C128.234 434.19 127.96 433.624 127.771 432.973C127.583 432.315 127.488 431.602 127.488 430.834ZM129.842 430.629V430.834C129.842 431.316 129.884 431.765 129.969 432.182C130.06 432.598 130.2 432.966 130.389 433.285C130.577 433.598 130.822 433.845 131.121 434.027C131.427 434.203 131.792 434.291 132.215 434.291C132.749 434.291 133.188 434.174 133.533 433.939C133.878 433.705 134.148 433.389 134.344 432.992C134.546 432.589 134.682 432.139 134.754 431.645V429.877C134.715 429.493 134.633 429.135 134.51 428.803C134.393 428.471 134.233 428.181 134.031 427.934C133.829 427.68 133.579 427.484 133.279 427.348C132.986 427.204 132.638 427.133 132.234 427.133C131.805 427.133 131.44 427.224 131.141 427.406C130.841 427.589 130.594 427.839 130.398 428.158C130.21 428.477 130.07 428.848 129.979 429.271C129.887 429.695 129.842 430.147 129.842 430.629ZM142.254 434.848L145.125 425.434H147.645L143.406 437.611C143.309 437.872 143.182 438.155 143.025 438.461C142.869 438.767 142.664 439.057 142.41 439.33C142.163 439.61 141.854 439.835 141.482 440.004C141.111 440.18 140.662 440.268 140.135 440.268C139.926 440.268 139.725 440.248 139.529 440.209C139.34 440.176 139.161 440.141 138.992 440.102L138.982 438.305C139.048 438.311 139.126 438.318 139.217 438.324C139.314 438.331 139.393 438.334 139.451 438.334C139.842 438.334 140.167 438.285 140.428 438.188C140.688 438.096 140.9 437.947 141.062 437.738C141.232 437.53 141.375 437.25 141.492 436.898L142.254 434.848ZM140.633 425.434L143.143 433.344L143.562 435.824L141.932 436.244L138.094 425.434H140.633Z" fill="black"/>
<path id="5 Bigha" opacity="0.5" d="M94.4814 455.372L93.1689 455.051L93.709 450.047H99.0752V451.441H95.0762L94.8027 453.882C94.9577 453.791 95.1719 453.702 95.4453 453.615C95.7188 453.524 96.0309 453.479 96.3818 453.479C96.8512 453.479 97.2705 453.556 97.6396 453.711C98.0133 453.861 98.3301 454.082 98.5898 454.374C98.8496 454.661 99.0479 455.012 99.1846 455.427C99.3213 455.837 99.3896 456.299 99.3896 456.814C99.3896 457.275 99.3213 457.705 99.1846 458.106C99.0524 458.507 98.8519 458.861 98.583 459.166C98.3141 459.471 97.9746 459.711 97.5645 459.884C97.1589 460.052 96.6781 460.137 96.1221 460.137C95.7074 460.137 95.3086 460.077 94.9258 459.959C94.5475 459.836 94.208 459.656 93.9072 459.419C93.6064 459.177 93.3649 458.881 93.1826 458.53C93.0003 458.175 92.8955 457.767 92.8682 457.307H94.4814C94.5225 457.63 94.6113 457.906 94.748 458.134C94.8893 458.357 95.0762 458.528 95.3086 458.646C95.541 458.765 95.8099 458.824 96.1152 458.824C96.3932 458.824 96.6325 458.776 96.833 458.681C97.0335 458.58 97.1999 458.439 97.332 458.257C97.4688 458.07 97.569 457.851 97.6328 457.601C97.7012 457.35 97.7354 457.072 97.7354 456.767C97.7354 456.475 97.6966 456.208 97.6191 455.967C97.5462 455.725 97.4346 455.516 97.2842 455.338C97.1383 455.16 96.9538 455.023 96.7305 454.928C96.5072 454.827 96.2497 454.777 95.958 454.777C95.5661 454.777 95.2653 454.834 95.0557 454.948C94.8506 455.062 94.6592 455.203 94.4814 455.372ZM108.188 455.502H105.651L105.638 454.251H107.853C108.226 454.251 108.543 454.196 108.803 454.087C109.067 453.973 109.268 453.811 109.404 453.602C109.541 453.387 109.609 453.13 109.609 452.829C109.609 452.496 109.546 452.225 109.418 452.016C109.29 451.806 109.094 451.653 108.83 451.558C108.57 451.462 108.238 451.414 107.832 451.414H106.171V460H104.455V450.047H107.832C108.379 450.047 108.867 450.099 109.295 450.204C109.728 450.309 110.095 450.473 110.396 450.696C110.701 450.915 110.931 451.193 111.086 451.53C111.245 451.868 111.325 452.269 111.325 452.733C111.325 453.144 111.227 453.52 111.031 453.861C110.835 454.199 110.546 454.474 110.163 454.688C109.78 454.903 109.304 455.03 108.734 455.071L108.188 455.502ZM108.112 460H105.111L105.884 458.64H108.112C108.5 458.64 108.823 458.576 109.083 458.448C109.343 458.316 109.536 458.136 109.664 457.908C109.796 457.676 109.862 457.405 109.862 457.095C109.862 456.771 109.805 456.491 109.691 456.254C109.577 456.012 109.397 455.828 109.151 455.7C108.905 455.568 108.584 455.502 108.188 455.502H106.26L106.273 454.251H108.782L109.172 454.723C109.719 454.741 110.168 454.862 110.519 455.085C110.874 455.308 111.138 455.598 111.312 455.953C111.485 456.309 111.571 456.691 111.571 457.102C111.571 457.735 111.432 458.266 111.154 458.694C110.881 459.123 110.487 459.449 109.972 459.672C109.457 459.891 108.837 460 108.112 460ZM114.9 452.604V460H113.246V452.604H114.9ZM113.137 450.662C113.137 450.411 113.219 450.204 113.383 450.04C113.551 449.871 113.784 449.787 114.08 449.787C114.372 449.787 114.602 449.871 114.771 450.04C114.939 450.204 115.023 450.411 115.023 450.662C115.023 450.908 114.939 451.113 114.771 451.277C114.602 451.441 114.372 451.523 114.08 451.523C113.784 451.523 113.551 451.441 113.383 451.277C113.219 451.113 113.137 450.908 113.137 450.662ZM121.442 452.604H122.939V459.795C122.939 460.46 122.798 461.025 122.516 461.49C122.233 461.955 121.839 462.308 121.333 462.55C120.827 462.796 120.242 462.919 119.576 462.919C119.294 462.919 118.979 462.878 118.633 462.796C118.291 462.714 117.958 462.582 117.635 462.399C117.316 462.222 117.049 461.987 116.835 461.695L117.607 460.725C117.872 461.039 118.163 461.269 118.482 461.415C118.801 461.561 119.136 461.634 119.487 461.634C119.866 461.634 120.187 461.563 120.451 461.422C120.72 461.285 120.927 461.082 121.073 460.813C121.219 460.545 121.292 460.216 121.292 459.829V454.278L121.442 452.604ZM116.418 456.384V456.24C116.418 455.68 116.486 455.169 116.623 454.709C116.76 454.244 116.956 453.845 117.211 453.513C117.466 453.175 117.776 452.918 118.141 452.74C118.505 452.558 118.918 452.467 119.378 452.467C119.856 452.467 120.264 452.553 120.602 452.727C120.943 452.9 121.228 453.148 121.456 453.472C121.684 453.791 121.862 454.174 121.989 454.62C122.121 455.062 122.219 455.554 122.283 456.097V456.555C122.224 457.083 122.124 457.566 121.982 458.004C121.841 458.441 121.654 458.82 121.422 459.139C121.189 459.458 120.902 459.704 120.561 459.877C120.223 460.05 119.825 460.137 119.364 460.137C118.913 460.137 118.505 460.043 118.141 459.856C117.781 459.67 117.471 459.408 117.211 459.07C116.956 458.733 116.76 458.337 116.623 457.881C116.486 457.421 116.418 456.922 116.418 456.384ZM118.065 456.24V456.384C118.065 456.721 118.097 457.035 118.161 457.327C118.229 457.619 118.332 457.876 118.469 458.1C118.61 458.318 118.788 458.492 119.002 458.619C119.221 458.742 119.478 458.804 119.774 458.804C120.162 458.804 120.479 458.722 120.725 458.558C120.975 458.394 121.167 458.173 121.299 457.895C121.436 457.612 121.531 457.298 121.586 456.951V455.714C121.559 455.445 121.502 455.194 121.415 454.962C121.333 454.729 121.221 454.527 121.08 454.354C120.939 454.176 120.761 454.039 120.547 453.943C120.333 453.843 120.08 453.793 119.788 453.793C119.492 453.793 119.234 453.857 119.016 453.984C118.797 454.112 118.617 454.287 118.476 454.511C118.339 454.734 118.236 454.994 118.168 455.29C118.1 455.586 118.065 455.903 118.065 456.24ZM126.275 449.5V460H124.635V449.5H126.275ZM125.988 456.028L125.455 456.021C125.46 455.511 125.53 455.039 125.667 454.606C125.808 454.174 126.004 453.798 126.255 453.479C126.51 453.155 126.815 452.907 127.171 452.733C127.526 452.556 127.921 452.467 128.354 452.467C128.718 452.467 129.046 452.517 129.338 452.617C129.634 452.717 129.889 452.879 130.104 453.103C130.318 453.321 130.479 453.608 130.589 453.964C130.703 454.315 130.76 454.743 130.76 455.249V460H129.105V455.235C129.105 454.88 129.053 454.597 128.948 454.388C128.848 454.178 128.7 454.028 128.504 453.937C128.308 453.841 128.069 453.793 127.786 453.793C127.49 453.793 127.228 453.852 127 453.971C126.777 454.089 126.59 454.251 126.439 454.456C126.289 454.661 126.175 454.898 126.098 455.167C126.025 455.436 125.988 455.723 125.988 456.028ZM136.598 458.517V454.989C136.598 454.725 136.55 454.497 136.454 454.306C136.358 454.114 136.213 453.966 136.017 453.861C135.825 453.757 135.584 453.704 135.292 453.704C135.023 453.704 134.791 453.75 134.595 453.841C134.399 453.932 134.246 454.055 134.137 454.21C134.027 454.365 133.973 454.54 133.973 454.736H132.332C132.332 454.445 132.403 454.162 132.544 453.889C132.685 453.615 132.89 453.371 133.159 453.157C133.428 452.943 133.749 452.774 134.123 452.651C134.497 452.528 134.916 452.467 135.381 452.467C135.937 452.467 136.429 452.56 136.857 452.747C137.29 452.934 137.63 453.216 137.876 453.595C138.127 453.968 138.252 454.438 138.252 455.003V458.291C138.252 458.628 138.275 458.931 138.32 459.2C138.37 459.465 138.441 459.695 138.532 459.891V460H136.844C136.766 459.822 136.705 459.597 136.659 459.323C136.618 459.045 136.598 458.776 136.598 458.517ZM136.837 455.502L136.851 456.521H135.668C135.363 456.521 135.094 456.55 134.861 456.609C134.629 456.664 134.435 456.746 134.28 456.855C134.125 456.965 134.009 457.097 133.932 457.252C133.854 457.407 133.815 457.582 133.815 457.778C133.815 457.974 133.861 458.154 133.952 458.318C134.043 458.478 134.175 458.603 134.349 458.694C134.526 458.785 134.741 458.831 134.991 458.831C135.328 458.831 135.622 458.763 135.873 458.626C136.128 458.485 136.329 458.314 136.475 458.113C136.62 457.908 136.698 457.715 136.707 457.532L137.24 458.264C137.186 458.451 137.092 458.651 136.96 458.865C136.828 459.079 136.655 459.285 136.44 459.48C136.231 459.672 135.978 459.829 135.682 459.952C135.39 460.075 135.053 460.137 134.67 460.137C134.187 460.137 133.756 460.041 133.378 459.85C133 459.654 132.703 459.392 132.489 459.063C132.275 458.731 132.168 458.355 132.168 457.936C132.168 457.544 132.241 457.197 132.387 456.896C132.537 456.591 132.756 456.336 133.043 456.131C133.335 455.926 133.69 455.771 134.109 455.666C134.529 455.557 135.007 455.502 135.545 455.502H136.837Z" fill="black"/>
</g>
<g id="2_Camera">
<path id="cow" d="M97.5273 522.32C97.9115 522.32 98.2565 522.245 98.5625 522.096C98.875 521.939 99.1257 521.725 99.3145 521.451C99.5098 521.178 99.6172 520.862 99.6367 520.504H101.854C101.84 521.188 101.639 521.809 101.248 522.369C100.857 522.929 100.34 523.375 99.6953 523.707C99.0508 524.033 98.3379 524.195 97.5566 524.195C96.7493 524.195 96.0462 524.059 95.4473 523.785C94.8483 523.505 94.3503 523.121 93.9531 522.633C93.556 522.145 93.2565 521.581 93.0547 520.943C92.8594 520.305 92.7617 519.622 92.7617 518.893V518.551C92.7617 517.822 92.8594 517.138 93.0547 516.5C93.2565 515.855 93.556 515.289 93.9531 514.801C94.3503 514.312 94.8483 513.932 95.4473 513.658C96.0462 513.378 96.7461 513.238 97.5469 513.238C98.3932 513.238 99.1354 513.408 99.7734 513.746C100.411 514.078 100.913 514.544 101.277 515.143C101.648 515.735 101.84 516.425 101.854 517.213H99.6367C99.6172 516.822 99.5195 516.471 99.3438 516.158C99.1745 515.839 98.9336 515.585 98.6211 515.396C98.3151 515.208 97.9473 515.113 97.5176 515.113C97.0423 515.113 96.6484 515.211 96.3359 515.406C96.0234 515.595 95.7793 515.855 95.6035 516.188C95.4277 516.513 95.3008 516.881 95.2227 517.291C95.151 517.695 95.1152 518.115 95.1152 518.551V518.893C95.1152 519.329 95.151 519.752 95.2227 520.162C95.2943 520.572 95.418 520.94 95.5938 521.266C95.776 521.585 96.0234 521.842 96.3359 522.037C96.6484 522.226 97.0456 522.32 97.5273 522.32ZM103.211 518.834V518.609C103.211 517.848 103.322 517.141 103.543 516.49C103.764 515.833 104.083 515.263 104.5 514.781C104.923 514.293 105.438 513.915 106.043 513.648C106.655 513.375 107.345 513.238 108.113 513.238C108.888 513.238 109.578 513.375 110.184 513.648C110.796 513.915 111.313 514.293 111.736 514.781C112.16 515.263 112.482 515.833 112.703 516.49C112.924 517.141 113.035 517.848 113.035 518.609V518.834C113.035 519.596 112.924 520.302 112.703 520.953C112.482 521.604 112.16 522.174 111.736 522.662C111.313 523.144 110.799 523.521 110.193 523.795C109.588 524.062 108.901 524.195 108.133 524.195C107.358 524.195 106.665 524.062 106.053 523.795C105.447 523.521 104.933 523.144 104.51 522.662C104.087 522.174 103.764 521.604 103.543 520.953C103.322 520.302 103.211 519.596 103.211 518.834ZM105.564 518.609V518.834C105.564 519.309 105.613 519.758 105.711 520.182C105.809 520.605 105.962 520.976 106.17 521.295C106.378 521.614 106.645 521.865 106.971 522.047C107.296 522.229 107.684 522.32 108.133 522.32C108.569 522.32 108.947 522.229 109.266 522.047C109.591 521.865 109.858 521.614 110.066 521.295C110.275 520.976 110.428 520.605 110.525 520.182C110.63 519.758 110.682 519.309 110.682 518.834V518.609C110.682 518.141 110.63 517.698 110.525 517.281C110.428 516.858 110.271 516.484 110.057 516.158C109.848 515.833 109.581 515.579 109.256 515.396C108.937 515.208 108.556 515.113 108.113 515.113C107.671 515.113 107.286 515.208 106.961 515.396C106.642 515.579 106.378 515.833 106.17 516.158C105.962 516.484 105.809 516.858 105.711 517.281C105.613 517.698 105.564 518.141 105.564 518.609ZM117.879 521.656L120.32 513.434H121.824L121.414 515.895L118.953 524H117.605L117.879 521.656ZM116.443 513.434L118.348 521.695L118.504 524H117L114.139 513.434H116.443ZM124.109 521.598L125.955 513.434H128.25L125.398 524H123.895L124.109 521.598ZM122.078 513.434L124.49 521.559L124.793 524H123.445L120.955 515.885L120.545 513.434H122.078Z" fill="black"/>
<path id="20 cow" opacity="0.5" d="M99.4238 546.688V548H92.752V546.872L95.9922 543.338C96.3477 542.937 96.6279 542.59 96.833 542.299C97.0381 542.007 97.1816 541.745 97.2637 541.513C97.3503 541.276 97.3936 541.046 97.3936 540.822C97.3936 540.508 97.3343 540.232 97.2158 539.995C97.1019 539.754 96.9333 539.564 96.71 539.428C96.4867 539.286 96.2155 539.216 95.8965 539.216C95.5273 539.216 95.2174 539.296 94.9668 539.455C94.7161 539.615 94.527 539.836 94.3994 540.118C94.2718 540.396 94.208 540.715 94.208 541.075H92.5605C92.5605 540.496 92.6927 539.968 92.957 539.489C93.2214 539.006 93.6042 538.623 94.1055 538.341C94.6068 538.054 95.2106 537.91 95.917 537.91C96.5824 537.91 97.1475 538.022 97.6123 538.245C98.0771 538.468 98.4303 538.785 98.6719 539.195C98.918 539.605 99.041 540.091 99.041 540.651C99.041 540.961 98.9909 541.269 98.8906 541.574C98.7904 541.88 98.6468 542.185 98.46 542.49C98.2777 542.791 98.0612 543.094 97.8105 543.399C97.5599 543.7 97.2842 544.006 96.9834 544.315L94.8301 546.688H99.4238ZM107.196 542.189V543.816C107.196 544.596 107.119 545.261 106.964 545.812C106.813 546.359 106.595 546.804 106.308 547.146C106.021 547.487 105.676 547.738 105.275 547.897C104.879 548.057 104.435 548.137 103.942 548.137C103.55 548.137 103.186 548.087 102.849 547.986C102.516 547.886 102.215 547.729 101.946 547.515C101.677 547.3 101.447 547.025 101.256 546.688C101.069 546.346 100.923 545.938 100.818 545.464C100.718 544.99 100.668 544.441 100.668 543.816V542.189C100.668 541.406 100.745 540.745 100.9 540.207C101.055 539.665 101.276 539.225 101.563 538.888C101.851 538.546 102.192 538.298 102.589 538.143C102.99 537.988 103.437 537.91 103.929 537.91C104.325 537.91 104.69 537.96 105.022 538.061C105.36 538.156 105.66 538.309 105.925 538.519C106.194 538.728 106.422 539.002 106.608 539.339C106.8 539.672 106.946 540.075 107.046 540.549C107.146 541.018 107.196 541.565 107.196 542.189ZM105.549 544.049V541.943C105.549 541.547 105.526 541.198 105.48 540.897C105.435 540.592 105.367 540.335 105.275 540.125C105.189 539.911 105.079 539.738 104.947 539.605C104.815 539.469 104.665 539.371 104.496 539.312C104.327 539.248 104.138 539.216 103.929 539.216C103.674 539.216 103.446 539.266 103.245 539.366C103.045 539.462 102.876 539.617 102.739 539.831C102.603 540.045 102.498 540.328 102.425 540.679C102.356 541.025 102.322 541.447 102.322 541.943V544.049C102.322 544.45 102.345 544.803 102.391 545.108C102.436 545.414 102.505 545.676 102.596 545.895C102.687 546.109 102.796 546.286 102.924 546.428C103.056 546.564 103.206 546.665 103.375 546.729C103.548 546.792 103.737 546.824 103.942 546.824C104.202 546.824 104.432 546.774 104.633 546.674C104.833 546.574 105.002 546.414 105.139 546.195C105.275 545.972 105.378 545.683 105.446 545.327C105.515 544.972 105.549 544.546 105.549 544.049ZM115.27 546.824C115.538 546.824 115.78 546.772 115.994 546.667C116.213 546.558 116.388 546.407 116.521 546.216C116.657 546.024 116.732 545.803 116.746 545.553H118.298C118.289 546.031 118.147 546.466 117.874 546.858C117.601 547.25 117.238 547.562 116.787 547.795C116.336 548.023 115.837 548.137 115.29 548.137C114.725 548.137 114.233 548.041 113.813 547.85C113.394 547.654 113.046 547.385 112.768 547.043C112.49 546.701 112.28 546.307 112.139 545.86C112.002 545.414 111.934 544.935 111.934 544.425V544.186C111.934 543.675 112.002 543.197 112.139 542.75C112.28 542.299 112.49 541.902 112.768 541.561C113.046 541.219 113.394 540.952 113.813 540.761C114.233 540.565 114.723 540.467 115.283 540.467C115.876 540.467 116.395 540.585 116.842 540.822C117.288 541.055 117.639 541.381 117.895 541.8C118.154 542.215 118.289 542.698 118.298 543.249H116.746C116.732 542.976 116.664 542.729 116.541 542.511C116.423 542.287 116.254 542.11 116.035 541.978C115.821 541.845 115.563 541.779 115.263 541.779C114.93 541.779 114.654 541.848 114.436 541.984C114.217 542.117 114.046 542.299 113.923 542.531C113.8 542.759 113.711 543.017 113.656 543.304C113.606 543.586 113.581 543.88 113.581 544.186V544.425C113.581 544.73 113.606 545.026 113.656 545.313C113.706 545.601 113.793 545.858 113.916 546.086C114.044 546.309 114.217 546.489 114.436 546.626C114.654 546.758 114.932 546.824 115.27 546.824ZM119.248 544.384V544.227C119.248 543.693 119.326 543.199 119.48 542.743C119.635 542.283 119.859 541.884 120.15 541.547C120.447 541.205 120.807 540.941 121.23 540.754C121.659 540.562 122.142 540.467 122.68 540.467C123.222 540.467 123.705 540.562 124.129 540.754C124.557 540.941 124.92 541.205 125.216 541.547C125.512 541.884 125.738 542.283 125.893 542.743C126.048 543.199 126.125 543.693 126.125 544.227V544.384C126.125 544.917 126.048 545.411 125.893 545.867C125.738 546.323 125.512 546.722 125.216 547.063C124.92 547.401 124.56 547.665 124.136 547.856C123.712 548.043 123.231 548.137 122.693 548.137C122.151 548.137 121.666 548.043 121.237 547.856C120.813 547.665 120.453 547.401 120.157 547.063C119.861 546.722 119.635 546.323 119.48 545.867C119.326 545.411 119.248 544.917 119.248 544.384ZM120.896 544.227V544.384C120.896 544.716 120.93 545.031 120.998 545.327C121.066 545.623 121.174 545.883 121.319 546.106C121.465 546.33 121.652 546.505 121.88 546.633C122.108 546.76 122.379 546.824 122.693 546.824C122.999 546.824 123.263 546.76 123.486 546.633C123.714 546.505 123.901 546.33 124.047 546.106C124.193 545.883 124.3 545.623 124.368 545.327C124.441 545.031 124.478 544.716 124.478 544.384V544.227C124.478 543.898 124.441 543.589 124.368 543.297C124.3 543.001 124.19 542.739 124.04 542.511C123.894 542.283 123.707 542.105 123.479 541.978C123.256 541.845 122.99 541.779 122.68 541.779C122.37 541.779 122.101 541.845 121.873 541.978C121.65 542.105 121.465 542.283 121.319 542.511C121.174 542.739 121.066 543.001 120.998 543.297C120.93 543.589 120.896 543.898 120.896 544.227ZM129.516 546.359L131.225 540.604H132.277L131.99 542.326L130.268 548H129.324L129.516 546.359ZM128.511 540.604L129.844 546.387L129.953 548H128.9L126.897 540.604H128.511ZM133.877 546.318L135.169 540.604H136.775L134.779 548H133.727L133.877 546.318ZM132.455 540.604L134.144 546.291L134.355 548H133.412L131.669 542.319L131.382 540.604H132.455Z" fill="black"/>
</g>
<path id="Vector" d="M54.4531 533C54.5857 533 54.7129 533.053 54.8066 533.146C54.9004 533.24 54.9531 533.367 54.9531 533.5C54.9531 533.633 54.9004 533.76 54.8066 533.854C54.7129 533.947 54.5857 534 54.4531 534C54.3205 534 54.1933 533.947 54.0995 533.854C54.0058 533.76 53.9531 533.633 53.9531 533.5C53.9531 533.367 54.0058 533.24 54.0995 533.146C54.1933 533.053 54.3205 533 54.4531 533ZM57.4531 533C57.5857 533 57.7129 533.053 57.8066 533.146C57.9004 533.24 57.9531 533.367 57.9531 533.5C57.9531 533.633 57.9004 533.76 57.8066 533.854C57.7129 533.947 57.5857 534 57.4531 534C57.3205 534 57.1933 533.947 57.0995 533.854C57.0058 533.76 56.9531 533.633 56.9531 533.5C56.9531 533.367 57.0058 533.24 57.0995 533.146C57.1933 533.053 57.3205 533 57.4531 533ZM53.9531 526C54.2183 526 54.4727 526.105 54.6602 526.293C54.8477 526.48 54.9531 526.735 54.9531 527C54.9531 527.265 54.8477 527.52 54.6602 527.707C54.4727 527.895 54.2183 528 53.9531 528C53.6879 528 53.4335 527.895 53.246 527.707C53.0584 527.52 52.9531 527.265 52.9531 527C52.9531 526.735 53.0584 526.48 53.246 526.293C53.4335 526.105 53.6879 526 53.9531 526ZM57.9531 526C58.2183 526 58.4727 526.105 58.6602 526.293C58.8477 526.48 58.9531 526.735 58.9531 527C58.9531 527.265 58.8477 527.52 58.6602 527.707C58.4727 527.895 58.2183 528 57.9531 528C57.6879 528 57.4335 527.895 57.246 527.707C57.0584 527.52 56.9531 527.265 56.9531 527C56.9531 526.735 57.0584 526.48 57.246 526.293C57.4335 526.105 57.6879 526 57.9531 526ZM61.9531 533C61.9531 535.21 59.2631 537 55.9531 537C52.6431 537 49.9531 535.21 49.9531 533C49.9531 532.1 50.4031 531.27 51.1531 530.6C50.4031 529.6 49.9531 528.35 49.9531 527L50.0731 525.78C49.5331 525.93 48.8831 525.93 48.3531 525.78C47.3331 525.5 45.7931 524.35 46.0231 523.55C46.2531 522.75 48.1631 522.6 49.1831 522.9C49.7731 523.07 50.4031 523.5 50.7731 523.96L51.3431 523.15C50.7431 522.05 50.9531 519 53.9531 518L53.8631 518.14C53.5831 518.58 52.8631 519.97 53.6231 521.47C54.3609 521.16 55.153 521.001 55.9531 521.001C56.7532 521.001 57.5453 521.16 58.2831 521.47C59.0431 519.97 58.3231 518.58 58.0431 518.14L57.9531 518C60.9531 519 61.1631 522.05 60.5631 523.15L61.1331 523.96C61.5031 523.5 62.1331 523.07 62.7231 522.9C63.7431 522.6 65.6531 522.75 65.8831 523.55C66.1131 524.35 64.5731 525.5 63.5531 525.78C63.0231 525.93 62.3731 525.93 61.8331 525.78L61.9531 527C61.9531 528.35 61.5031 529.6 60.7531 530.6C61.5031 531.27 61.9531 532.1 61.9531 533ZM55.9531 531C53.7431 531 51.9531 531.9 51.9531 533C51.9531 534.1 53.7431 535 55.9531 535C58.1631 535 59.9531 534.1 59.9531 533C59.9531 531.9 58.1631 531 55.9531 531ZM55.9531 529C57.0731 529 58.1231 529.21 59.0231 529.56C59.6031 528.87 59.9531 528 59.9531 527C59.9531 525.939 59.5317 524.922 58.7815 524.172C58.0314 523.421 57.014 523 55.9531 523C54.8922 523 53.8748 523.421 53.1247 524.172C52.3745 524.922 51.9531 525.939 51.9531 527C51.9531 528 52.3031 528.87 52.8831 529.56C53.7831 529.21 54.8331 529 55.9531 529Z" fill="black"/>
<g id="fluent-emoji-high-contrast:goat">
<g id="Group">
<g id="Clip path group">
<mask id="mask0_219_90" style="mask-type:luminance" maskUnits="userSpaceOnUse" x="40" y="606" width="21" height="21">
<g id="fluentEmojiHighContrastGoat0">
<path id="Vector_2" d="M40 606H61V627H40V606Z" fill="white"/>
</g>
</mask>
<g mask="url(#mask0_219_90)">
<g id="Group_2">
<path id="Vector_3" d="M45.7619 612.845L46.9366 612.261L47.7897 613.927C47.9209 614.183 47.7241 614.498 47.4353 614.479C46.9169 614.446 46.3984 614.105 46.1622 613.639L45.7619 612.845ZM44.9219 613.501C44.7381 613.501 44.5938 613.357 44.5938 613.173V612.681C44.5938 612.497 44.7381 612.352 44.9219 612.352C45.1056 612.352 45.25 612.497 45.25 612.681V613.173C45.25 613.357 45.1056 613.501 44.9219 613.501Z" fill="black"/>
<path id="Vector_4" d="M61.7566 623.926L62.4063 624.391V625.484C62.4066 625.886 62.5664 626.271 62.8506 626.556C63.1349 626.84 63.5202 627 63.9222 627H65.4841C65.886 627 66.2714 626.84 66.5556 626.556C66.8398 626.271 66.9997 625.886 67 625.484V622.177C67.0004 621.869 66.9396 621.565 66.8212 621.281C66.7028 620.997 66.5291 620.74 66.3103 620.523L65.6875 619.901V613.875C65.6872 613.328 65.5164 612.796 65.1987 612.351C64.8811 611.906 64.4325 611.571 63.9156 611.394C63.6687 611.309 63.4053 611.285 63.1471 611.322C62.8889 611.36 62.6433 611.458 62.4305 611.609C62.2186 611.759 62.046 611.958 61.9275 612.189C61.809 612.42 61.7481 612.677 61.75 612.937V613.219H55.9986L54.8456 610.912C54.6802 610.586 54.4562 610.293 54.1848 610.048C54.4021 609.975 54.63 609.938 54.8594 609.938C55.2636 609.938 55.6403 610.061 55.9579 610.27C56.042 610.327 56.1399 610.359 56.2411 610.365C56.3423 610.37 56.443 610.347 56.5324 610.3C56.6218 610.252 56.6966 610.181 56.7487 610.094C56.8008 610.007 56.8282 609.908 56.8281 609.806C56.8267 609.683 56.787 609.564 56.7146 609.465L56.7054 609.452L56.6956 609.441C56.3871 609.082 56.0046 608.794 55.5744 608.596C55.1442 608.399 54.6765 608.297 54.2031 608.297C53.3146 608.297 52.5166 608.682 51.9305 609.281H50.5347C49.8066 609.284 49.1087 609.573 48.5922 610.086L46.5906 612.087C46.4031 612.273 46.2543 612.494 46.153 612.738C46.0516 612.982 45.9996 613.243 46 613.508C46.0005 613.903 46.1012 614.292 46.2929 614.638C46.4846 614.984 46.7609 615.276 47.0959 615.486V616.343C47.0959 616.789 47.4569 617.156 47.9097 617.156H48.2969V615.844H48.4878L49.4729 619.716C49.7564 620.668 50.3918 621.476 51.25 621.977V625.478C51.2497 625.88 51.409 626.267 51.6932 626.552C51.9774 626.838 52.3632 626.999 52.7659 627H54.3278C54.7298 627 55.1151 626.84 55.3994 626.556C55.6836 626.271 55.8434 625.886 55.8438 625.484V624.233C56.2498 623.708 56.4795 623.069 56.5 622.406H58.4688V624.623C58.4688 624.733 58.4491 624.837 58.4031 624.933L57.3072 626.668C57.2416 626.823 57.34 627 57.4909 627H59.4794C59.6763 627 59.8534 626.897 59.9716 626.72L61.5531 625.095C61.6844 624.896 61.7566 624.652 61.7566 624.401V623.926ZM51.0525 610.8C50.874 611.434 51.3589 612.051 52.0047 612.051C52.4628 612.051 52.8499 611.734 52.9648 611.302L52.9661 611.298C53.0028 611.151 53.0599 611.012 53.1334 610.884C53.3612 611.041 53.5462 611.252 53.6716 611.499L54.8463 613.848C54.9478 614.054 55.1049 614.227 55.2998 614.347C55.4946 614.468 55.7195 614.532 55.9488 614.531H63.0618V612.937C63.061 612.886 63.0725 612.836 63.0953 612.791C63.1182 612.746 63.1518 612.707 63.1931 612.677C63.2375 612.648 63.2879 612.63 63.3405 612.623C63.3931 612.616 63.4465 612.621 63.4969 612.637C63.7534 612.727 63.9757 612.895 64.133 613.116C64.2903 613.338 64.3748 613.603 64.375 613.875V620.444L65.3889 621.458C65.484 621.552 65.5593 621.664 65.6106 621.787C65.6619 621.911 65.688 622.043 65.6875 622.177V624.375H63.7188V623.719L60.0516 621.094H55.1875V622.308C55.1881 622.768 55.0157 623.211 54.7045 623.549L54.5313 623.738V624.375H52.5625V621.136L52.1615 620.968C51.8188 620.818 51.5132 620.594 51.2661 620.313C51.019 620.032 50.8366 619.701 50.7316 619.342L49.6028 614.905L49.6094 612.078C49.6094 611.745 49.4486 611.477 49.2183 611.313L49.5175 611.014C49.7879 610.745 50.1541 610.594 50.5347 610.594H51.1168C51.0931 610.662 51.0716 610.731 51.0525 610.8ZM65.6875 625.031V625.491C65.6875 625.545 65.6661 625.596 65.6279 625.634C65.5898 625.673 65.538 625.694 65.4841 625.694H63.9222C63.8682 625.694 63.8165 625.673 63.7783 625.634C63.7402 625.596 63.7188 625.545 63.7188 625.491V625.031H65.6875ZM52.5625 625.478V625.031H54.5313V625.484C54.5313 625.538 54.5098 625.59 54.4717 625.628C54.4335 625.666 54.3818 625.688 54.3278 625.688H52.7659C52.7388 625.687 52.7119 625.681 52.687 625.671C52.662 625.66 52.6394 625.644 52.6205 625.625C52.6016 625.605 52.5868 625.582 52.5768 625.557C52.5668 625.532 52.562 625.505 52.5625 625.478ZM47.5159 613.015L48.7313 611.8C48.7942 611.814 48.8504 611.849 48.8908 611.9C48.9311 611.95 48.9531 612.012 48.9531 612.077L48.9479 614.531H48.3363C48.1295 614.531 47.9276 614.468 47.7572 614.351C47.5868 614.234 47.4558 614.068 47.3814 613.875H48.0081C48.4281 613.849 48.4019 613.219 47.9819 613.219H47.3781C47.3586 613.257 47.3432 613.297 47.3322 613.339C47.3628 613.216 47.4263 613.104 47.5159 613.015Z" fill="black"/>
</g>
</g>
</g>
</g>
</g>
<g id="271939265_642388603617674_7018806621489457697_n 1">
<g id="Group_3">
<path id="Vector_5" d="M60.4199 430.04C60.5099 430.04 60.5899 430.04 60.6799 430.04C60.7899 430.17 60.9099 430.28 60.9999 430.43C61.7899 431.74 62.1799 433.17 62.3099 434.68C62.3399 435.07 62.3499 435.47 62.3699 435.91C62.4499 435.78 62.5099 435.69 62.5699 435.59C63.0399 434.85 63.5799 434.16 64.1799 433.52C64.3099 433.39 64.4499 433.3 64.6399 433.35C64.8299 433.4 64.9399 433.54 64.9699 433.73C64.9799 433.76 64.9899 433.8 64.9999 433.83C65.4999 435.99 65.4399 438.14 65.0199 440.3C64.9699 440.55 64.9199 440.81 64.8599 441.08C65.2999 440.84 65.6999 440.61 66.0999 440.39C66.4699 440.19 66.7699 440.37 66.7999 440.78C66.8799 441.99 66.7499 443.17 66.4199 444.33C66.2999 444.74 66.1599 445.14 66.0099 445.54C65.9299 445.76 65.7399 445.88 65.5499 445.85C65.3399 445.82 65.2099 445.7 65.1799 445.49C65.1699 445.38 65.1999 445.26 65.2399 445.16C65.5799 444.26 65.8199 443.33 65.9199 442.37C65.9499 442.06 65.9499 441.76 65.9699 441.42C62.5099 443.35 60.3899 447.77 60.5699 450.81C60.8599 450.62 61.1299 450.45 61.3999 450.26C62.1699 449.7 62.8399 449.03 63.4499 448.3C63.6399 448.06 63.8899 448.03 64.0899 448.19C64.2899 448.35 64.3099 448.63 64.0999 448.85C63.6199 449.36 63.1299 449.88 62.6299 450.37C62.3699 450.62 62.0799 450.83 61.7599 451.08C61.8699 451.08 61.9399 451.08 62.0099 451.08C62.8099 451.08 63.6099 451.08 64.4099 451.08C64.7199 451.08 65.0399 451.07 65.3499 451.08C65.6799 451.09 65.8899 451.36 65.7799 451.64C65.7299 451.76 65.5899 451.84 65.4899 451.93C60.8499 451.93 56.2199 451.93 51.5799 451.93C51.5599 451.92 51.5299 451.9 51.5099 451.89C51.3199 451.78 51.2399 451.62 51.2799 451.41C51.3199 451.22 51.4799 451.1 51.6999 451.08C51.7599 451.08 51.8299 451.08 51.8899 451.08C53.9999 451.08 56.1099 451.08 58.2199 451.08C58.2899 451.08 58.3599 451.08 58.4599 451.08C58.4199 451.02 58.4099 451.01 58.3999 450.99C58.3599 450.95 58.3299 450.9 58.2899 450.86C56.3199 448.22 55.7799 445.35 56.9099 442.21C57.0499 441.81 57.3699 441.74 57.6899 442.03C58.4599 442.7 59.0699 443.51 59.5299 444.42C59.5599 444.48 59.5999 444.55 59.6599 444.65C59.6699 444.57 59.6799 444.54 59.6799 444.52C59.6799 442.02 59.6799 439.51 59.6799 437.01C59.6799 435.95 59.2999 435.03 58.5399 434.28C58.1199 433.86 57.6199 433.56 57.0299 433.37C57.0399 433.41 57.0499 433.42 57.0599 433.43C57.8099 434.24 57.9599 435.21 57.8099 436.26C57.7599 436.59 57.6399 436.7 57.3099 436.74C56.9999 436.77 56.6899 436.79 56.3899 436.81C56.3599 437.05 56.3499 437.28 56.3099 437.52C56.2699 437.8 56.1599 437.9 55.8899 437.95C55.6899 438 55.5099 438.02 55.3299 438.05C55.3499 438.09 55.3499 438.12 55.3699 438.14C55.7999 438.87 55.8899 439.67 55.7899 440.5C55.7299 441.05 55.6799 441.09 55.1599 441.19C55.1499 441.19 55.1399 441.21 55.1299 441.22C55.1299 441.23 55.1299 441.25 55.1399 441.26C55.8099 442.15 55.9099 443.15 55.7399 444.21C55.7099 444.42 55.5799 444.57 55.3699 444.59C54.9799 444.63 54.5899 444.65 54.1999 444.65C53.9799 444.65 53.7699 444.6 53.5399 444.57C53.5599 444.73 53.5999 444.89 53.6099 445.04C53.6899 446.25 53.1499 447.17 52.2499 447.92C51.6999 448.38 51.6299 448.38 51.0699 447.91C50.2699 447.24 49.7399 446.43 49.7199 445.35C49.7099 445.09 49.7599 444.83 49.7799 444.56C49.1799 444.7 48.5899 444.71 47.9899 444.6C47.7699 444.56 47.6299 444.45 47.5999 444.24C47.4499 443.31 47.4899 442.41 47.9899 441.57C48.0599 441.45 48.1399 441.34 48.2299 441.2C48.1199 441.18 48.0299 441.16 47.9399 441.14C47.7499 441.1 47.6299 440.98 47.5999 440.8C47.4599 439.99 47.4599 439.19 47.8199 438.44C47.9899 438.1 48.2199 437.8 48.4199 437.48C48.2099 437.39 47.9599 437.3 47.7299 437.18C47.0999 436.85 47.0799 436.83 47.2799 436.13C47.5599 435.14 48.0799 434.32 49.0399 433.85C49.1999 433.77 49.3599 433.72 49.4899 433.67C49.2199 433.24 48.9499 432.84 48.7099 432.43C48.5699 432.2 48.5999 432 48.8099 431.83C49.1399 431.56 49.4699 431.28 49.8299 431.06C51.0199 430.36 52.4199 430.52 53.4299 431.47C53.7699 431.8 54.0499 432.21 54.3699 432.6C55.9899 432.08 57.5199 432.37 58.8999 433.47C58.9199 433.38 58.9399 433.31 58.9599 433.24C59.1899 432.22 59.5399 431.26 60.0899 430.37C60.1699 430.24 60.3099 430.15 60.4199 430.04ZM64.2599 434.72C61.6699 438.04 60.5799 441.83 60.7299 446.01C60.7699 446 60.7899 445.98 60.7999 445.95C61.4999 444.5 62.4299 443.21 63.5999 442.1C63.6699 442.04 63.7099 441.94 63.7399 441.85C64.0699 440.73 64.2999 439.6 64.4099 438.44C64.5299 437.2 64.5099 435.96 64.2599 434.72ZM57.5199 443.09C56.5399 444.91 57.5999 449.4 59.3299 450.74C60.1599 448.32 59.4099 444.94 57.5199 443.09ZM60.5199 431.37C60.4999 431.42 60.4699 431.46 60.4499 431.5C60.0599 432.31 59.8199 433.16 59.6799 434.04C59.6499 434.21 59.6799 434.33 59.7699 434.47C60.2199 435.15 60.4799 435.9 60.4999 436.71C60.5199 437.66 60.5099 438.62 60.5199 439.57C60.5199 439.64 60.5199 439.72 60.5199 439.79C61.7899 437.5 61.8099 433.73 60.5199 431.37ZM53.4999 432.95C52.5599 431.19 50.7999 431.12 49.5999 432.29C50.5099 433.96 52.1799 434.16 53.4999 432.95ZM54.9199 443.78C55.1999 441.93 53.8699 440.7 52.1299 441C51.8699 443.08 53.4099 444.03 54.9199 443.78ZM48.0999 436.4C49.8699 437.32 51.3299 436.46 51.7199 434.8C50.2399 433.95 48.5699 434.48 48.0999 436.4ZM52.1299 437.54C51.8899 439.58 53.3399 440.58 54.9299 440.33C55.1899 438.54 53.8999 437.25 52.1299 437.54ZM51.6599 443.31C50.0499 444.6 50.3599 446.33 51.6699 447.27C53.1199 446.16 53.1199 444.41 51.6599 443.31ZM48.4099 440.34C50.4699 440.61 51.4599 439.07 51.1799 437.54C49.3399 437.3 48.1399 438.56 48.4099 440.34ZM48.3999 443.78C50.3699 444.05 51.4899 442.58 51.1799 440.98C49.3899 440.73 48.1499 441.98 48.3999 443.78ZM55.4999 436.81C55.4999 436.37 55.4099 435.95 55.1699 435.57C54.7099 434.87 54.0299 434.66 53.2299 434.67C53.0499 434.67 52.9799 434.72 52.9699 434.91C52.9099 436.25 53.7599 437.17 55.1099 437.19C55.4999 437.19 55.4999 437.19 55.4999 436.81ZM56.9499 435.95C57.0999 435.11 56.7799 434.11 55.9599 433.71C55.1999 433.33 54.3399 433.35 53.8799 433.82C54.1799 433.92 54.4999 434 54.7899 434.14C55.4899 434.48 55.9599 435.03 56.1899 435.78C56.2099 435.85 56.2799 435.94 56.3399 435.95C56.5499 435.96 56.7499 435.95 56.9499 435.95ZM52.0999 436.67C52.2499 436.66 52.3699 436.65 52.4999 436.63C52.4099 436.41 52.3299 436.23 52.2499 436.04C52.2399 436.04 52.2199 436.04 52.2099 436.05C52.1799 436.25 52.1399 436.45 52.0999 436.67Z" fill="black"/>
<path id="Vector_6" d="M49.9298 451.96C49.8898 451.93 49.8498 451.9 49.8098 451.88C49.6498 451.76 49.5898 451.6 49.6498 451.41C49.7098 451.22 49.8498 451.12 50.0498 451.11C50.2298 451.1 50.3998 451.24 50.4498 451.43C50.4998 451.63 50.4298 451.78 50.2698 451.89C50.2298 451.92 50.1798 451.94 50.1398 451.96C50.0698 451.96 49.9998 451.96 49.9298 451.96Z" fill="black"/>
<path id="Vector_7" d="M64.3901 447.07C64.3901 446.83 64.5701 446.63 64.8101 446.62C65.0401 446.61 65.2501 446.82 65.2401 447.05C65.2401 447.29 65.0401 447.49 64.8101 447.49C64.5801 447.49 64.4001 447.3 64.3901 447.07Z" fill="black"/>
</g>
</g>
</g>
<defs>
<filter id="filter0_d_219_90" x="-4" y="0" width="436" height="877" filterUnits="userSpaceOnUse" color-interpolation-filters="sRGB">
<feFlood flood-opacity="0" result="BackgroundImageFix"/>
<feColorMatrix in="SourceAlpha" type="matrix" values="0 0 0 0 0 0 0 0 0 0 0 0 0 0 0 0 0 0 127 0" result="hardAlpha"/>
<feOffset dy="4"/>
<feGaussianBlur stdDeviation="2"/>
<feComposite in2="hardAlpha" operator="out"/>
<feColorMatrix type="matrix" values="0 0 0 0 0 0 0 0 0 0 0 0 0 0 0 0 0 0 0.25 0"/>
<feBlend mode="normal" in2="BackgroundImageFix" result="effect1_dropShadow_219_90"/>
<feBlend mode="normal" in="SourceGraphic" in2="effect1_dropShadow_219_90" result="shape"/>
</filter>
</defs>
</svg>
