<svg width="89" height="77" viewBox="0 0 89 77" fill="none" xmlns="http://www.w3.org/2000/svg">
<path d="M37.3067 4.59375L36.0215 6.79688C33.1094 11.7969 27.9004 14.375 22.7188 13.375L14.5703 11.8281C9.55276 10.875 4.98636 15.2969 5.00003 21.1094C5.00003 23.5938 5.87503 25.9844 7.40628 27.75L11.3985 32.3125C12.9024 34.0312 13.75 36.3594 13.75 38.7969C13.75 41.2656 12.875 43.625 11.3301 45.3594L9.53909 47.3594C8.02151 49.0469 7.17386 51.3594 7.17386 53.7812C7.17386 59.5312 11.836 63.8125 16.7578 62.5625L25.2754 60.4062C26.3281 60.1406 27.4219 60 28.502 60H29.8692C33.5879 60 37.211 61.4531 40.1231 64.1094L44.334 67.9688C45.7696 69.2812 47.5606 70 49.3926 70C53.8633 70 57.5 65.8594 57.5 60.7344V56.7969C57.5 51.3438 60.4258 46.4531 64.8692 44.4844L69.9141 42.25C72.9766 40.8906 75 37.5156 75 33.7656C75 29.375 72.252 25.5938 68.4649 24.8125L64.6367 24.0156C59.6465 22.9688 55.6953 18.625 54.5742 12.9688L53.6035 8.04688C52.6875 3.34375 49.0235 0 44.8125 0C41.8047 0 38.9883 1.71875 37.3067 4.59375ZM26.8614 25C28.0217 25 29.1345 25.5268 29.9549 26.4645C30.7754 27.4021 31.2363 28.6739 31.2363 30C31.2363 31.3261 30.7754 32.5979 29.9549 33.5355C29.1345 34.4732 28.0217 35 26.8614 35C25.701 35 24.5882 34.4732 23.7678 33.5355C22.9473 32.5979 22.4864 31.3261 22.4864 30C22.4864 28.6739 22.9473 27.4021 23.7678 26.4645C24.5882 25.5268 25.701 25 26.8614 25ZM44.3613 27.5C44.3613 26.837 44.5918 26.2011 45.002 25.7322C45.4123 25.2634 45.9687 25 46.5488 25C47.129 25 47.6854 25.2634 48.0956 25.7322C48.5059 26.2011 48.7363 26.837 48.7363 27.5C48.7363 28.163 48.5059 28.7989 48.0956 29.2678C47.6854 29.7366 47.129 30 46.5488 30C45.9687 30 45.4123 29.7366 45.002 29.2678C44.5918 28.7989 44.3613 28.163 44.3613 27.5ZM44.3613 40C45.5217 40 46.6345 40.5268 47.4549 41.4645C48.2754 42.4021 48.7363 43.6739 48.7363 45C48.7363 46.3261 48.2754 47.5979 47.4549 48.5355C46.6345 49.4732 45.5217 50 44.3613 50C43.201 50 42.0882 49.4732 41.2678 48.5355C40.4473 47.5979 39.9863 46.3261 39.9863 45C39.9863 43.6739 40.4473 42.4021 41.2678 41.4645C42.0882 40.5268 43.201 40 44.3613 40Z" fill="#D99BFF"/>
</svg>
