<svg width="78" height="70" viewBox="0 0 78 70" fill="none" xmlns="http://www.w3.org/2000/svg">
<g id="fluent-mdl2:data-management-settings">
<path id="Vector" d="M31.7956 54.6482C32.8772 54.6482 33.9813 54.6196 35.108 54.5625C35.6714 55.8197 36.3699 56.9911 37.2037 58.0769C36.3023 58.1531 35.401 58.2102 34.4996 58.2483C33.5983 58.2864 32.6969 58.3055 31.7956 58.3055C28.7761 58.3055 25.8242 58.0959 22.9398 57.6769C22.1061 57.5626 21.1597 57.4007 20.1006 57.1911C19.0415 56.9816 17.9599 56.7054 16.8557 56.3625C15.7516 56.0197 14.67 55.6292 13.6109 55.1911C12.5518 54.7529 11.6054 54.2291 10.7716 53.6196C9.9379 53.01 9.27315 52.3528 8.77741 51.6481C8.28167 50.9433 8.02253 50.1147 8 49.1622V16.2466C8 15.3894 8.21407 14.6275 8.64221 13.9608C9.07035 13.2941 9.64496 12.6655 10.366 12.075C11.1322 11.4274 12.0448 10.8559 13.1039 10.3607C14.163 9.86541 15.3235 9.43682 16.5853 9.0749C17.8472 8.71298 19.1429 8.39868 20.4724 8.13201C21.8019 7.86533 23.1426 7.66532 24.4947 7.53198C25.8467 7.39864 27.1311 7.29388 28.3479 7.21768C29.5647 7.14149 30.714 7.10339 31.7956 7.10339C33.418 7.10339 35.2094 7.17959 37.1699 7.33197C39.1303 7.48436 41.102 7.74151 43.085 8.10343C45.0679 8.46535 46.9495 8.97966 48.7296 9.64635C50.5098 10.313 52.0083 11.1226 53.2251 12.075C53.9237 12.6274 54.487 13.256 54.9151 13.9608C55.3433 14.6656 55.5686 15.4275 55.5912 16.2466V32.5901H51.2647V21.6754C49.9127 22.3802 48.4367 22.9707 46.8368 23.4469C45.2369 23.9231 43.5807 24.3041 41.8681 24.5898C40.1556 24.8755 38.443 25.0756 36.7305 25.1898C35.0179 25.3041 33.3729 25.3708 31.7956 25.3899C30.2408 25.3899 28.6071 25.3327 26.8945 25.2184C25.1819 25.1041 23.4581 24.8946 21.723 24.5898C19.9879 24.285 18.3317 23.9041 16.7543 23.4469C15.177 22.9898 13.701 22.3993 12.3265 21.6754V49.1622C12.3265 49.5432 12.4842 49.8956 12.7997 50.2194C13.1151 50.5433 13.4419 50.8099 13.7799 51.0195C14.839 51.7243 16.1234 52.3052 17.6332 52.7624C19.1429 53.2195 20.7428 53.591 22.4328 53.8767C24.1229 54.1624 25.7791 54.3625 27.4015 54.4767C29.0239 54.591 30.4886 54.6482 31.7956 54.6482ZM31.7956 10.7607C30.6464 10.7607 29.4521 10.7893 28.2127 10.8464C26.9734 10.9035 25.7115 11.0178 24.4271 11.1893C23.1426 11.3607 21.9033 11.5702 20.709 11.8179C19.5147 12.0655 18.3768 12.3798 17.2951 12.7608C16.9571 12.8751 16.5065 13.0465 15.9431 13.2751C15.3798 13.5037 14.8277 13.7799 14.2869 14.1037C13.7461 14.4275 13.2842 14.7608 12.9011 15.1037C12.518 15.4466 12.3265 15.8276 12.3265 16.2466C12.3265 16.399 12.3603 16.5419 12.4279 16.6752C12.4955 16.8085 12.5856 16.9419 12.6983 17.0752C13.194 17.6848 13.9038 18.2277 14.8277 18.7039C15.7516 19.1801 16.7881 19.5896 17.9374 19.9325C19.0866 20.2754 20.3034 20.5611 21.5878 20.7897C22.8722 21.0182 24.1454 21.1992 25.4073 21.3325C26.6692 21.4659 27.8409 21.5706 28.9225 21.6468C30.0042 21.723 30.9618 21.7516 31.7956 21.7326C32.5843 21.7326 33.5307 21.704 34.6348 21.6468C35.739 21.5897 36.922 21.4945 38.1839 21.3611C39.4458 21.2278 40.7077 21.0373 41.9695 20.7897C43.2314 20.542 44.4595 20.2563 45.6538 19.9325C46.8481 19.6087 47.8734 19.2086 48.7296 18.7324C49.5859 18.2562 50.307 17.7038 50.8929 17.0752C51.0056 16.9419 51.0957 16.8085 51.1633 16.6752C51.2309 16.5419 51.2647 16.399 51.2647 16.2466C51.2647 15.8466 51.0732 15.4656 50.6901 15.1037C50.307 14.7418 49.8451 14.4085 49.3043 14.1037C48.7635 13.7989 48.2114 13.5322 47.648 13.3036C47.0847 13.0751 46.634 12.8941 46.296 12.7608C45.2369 12.3988 44.099 12.0941 42.8822 11.8464C41.6653 11.5988 40.426 11.3893 39.1641 11.2178C37.9022 11.0464 36.6516 10.9321 35.4122 10.875C34.1729 10.8178 32.9673 10.7797 31.7956 10.7607ZM64.0413 47.305C64.1765 47.8765 64.2441 48.4575 64.2441 49.048C64.2441 49.6385 64.1765 50.2194 64.0413 50.7909L68.2326 52.2481L66.5763 55.6482L62.3851 54.1624C61.5964 55.1339 60.6274 55.953 59.4782 56.6197L61.2358 60.1627L57.2136 61.5627L55.4898 58.0197C54.8137 58.134 54.1265 58.1912 53.4279 58.1912C52.7294 58.1912 52.0421 58.134 51.3661 58.0197L49.6423 61.5627L45.62 60.1627L47.3776 56.6197C46.2284 55.953 45.2595 55.1339 44.4708 54.1624L40.2795 55.6482L38.6233 52.2481L42.8146 50.7909C42.6794 50.2194 42.6118 49.6385 42.6118 49.048C42.6118 48.4575 42.6794 47.8765 42.8146 47.305L38.6233 45.8478L40.2795 42.4477L44.4708 43.9335C45.2595 42.962 46.2284 42.1429 47.3776 41.4762L45.62 37.9332L49.6423 36.5332L51.3661 40.0762C52.0421 39.9619 52.7294 39.9047 53.4279 39.9047C54.1265 39.9047 54.8137 39.9619 55.4898 40.0762L57.2136 36.5332L61.2358 37.9332L59.4782 41.4762C60.6274 42.1429 61.5964 42.962 62.3851 43.9335L66.5763 42.4477L68.2326 45.8478L64.0413 47.305ZM53.4279 54.5339C54.3293 54.5339 55.1743 54.391 55.963 54.1053C56.7516 53.8196 57.4389 53.4291 58.0248 52.9338C58.6107 52.4386 59.0726 51.8576 59.4106 51.1909C59.7486 50.5242 59.9176 49.8099 59.9176 49.048C59.9176 48.286 59.7486 47.5717 59.4106 46.905C59.0726 46.2383 58.6107 45.6573 58.0248 45.1621C57.4389 44.6668 56.7516 44.2763 55.963 43.9906C55.1743 43.7049 54.3293 43.562 53.4279 43.562C52.5266 43.562 51.6816 43.7049 50.8929 43.9906C50.1042 44.2763 49.4169 44.6668 48.8311 45.1621C48.2452 45.6573 47.7832 46.2383 47.4452 46.905C47.1072 47.5717 46.9382 48.286 46.9382 49.048C46.9382 49.8099 47.1072 50.5242 47.4452 51.1909C47.7832 51.8576 48.2452 52.4386 48.8311 52.9338C49.4169 53.4291 50.1042 53.8196 50.8929 54.1053C51.6816 54.391 52.5266 54.5339 53.4279 54.5339Z" fill="#D99BFF"/>
</g>
</svg>
