<svg xmlns="http://www.w3.org/2000/svg" width="279" height="233" fill="none" viewBox="0 0 279 233"><path fill="#000" d="M157.35 82.8301V86H155.867V77.4688H159.131C160.084 77.4688 160.84 77.7168 161.398 78.2129C161.961 78.709 162.242 79.3652 162.242 80.1816C162.242 81.0176 161.967 81.668 161.416 82.1328C160.869 82.5977 160.102 82.8301 159.113 82.8301H157.35ZM157.35 81.6406H159.131C159.658 81.6406 160.061 81.5176 160.338 81.2715C160.615 81.0215 160.754 80.6621 160.754 80.1934C160.754 79.7324 160.613 79.3652 160.332 79.0918C160.051 78.8145 159.664 78.6719 159.172 78.6641H157.35V81.6406ZM167.123 86C167.061 85.8789 167.006 85.6816 166.959 85.4082C166.506 85.8809 165.951 86.1172 165.295 86.1172C164.658 86.1172 164.139 85.9355 163.736 85.5723C163.334 85.209 163.133 84.7598 163.133 84.2246C163.133 83.5488 163.383 83.0312 163.883 82.6719C164.387 82.3086 165.105 82.127 166.039 82.127H166.912V81.7109C166.912 81.3828 166.82 81.1211 166.637 80.9258C166.453 80.7266 166.174 80.627 165.799 80.627C165.475 80.627 165.209 80.709 165.002 80.873C164.795 81.0332 164.691 81.2383 164.691 81.4883H163.268C163.268 81.1406 163.383 80.8164 163.613 80.5156C163.844 80.2109 164.156 79.9727 164.551 79.8008C164.949 79.6289 165.393 79.543 165.881 79.543C166.623 79.543 167.215 79.7305 167.656 80.1055C168.098 80.4766 168.324 81 168.336 81.6758V84.5352C168.336 85.1055 168.416 85.5605 168.576 85.9004V86H167.123ZM165.559 84.9746C165.84 84.9746 166.104 84.9062 166.35 84.7695C166.6 84.6328 166.787 84.4492 166.912 84.2188V83.0234H166.145C165.617 83.0234 165.221 83.1152 164.955 83.2988C164.689 83.4824 164.557 83.7422 164.557 84.0781C164.557 84.3516 164.646 84.5703 164.826 84.7344C165.01 84.8945 165.254 84.9746 165.559 84.9746ZM173.381 84.2773C173.381 84.0234 173.275 83.8301 173.064 83.6973C172.857 83.5645 172.512 83.4473 172.027 83.3457C171.543 83.2441 171.139 83.1152 170.814 82.959C170.104 82.6152 169.748 82.1172 169.748 81.4648C169.748 80.918 169.979 80.4609 170.439 80.0938C170.9 79.7266 171.486 79.543 172.197 79.543C172.955 79.543 173.566 79.7305 174.031 80.1055C174.5 80.4805 174.734 80.9668 174.734 81.5645H173.311C173.311 81.291 173.209 81.0645 173.006 80.8848C172.803 80.7012 172.533 80.6094 172.197 80.6094C171.885 80.6094 171.629 80.6816 171.43 80.8262C171.234 80.9707 171.137 81.1641 171.137 81.4062C171.137 81.625 171.229 81.7949 171.412 81.916C171.596 82.0371 171.967 82.1602 172.525 82.2852C173.084 82.4062 173.521 82.5527 173.838 82.7246C174.158 82.8926 174.395 83.0957 174.547 83.334C174.703 83.5723 174.781 83.8613 174.781 84.2012C174.781 84.7715 174.545 85.2344 174.072 85.5898C173.6 85.9414 172.98 86.1172 172.215 86.1172C171.695 86.1172 171.232 86.0234 170.826 85.8359C170.42 85.6484 170.104 85.3906 169.877 85.0625C169.65 84.7344 169.537 84.3809 169.537 84.002H170.92C170.939 84.3379 171.066 84.5977 171.301 84.7812C171.535 84.9609 171.846 85.0508 172.232 85.0508C172.607 85.0508 172.893 84.9805 173.088 84.8398C173.283 84.6953 173.381 84.5078 173.381 84.2773ZM177.811 78.1191V79.6602H178.93V80.7148H177.811V84.2539C177.811 84.4961 177.857 84.6719 177.951 84.7812C178.049 84.8867 178.221 84.9395 178.467 84.9395C178.631 84.9395 178.797 84.9199 178.965 84.8809V85.9824C178.641 86.0723 178.328 86.1172 178.027 86.1172C176.934 86.1172 176.387 85.5137 176.387 84.3066V80.7148H175.344V79.6602H176.387V78.1191H177.811Z" opacity=".6"/><path fill="#000" d="M129.838 104.826H131.244C131.791 104.826 132.243 104.732 132.602 104.543C132.966 104.354 133.236 104.094 133.412 103.762C133.588 103.43 133.676 103.049 133.676 102.619C133.676 102.17 133.594 101.786 133.432 101.467C133.275 101.141 133.035 100.891 132.709 100.715C132.39 100.539 131.983 100.451 131.488 100.451C131.072 100.451 130.694 100.536 130.355 100.705C130.023 100.868 129.76 101.102 129.564 101.408C129.369 101.708 129.271 102.066 129.271 102.482H126.908C126.908 101.727 127.107 101.057 127.504 100.471C127.901 99.8848 128.441 99.4258 129.125 99.0938C129.815 98.7552 130.59 98.5859 131.449 98.5859C132.367 98.5859 133.168 98.7389 133.852 99.0449C134.542 99.3444 135.079 99.7936 135.463 100.393C135.847 100.992 136.039 101.734 136.039 102.619C136.039 103.023 135.945 103.433 135.756 103.85C135.567 104.266 135.287 104.647 134.916 104.992C134.545 105.331 134.083 105.607 133.529 105.822C132.976 106.031 132.335 106.135 131.605 106.135H129.838V104.826ZM129.838 106.662V105.373H131.605C132.439 105.373 133.148 105.471 133.734 105.666C134.327 105.861 134.809 106.132 135.18 106.477C135.551 106.815 135.821 107.202 135.99 107.639C136.166 108.075 136.254 108.537 136.254 109.025C136.254 109.689 136.133 110.282 135.893 110.803C135.658 111.317 135.323 111.753 134.887 112.111C134.451 112.469 133.939 112.74 133.354 112.922C132.774 113.104 132.143 113.195 131.459 113.195C130.847 113.195 130.261 113.111 129.701 112.941C129.141 112.772 128.64 112.521 128.197 112.189C127.755 111.851 127.403 111.431 127.143 110.93C126.889 110.422 126.762 109.836 126.762 109.172H129.115C129.115 109.595 129.213 109.969 129.408 110.295C129.61 110.614 129.89 110.865 130.248 111.047C130.613 111.229 131.029 111.32 131.498 111.32C131.993 111.32 132.419 111.232 132.777 111.057C133.135 110.881 133.409 110.62 133.598 110.275C133.793 109.93 133.891 109.514 133.891 109.025C133.891 108.472 133.783 108.023 133.568 107.678C133.354 107.333 133.048 107.079 132.65 106.916C132.253 106.747 131.785 106.662 131.244 106.662H129.838ZM145.912 104.582V113H143.559V102.434H145.775L145.912 104.582ZM145.531 107.326L144.73 107.316C144.73 106.587 144.822 105.913 145.004 105.295C145.186 104.676 145.453 104.139 145.805 103.684C146.156 103.221 146.592 102.867 147.113 102.619C147.641 102.365 148.249 102.238 148.939 102.238C149.421 102.238 149.861 102.31 150.258 102.453C150.661 102.59 151.01 102.808 151.303 103.107C151.602 103.407 151.83 103.791 151.986 104.26C152.149 104.729 152.23 105.295 152.23 105.959V113H149.877V106.164C149.877 105.65 149.799 105.246 149.643 104.953C149.493 104.66 149.275 104.452 148.988 104.328C148.708 104.198 148.373 104.133 147.982 104.133C147.54 104.133 147.162 104.217 146.85 104.387C146.544 104.556 146.293 104.787 146.098 105.08C145.902 105.373 145.759 105.712 145.668 106.096C145.577 106.48 145.531 106.89 145.531 107.326ZM152.084 106.701L150.98 106.945C150.98 106.307 151.068 105.705 151.244 105.139C151.426 104.566 151.69 104.064 152.035 103.635C152.387 103.199 152.82 102.857 153.334 102.609C153.848 102.362 154.438 102.238 155.102 102.238C155.642 102.238 156.124 102.313 156.547 102.463C156.977 102.606 157.341 102.834 157.641 103.146C157.94 103.459 158.168 103.866 158.324 104.367C158.48 104.862 158.559 105.461 158.559 106.164V113H156.195V106.154C156.195 105.62 156.117 105.207 155.961 104.914C155.811 104.621 155.596 104.419 155.316 104.309C155.036 104.191 154.701 104.133 154.311 104.133C153.946 104.133 153.624 104.201 153.344 104.338C153.07 104.468 152.839 104.654 152.65 104.895C152.462 105.129 152.318 105.399 152.221 105.705C152.13 106.011 152.084 106.343 152.084 106.701ZM160.531 107.834V107.609C160.531 106.848 160.642 106.141 160.863 105.49C161.085 104.833 161.404 104.263 161.82 103.781C162.243 103.293 162.758 102.915 163.363 102.648C163.975 102.375 164.665 102.238 165.434 102.238C166.208 102.238 166.898 102.375 167.504 102.648C168.116 102.915 168.633 103.293 169.057 103.781C169.48 104.263 169.802 104.833 170.023 105.49C170.245 106.141 170.355 106.848 170.355 107.609V107.834C170.355 108.596 170.245 109.302 170.023 109.953C169.802 110.604 169.48 111.174 169.057 111.662C168.633 112.144 168.119 112.521 167.514 112.795C166.908 113.062 166.221 113.195 165.453 113.195C164.678 113.195 163.985 113.062 163.373 112.795C162.768 112.521 162.253 112.144 161.83 111.662C161.407 111.174 161.085 110.604 160.863 109.953C160.642 109.302 160.531 108.596 160.531 107.834ZM162.885 107.609V107.834C162.885 108.309 162.934 108.758 163.031 109.182C163.129 109.605 163.282 109.976 163.49 110.295C163.699 110.614 163.965 110.865 164.291 111.047C164.617 111.229 165.004 111.32 165.453 111.32C165.889 111.32 166.267 111.229 166.586 111.047C166.911 110.865 167.178 110.614 167.387 110.295C167.595 109.976 167.748 109.605 167.846 109.182C167.95 108.758 168.002 108.309 168.002 107.834V107.609C168.002 107.141 167.95 106.698 167.846 106.281C167.748 105.858 167.592 105.484 167.377 105.158C167.169 104.833 166.902 104.579 166.576 104.396C166.257 104.208 165.876 104.113 165.434 104.113C164.991 104.113 164.607 104.208 164.281 104.396C163.962 104.579 163.699 104.833 163.49 105.158C163.282 105.484 163.129 105.858 163.031 106.281C162.934 106.698 162.885 107.141 162.885 107.609ZM174.662 104.689V113H172.309V102.434H174.525L174.662 104.689ZM174.242 107.326L173.48 107.316C173.487 106.568 173.591 105.881 173.793 105.256C174.001 104.631 174.288 104.094 174.652 103.645C175.023 103.195 175.466 102.85 175.98 102.609C176.495 102.362 177.068 102.238 177.699 102.238C178.207 102.238 178.666 102.31 179.076 102.453C179.493 102.59 179.848 102.814 180.141 103.127C180.44 103.439 180.668 103.846 180.824 104.348C180.98 104.842 181.059 105.451 181.059 106.174V113H178.695V106.164C178.695 105.656 178.62 105.256 178.471 104.963C178.327 104.663 178.116 104.452 177.836 104.328C177.562 104.198 177.221 104.133 176.811 104.133C176.407 104.133 176.046 104.217 175.727 104.387C175.408 104.556 175.137 104.787 174.916 105.08C174.701 105.373 174.535 105.712 174.418 106.096C174.301 106.48 174.242 106.89 174.242 107.326ZM188.305 102.434V104.152H182.348V102.434H188.305ZM184.066 99.8457H186.42V110.08C186.42 110.406 186.465 110.656 186.557 110.832C186.654 111.001 186.788 111.115 186.957 111.174C187.126 111.232 187.325 111.262 187.553 111.262C187.715 111.262 187.872 111.252 188.021 111.232C188.171 111.213 188.292 111.193 188.383 111.174L188.393 112.971C188.197 113.029 187.969 113.081 187.709 113.127C187.455 113.173 187.162 113.195 186.83 113.195C186.29 113.195 185.811 113.101 185.395 112.912C184.978 112.717 184.652 112.401 184.418 111.965C184.184 111.529 184.066 110.949 184.066 110.227V99.8457ZM192.445 98V113H190.102V98H192.445ZM192.035 107.326L191.273 107.316C191.28 106.587 191.381 105.913 191.576 105.295C191.778 104.676 192.058 104.139 192.416 103.684C192.781 103.221 193.217 102.867 193.725 102.619C194.232 102.365 194.796 102.238 195.414 102.238C195.935 102.238 196.404 102.31 196.82 102.453C197.243 102.596 197.608 102.827 197.914 103.146C198.22 103.459 198.451 103.869 198.607 104.377C198.77 104.878 198.852 105.49 198.852 106.213V113H196.488V106.193C196.488 105.686 196.413 105.282 196.264 104.982C196.12 104.683 195.909 104.468 195.629 104.338C195.349 104.201 195.007 104.133 194.604 104.133C194.18 104.133 193.806 104.217 193.48 104.387C193.161 104.556 192.895 104.787 192.68 105.08C192.465 105.373 192.302 105.712 192.191 106.096C192.087 106.48 192.035 106.89 192.035 107.326Z"/><path fill="#000" d="M2.50195 69.0254V77.8438H0.854492V67.6035H2.37207L2.50195 69.0254ZM7.32129 71.2334V71.377C7.32129 71.9147 7.25749 72.4137 7.12988 72.874C7.00684 73.3298 6.82227 73.7285 6.57617 74.0703C6.33464 74.4076 6.03613 74.6696 5.68066 74.8564C5.3252 75.0433 4.91504 75.1367 4.4502 75.1367C3.98991 75.1367 3.58659 75.0524 3.24023 74.8838C2.89844 74.7106 2.60905 74.4668 2.37207 74.1523C2.13509 73.8379 1.94368 73.4688 1.79785 73.0449C1.65658 72.6165 1.55632 72.1471 1.49707 71.6367V71.083C1.55632 70.5407 1.65658 70.0485 1.79785 69.6064C1.94368 69.1644 2.13509 68.7839 2.37207 68.4648C2.60905 68.1458 2.89844 67.8997 3.24023 67.7266C3.58203 67.5534 3.98079 67.4668 4.43652 67.4668C4.90137 67.4668 5.3138 67.5579 5.67383 67.7402C6.03385 67.918 6.33691 68.1732 6.58301 68.5059C6.8291 68.834 7.01367 69.2305 7.13672 69.6953C7.25977 70.1556 7.32129 70.6683 7.32129 71.2334ZM5.67383 71.377V71.2334C5.67383 70.8916 5.64193 70.5749 5.57812 70.2832C5.51432 69.987 5.41406 69.7272 5.27734 69.5039C5.14062 69.2806 4.96517 69.1074 4.75098 68.9844C4.54134 68.8568 4.28841 68.793 3.99219 68.793C3.70052 68.793 3.44987 68.8431 3.24023 68.9434C3.0306 69.0391 2.85514 69.1735 2.71387 69.3467C2.57259 69.5199 2.46322 69.7227 2.38574 69.9551C2.30827 70.1829 2.25358 70.4313 2.22168 70.7002V72.0264C2.27637 72.3545 2.36979 72.6553 2.50195 72.9287C2.63411 73.2021 2.82096 73.4209 3.0625 73.585C3.30859 73.7445 3.62305 73.8242 4.00586 73.8242C4.30208 73.8242 4.55501 73.7604 4.76465 73.6328C4.97428 73.5052 5.14518 73.3298 5.27734 73.1064C5.41406 72.8786 5.51432 72.6165 5.57812 72.3203C5.64193 72.0241 5.67383 71.7096 5.67383 71.377ZM12.8926 73.5166V69.9893C12.8926 69.7249 12.8447 69.4971 12.749 69.3057C12.6533 69.1143 12.5075 68.9661 12.3115 68.8613C12.1201 68.7565 11.8786 68.7041 11.5869 68.7041C11.318 68.7041 11.0856 68.7497 10.8896 68.8408C10.6937 68.932 10.541 69.055 10.4316 69.21C10.3223 69.3649 10.2676 69.5404 10.2676 69.7363H8.62695C8.62695 69.4447 8.69759 69.1621 8.83887 68.8887C8.98014 68.6152 9.18522 68.3714 9.4541 68.1572C9.72298 67.943 10.0443 67.7744 10.418 67.6514C10.7917 67.5283 11.2109 67.4668 11.6758 67.4668C12.2318 67.4668 12.724 67.5602 13.1523 67.7471C13.5853 67.9339 13.9248 68.2165 14.1709 68.5947C14.4215 68.9684 14.5469 69.4378 14.5469 70.0029V73.291C14.5469 73.6283 14.5697 73.9313 14.6152 74.2002C14.6654 74.4645 14.736 74.6947 14.8271 74.8906V75H13.1387C13.0612 74.8223 12.9997 74.5967 12.9541 74.3232C12.9131 74.0452 12.8926 73.7764 12.8926 73.5166ZM13.1318 70.502L13.1455 71.5205H11.9629C11.6576 71.5205 11.3887 71.5501 11.1562 71.6094C10.9238 71.6641 10.7301 71.7461 10.5752 71.8555C10.4202 71.9648 10.304 72.097 10.2266 72.252C10.1491 72.4069 10.1104 72.5824 10.1104 72.7783C10.1104 72.9743 10.1559 73.1543 10.2471 73.3184C10.3382 73.4779 10.4704 73.6032 10.6436 73.6943C10.8213 73.7855 11.0355 73.8311 11.2861 73.8311C11.6234 73.8311 11.9173 73.7627 12.168 73.626C12.4232 73.4847 12.6237 73.3138 12.7695 73.1133C12.9154 72.9082 12.9928 72.7145 13.002 72.5322L13.5352 73.2637C13.4805 73.4505 13.387 73.651 13.2549 73.8652C13.1227 74.0794 12.9495 74.2845 12.7354 74.4805C12.5257 74.6719 12.2728 74.8291 11.9766 74.9521C11.6849 75.0752 11.3477 75.1367 10.9648 75.1367C10.4818 75.1367 10.0511 75.041 9.67285 74.8496C9.2946 74.6536 8.99837 74.3916 8.78418 74.0635C8.56999 73.7308 8.46289 73.3548 8.46289 72.9355C8.46289 72.5436 8.53581 72.1973 8.68164 71.8965C8.83203 71.5911 9.05078 71.3359 9.33789 71.1309C9.62956 70.9258 9.98503 70.7708 10.4043 70.666C10.8236 70.5566 11.3021 70.502 11.8398 70.502H13.1318ZM20.7812 73.4688V64.5H22.4355V75H20.9385L20.7812 73.4688ZM15.9688 71.3838V71.2402C15.9688 70.6797 16.0348 70.1693 16.167 69.709C16.2992 69.2441 16.4906 68.8454 16.7412 68.5127C16.9919 68.1755 17.2972 67.918 17.6572 67.7402C18.0173 67.5579 18.4229 67.4668 18.874 67.4668C19.3206 67.4668 19.7126 67.5534 20.0498 67.7266C20.387 67.8997 20.6742 68.1481 20.9111 68.4717C21.1481 68.7907 21.3372 69.1735 21.4785 69.6201C21.6198 70.0622 21.7201 70.5544 21.7793 71.0967V71.5547C21.7201 72.0833 21.6198 72.5664 21.4785 73.0039C21.3372 73.4414 21.1481 73.8197 20.9111 74.1387C20.6742 74.4577 20.3848 74.7038 20.043 74.877C19.7057 75.0501 19.3115 75.1367 18.8604 75.1367C18.4137 75.1367 18.0104 75.0433 17.6504 74.8564C17.2949 74.6696 16.9919 74.4076 16.7412 74.0703C16.4906 73.7331 16.2992 73.3366 16.167 72.8809C16.0348 72.4206 15.9688 71.9215 15.9688 71.3838ZM17.6162 71.2402V71.3838C17.6162 71.721 17.6458 72.0355 17.7051 72.3271C17.7689 72.6188 17.8669 72.8763 17.999 73.0996C18.1312 73.3184 18.3021 73.4915 18.5117 73.6191C18.7259 73.7422 18.9811 73.8037 19.2773 73.8037C19.651 73.8037 19.9587 73.7217 20.2002 73.5576C20.4417 73.3936 20.6309 73.1725 20.7676 72.8945C20.9089 72.612 21.0046 72.2975 21.0547 71.9512V70.7139C21.0273 70.445 20.9704 70.1943 20.8838 69.9619C20.8018 69.7295 20.6901 69.5267 20.5488 69.3535C20.4076 69.1758 20.2321 69.0391 20.0225 68.9434C19.8174 68.8431 19.5736 68.793 19.291 68.793C18.9902 68.793 18.735 68.8568 18.5254 68.9844C18.3158 69.112 18.1426 69.2874 18.0059 69.5107C17.8737 69.734 17.7757 69.9938 17.7119 70.29C17.6481 70.5863 17.6162 70.903 17.6162 71.2402ZM28.6699 73.4688V64.5H30.3242V75H28.8271L28.6699 73.4688ZM23.8574 71.3838V71.2402C23.8574 70.6797 23.9235 70.1693 24.0557 69.709C24.1878 69.2441 24.3792 68.8454 24.6299 68.5127C24.8805 68.1755 25.1859 67.918 25.5459 67.7402C25.9059 67.5579 26.3115 67.4668 26.7627 67.4668C27.2093 67.4668 27.6012 67.5534 27.9385 67.7266C28.2757 67.8997 28.5628 68.1481 28.7998 68.4717C29.0368 68.7907 29.2259 69.1735 29.3672 69.6201C29.5085 70.0622 29.6087 70.5544 29.668 71.0967V71.5547C29.6087 72.0833 29.5085 72.5664 29.3672 73.0039C29.2259 73.4414 29.0368 73.8197 28.7998 74.1387C28.5628 74.4577 28.2734 74.7038 27.9316 74.877C27.5944 75.0501 27.2002 75.1367 26.749 75.1367C26.3024 75.1367 25.8991 75.0433 25.5391 74.8564C25.1836 74.6696 24.8805 74.4076 24.6299 74.0703C24.3792 73.7331 24.1878 73.3366 24.0557 72.8809C23.9235 72.4206 23.8574 71.9215 23.8574 71.3838ZM25.5049 71.2402V71.3838C25.5049 71.721 25.5345 72.0355 25.5938 72.3271C25.6576 72.6188 25.7555 72.8763 25.8877 73.0996C26.0199 73.3184 26.1908 73.4915 26.4004 73.6191C26.6146 73.7422 26.8698 73.8037 27.166 73.8037C27.5397 73.8037 27.8473 73.7217 28.0889 73.5576C28.3304 73.3936 28.5195 73.1725 28.6562 72.8945C28.7975 72.612 28.8932 72.2975 28.9434 71.9512V70.7139C28.916 70.445 28.859 70.1943 28.7725 69.9619C28.6904 69.7295 28.5788 69.5267 28.4375 69.3535C28.2962 69.1758 28.1208 69.0391 27.9111 68.9434C27.7061 68.8431 27.4622 68.793 27.1797 68.793C26.8789 68.793 26.6237 68.8568 26.4141 68.9844C26.2044 69.112 26.0312 69.2874 25.8945 69.5107C25.7624 69.734 25.6644 69.9938 25.6006 70.29C25.5368 70.5863 25.5049 70.903 25.5049 71.2402ZM34.1934 74.1934L36.2031 67.6035H37.9668L35 76.1279C34.9316 76.3102 34.8428 76.5085 34.7334 76.7227C34.624 76.9368 34.4805 77.1396 34.3027 77.3311C34.1296 77.527 33.9131 77.6842 33.6533 77.8027C33.3936 77.9258 33.0791 77.9873 32.71 77.9873C32.5641 77.9873 32.4229 77.9736 32.2861 77.9463C32.154 77.9235 32.0286 77.8984 31.9102 77.8711L31.9033 76.6133C31.9489 76.6178 32.0036 76.6224 32.0674 76.627C32.1357 76.6315 32.1904 76.6338 32.2314 76.6338C32.5049 76.6338 32.7327 76.5996 32.915 76.5312C33.0973 76.4674 33.2454 76.3626 33.3594 76.2168C33.4779 76.071 33.5781 75.875 33.6602 75.6289L34.1934 74.1934ZM33.0586 67.6035L34.8154 73.1406L35.1094 74.877L33.9678 75.1709L31.2812 67.6035H33.0586Z"/><path fill="#000" d="M257.891 31.7598H259.6C259.545 32.4115 259.363 32.9925 259.053 33.5029C258.743 34.0088 258.308 34.4076 257.747 34.6992C257.187 34.9909 256.505 35.1367 255.703 35.1367C255.088 35.1367 254.534 35.0273 254.042 34.8086C253.55 34.5853 253.128 34.2708 252.777 33.8652C252.426 33.4551 252.158 32.9606 251.971 32.3818C251.788 31.8031 251.697 31.1559 251.697 30.4404V29.6133C251.697 28.8978 251.791 28.2507 251.978 27.6719C252.169 27.0931 252.442 26.5986 252.798 26.1885C253.153 25.7738 253.579 25.457 254.076 25.2383C254.577 25.0195 255.14 24.9102 255.765 24.9102C256.558 24.9102 257.228 25.056 257.774 25.3477C258.321 25.6393 258.745 26.0426 259.046 26.5576C259.351 27.0726 259.538 27.6628 259.606 28.3281H257.897C257.852 27.8997 257.752 27.5329 257.597 27.2275C257.446 26.9222 257.223 26.6898 256.927 26.5303C256.631 26.3662 256.243 26.2842 255.765 26.2842C255.373 26.2842 255.031 26.3571 254.739 26.5029C254.448 26.6488 254.204 26.863 254.008 27.1455C253.812 27.4281 253.664 27.7767 253.563 28.1914C253.468 28.6016 253.42 29.071 253.42 29.5996V30.4404C253.42 30.9417 253.463 31.3975 253.55 31.8076C253.641 32.2132 253.778 32.5618 253.96 32.8535C254.147 33.1452 254.384 33.3708 254.671 33.5303C254.958 33.6898 255.302 33.7695 255.703 33.7695C256.191 33.7695 256.585 33.6921 256.886 33.5371C257.191 33.3822 257.421 33.1566 257.576 32.8604C257.736 32.5596 257.84 32.1927 257.891 31.7598ZM260.68 31.3838V31.2266C260.68 30.6934 260.757 30.1989 260.912 29.7432C261.067 29.2829 261.29 28.8841 261.582 28.5469C261.878 28.2051 262.238 27.9408 262.662 27.7539C263.09 27.5625 263.574 27.4668 264.111 27.4668C264.654 27.4668 265.137 27.5625 265.561 27.7539C265.989 27.9408 266.351 28.2051 266.647 28.5469C266.944 28.8841 267.169 29.2829 267.324 29.7432C267.479 30.1989 267.557 30.6934 267.557 31.2266V31.3838C267.557 31.917 267.479 32.4115 267.324 32.8672C267.169 33.3229 266.944 33.7217 266.647 34.0635C266.351 34.4007 265.991 34.665 265.567 34.8564C265.144 35.0433 264.663 35.1367 264.125 35.1367C263.583 35.1367 263.097 35.0433 262.669 34.8564C262.245 34.665 261.885 34.4007 261.589 34.0635C261.293 33.7217 261.067 33.3229 260.912 32.8672C260.757 32.4115 260.68 31.917 260.68 31.3838ZM262.327 31.2266V31.3838C262.327 31.7165 262.361 32.0309 262.43 32.3271C262.498 32.6234 262.605 32.8831 262.751 33.1064C262.897 33.3298 263.084 33.5052 263.312 33.6328C263.539 33.7604 263.811 33.8242 264.125 33.8242C264.43 33.8242 264.695 33.7604 264.918 33.6328C265.146 33.5052 265.333 33.3298 265.479 33.1064C265.624 32.8831 265.731 32.6234 265.8 32.3271C265.873 32.0309 265.909 31.7165 265.909 31.3838V31.2266C265.909 30.8984 265.873 30.5885 265.8 30.2969C265.731 30.0007 265.622 29.7386 265.472 29.5107C265.326 29.2829 265.139 29.1051 264.911 28.9775C264.688 28.8454 264.421 28.7793 264.111 28.7793C263.801 28.7793 263.533 28.8454 263.305 28.9775C263.081 29.1051 262.897 29.2829 262.751 29.5107C262.605 29.7386 262.498 30.0007 262.43 30.2969C262.361 30.5885 262.327 30.8984 262.327 31.2266ZM270.947 33.3594L272.656 27.6035H273.709L273.422 29.3262L271.699 35H270.756L270.947 33.3594ZM269.942 27.6035L271.275 33.3867L271.385 35H270.332L268.329 27.6035H269.942ZM275.309 33.3184L276.601 27.6035H278.207L276.211 35H275.158L275.309 33.3184ZM273.887 27.6035L275.575 33.291L275.787 35H274.844L273.101 29.3193L272.813 27.6035H273.887Z"/><path fill="#000" d="M253.654 174.914V178.715C253.513 178.902 253.292 179.107 252.991 179.33C252.695 179.549 252.301 179.738 251.809 179.897C251.316 180.057 250.703 180.137 249.97 180.137C249.345 180.137 248.773 180.032 248.254 179.822C247.734 179.608 247.285 179.296 246.907 178.886C246.534 178.476 246.244 177.977 246.039 177.389C245.834 176.796 245.731 176.122 245.731 175.365V174.675C245.731 173.923 245.825 173.253 246.012 172.665C246.203 172.073 246.477 171.571 246.832 171.161C247.188 170.751 247.616 170.441 248.117 170.231C248.623 170.017 249.195 169.91 249.833 169.91C250.649 169.91 251.323 170.047 251.856 170.32C252.394 170.589 252.809 170.963 253.101 171.441C253.392 171.92 253.577 172.467 253.654 173.082H251.973C251.918 172.736 251.811 172.426 251.651 172.152C251.496 171.879 251.273 171.665 250.981 171.51C250.694 171.35 250.321 171.271 249.86 171.271C249.464 171.271 249.115 171.346 248.814 171.496C248.514 171.646 248.263 171.868 248.062 172.159C247.867 172.451 247.718 172.806 247.618 173.226C247.518 173.645 247.468 174.123 247.468 174.661V175.365C247.468 175.912 247.525 176.397 247.639 176.821C247.757 177.245 247.926 177.603 248.145 177.895C248.368 178.186 248.639 178.407 248.958 178.558C249.277 178.703 249.637 178.776 250.038 178.776C250.43 178.776 250.751 178.744 251.002 178.681C251.253 178.612 251.451 178.533 251.597 178.441C251.747 178.346 251.863 178.255 251.945 178.168V176.192H249.874V174.914H253.654ZM255.076 176.384V176.227C255.076 175.693 255.154 175.199 255.309 174.743C255.464 174.283 255.687 173.884 255.979 173.547C256.275 173.205 256.635 172.941 257.059 172.754C257.487 172.562 257.97 172.467 258.508 172.467C259.05 172.467 259.533 172.562 259.957 172.754C260.385 172.941 260.748 173.205 261.044 173.547C261.34 173.884 261.566 174.283 261.721 174.743C261.876 175.199 261.953 175.693 261.953 176.227V176.384C261.953 176.917 261.876 177.411 261.721 177.867C261.566 178.323 261.34 178.722 261.044 179.063C260.748 179.401 260.388 179.665 259.964 179.856C259.54 180.043 259.059 180.137 258.521 180.137C257.979 180.137 257.494 180.043 257.065 179.856C256.642 179.665 256.282 179.401 255.985 179.063C255.689 178.722 255.464 178.323 255.309 177.867C255.154 177.411 255.076 176.917 255.076 176.384ZM256.724 176.227V176.384C256.724 176.716 256.758 177.031 256.826 177.327C256.895 177.623 257.002 177.883 257.147 178.106C257.293 178.33 257.48 178.505 257.708 178.633C257.936 178.76 258.207 178.824 258.521 178.824C258.827 178.824 259.091 178.76 259.314 178.633C259.542 178.505 259.729 178.33 259.875 178.106C260.021 177.883 260.128 177.623 260.196 177.327C260.269 177.031 260.306 176.716 260.306 176.384V176.227C260.306 175.898 260.269 175.589 260.196 175.297C260.128 175.001 260.019 174.739 259.868 174.511C259.722 174.283 259.535 174.105 259.308 173.978C259.084 173.845 258.818 173.779 258.508 173.779C258.198 173.779 257.929 173.845 257.701 173.978C257.478 174.105 257.293 174.283 257.147 174.511C257.002 174.739 256.895 175.001 256.826 175.297C256.758 175.589 256.724 175.898 256.724 176.227ZM267.504 178.517V174.989C267.504 174.725 267.456 174.497 267.36 174.306C267.265 174.114 267.119 173.966 266.923 173.861C266.731 173.757 266.49 173.704 266.198 173.704C265.929 173.704 265.697 173.75 265.501 173.841C265.305 173.932 265.152 174.055 265.043 174.21C264.934 174.365 264.879 174.54 264.879 174.736H263.238C263.238 174.445 263.309 174.162 263.45 173.889C263.591 173.615 263.797 173.371 264.065 173.157C264.334 172.943 264.656 172.774 265.029 172.651C265.403 172.528 265.822 172.467 266.287 172.467C266.843 172.467 267.335 172.56 267.764 172.747C268.197 172.934 268.536 173.216 268.782 173.595C269.033 173.968 269.158 174.438 269.158 175.003V178.291C269.158 178.628 269.181 178.931 269.227 179.2C269.277 179.465 269.347 179.695 269.438 179.891V180H267.75C267.673 179.822 267.611 179.597 267.565 179.323C267.524 179.045 267.504 178.776 267.504 178.517ZM267.743 175.502L267.757 176.521H266.574C266.269 176.521 266 176.55 265.768 176.609C265.535 176.664 265.341 176.746 265.187 176.855C265.032 176.965 264.915 177.097 264.838 177.252C264.76 177.407 264.722 177.582 264.722 177.778C264.722 177.974 264.767 178.154 264.858 178.318C264.95 178.478 265.082 178.603 265.255 178.694C265.433 178.785 265.647 178.831 265.897 178.831C266.235 178.831 266.529 178.763 266.779 178.626C267.035 178.485 267.235 178.314 267.381 178.113C267.527 177.908 267.604 177.715 267.613 177.532L268.146 178.264C268.092 178.451 267.998 178.651 267.866 178.865C267.734 179.079 267.561 179.285 267.347 179.48C267.137 179.672 266.884 179.829 266.588 179.952C266.296 180.075 265.959 180.137 265.576 180.137C265.093 180.137 264.662 180.041 264.284 179.85C263.906 179.654 263.61 179.392 263.396 179.063C263.181 178.731 263.074 178.355 263.074 177.936C263.074 177.544 263.147 177.197 263.293 176.896C263.443 176.591 263.662 176.336 263.949 176.131C264.241 175.926 264.596 175.771 265.016 175.666C265.435 175.557 265.913 175.502 266.451 175.502H267.743ZM274.271 172.604V173.807H270.102V172.604H274.271ZM271.305 170.792H272.952V177.956C272.952 178.184 272.984 178.359 273.048 178.482C273.116 178.601 273.21 178.681 273.328 178.722C273.447 178.763 273.586 178.783 273.745 178.783C273.859 178.783 273.968 178.776 274.073 178.763C274.178 178.749 274.262 178.735 274.326 178.722L274.333 179.979C274.196 180.021 274.037 180.057 273.854 180.089C273.677 180.121 273.472 180.137 273.239 180.137C272.861 180.137 272.526 180.071 272.234 179.938C271.943 179.802 271.715 179.581 271.551 179.275C271.387 178.97 271.305 178.564 271.305 178.059V170.792Z"/><path fill="#C6E1D7" d="M159.782 0.169582C141.221 1.27141 123.373 7.71203 108.386 18.7168C93.3986 29.7215 81.9097 44.8218 75.301 62.2013C68.6924 79.5809 67.2454 98.4996 71.134 116.682C75.0227 134.864 84.0815 151.536 97.2208 164.692L104.642 157.28C92.9312 145.554 84.8571 130.694 81.3911 114.488C77.9251 98.2822 79.2148 81.4199 85.1052 65.9294C90.9955 50.4389 101.236 36.98 114.594 27.1714C127.952 17.3628 143.86 11.6223 160.403 10.6402L159.782 0.169582Z"/><path fill="#D99BFF" d="M260.521 113.328C263.231 98.0249 262.205 82.2936 257.53 67.4721C252.856 52.6507 244.67 39.1776 233.67 28.1988C222.67 17.2201 209.182 9.06042 194.351 4.41393C181.192 0.290921 167.321 -0.957703 153.675 0.727237C150.8 1.08217 148.904 3.82231 149.414 6.67342C149.925 9.52454 152.649 11.4051 155.526 11.0693C167.506 9.67056 179.668 10.8053 191.215 14.4232C204.434 18.5646 216.456 25.8374 226.26 35.6228C236.065 45.4083 243.36 57.4169 247.527 70.6273C251.694 83.8378 252.608 97.8591 250.193 111.499L260.521 113.328Z"/><path fill="#358A8A" d="M96.3729 156.074C94.1788 157.965 93.9229 161.287 95.9301 163.375C107.481 175.391 121.97 184.234 138.004 189C155.716 194.265 174.568 194.334 192.318 189.199C210.069 184.063 225.971 173.94 238.137 160.031C250.302 146.122 258.218 129.013 260.944 110.737L250.57 109.189C248.14 125.479 241.084 140.728 230.241 153.125C219.398 165.522 205.224 174.546 189.403 179.123C173.582 183.7 156.78 183.638 140.992 178.946C126.885 174.752 114.118 167.017 103.889 156.516C101.867 154.441 98.567 154.183 96.3729 156.074Z"/></svg>