<svg width="69" height="51" viewBox="0 0 69 51" fill="none" xmlns="http://www.w3.org/2000/svg">
<ellipse cx="47.3864" cy="16.618" rx="20.5105" ry="16.618" fill="#FFFF00"/>
<path fill-rule="evenodd" clip-rule="evenodd" d="M17.4153 50.1752L46.5376 50.5755C49.5154 51.1091 52.4868 51.129 55.2486 50.6952L55.5321 50.6991L55.532 50.649C61.22 49.6865 65.9792 46.7882 68.0047 42.4875C71.3966 35.2859 65.8387 26.8792 55.5908 23.7108C50.8137 22.2338 45.8608 22.1558 41.5904 23.2229C40.3554 15.944 32.0049 10.3147 21.8873 10.3147C10.9186 10.3147 2.02677 16.931 2.02677 25.0926C2.02677 28.3444 3.43834 31.3509 5.83042 33.7914C2.29297 35.4666 0 38.1541 0 41.1839C0 46.2622 6.44207 50.379 14.3888 50.379C15.427 50.379 16.4395 50.3087 17.4153 50.1752Z" fill="url(#paint0_linear_205_486)"/>
<defs>
<linearGradient id="paint0_linear_205_486" x1="34.5" y1="10.3147" x2="28.8492" y2="64.1485" gradientUnits="userSpaceOnUse">
<stop stop-color="#DFB1FD"/>
<stop offset="1" stop-color="#EBF1F8" stop-opacity="0"/>
</linearGradient>
</defs>
</svg>
