<svg width="428" height="131" viewBox="0 0 428 131" fill="none" xmlns="http://www.w3.org/2000/svg">
<rect y="-5" width="428" height="136" fill="white"/>
<path d="M46.7627 81L41.6064 64.1982H41.4746C41.4941 64.5986 41.5234 65.2041 41.5625 66.0146C41.6113 66.8154 41.6553 67.6699 41.6943 68.5781C41.7334 69.4863 41.7529 70.3066 41.7529 71.0391V81H37.6953V59.584H43.877L48.9453 75.9609H49.0332L54.4092 59.584H60.5908V81H56.3574V70.8633C56.3574 70.1895 56.3672 69.4131 56.3867 68.5342C56.416 67.6553 56.4502 66.8203 56.4893 66.0293C56.5283 65.2285 56.5576 64.6279 56.5771 64.2275H56.4453L50.9229 81H46.7627ZM72.3535 64.2861C74.5508 64.2861 76.2354 64.7646 77.4072 65.7217C78.5791 66.6787 79.165 68.1338 79.165 70.0869V81H76.0449L75.1807 78.7734H75.0635C74.5947 79.3594 74.1162 79.8379 73.6279 80.209C73.1396 80.5801 72.5781 80.8535 71.9434 81.0293C71.3086 81.2051 70.5371 81.293 69.6289 81.293C68.6621 81.293 67.793 81.1074 67.0215 80.7363C66.2598 80.3652 65.6592 79.7988 65.2197 79.0371C64.7803 78.2656 64.5605 77.2891 64.5605 76.1074C64.5605 74.3691 65.1709 73.0898 66.3916 72.2695C67.6123 71.4395 69.4434 70.9805 71.8848 70.8926L74.7266 70.8047V70.0869C74.7266 69.2275 74.502 68.5977 74.0527 68.1973C73.6035 67.7969 72.9785 67.5967 72.1777 67.5967C71.3867 67.5967 70.6104 67.709 69.8486 67.9336C69.0869 68.1582 68.3252 68.4414 67.5635 68.7832L66.084 65.7656C66.9531 65.3066 67.9248 64.9453 68.999 64.6816C70.083 64.418 71.2012 64.2861 72.3535 64.2861ZM74.7266 73.4121L72.998 73.4707C71.5527 73.5098 70.5469 73.7686 69.9805 74.2471C69.4238 74.7256 69.1455 75.3555 69.1455 76.1367C69.1455 76.8203 69.3457 77.3086 69.7461 77.6016C70.1465 77.8848 70.6689 78.0264 71.3135 78.0264C72.2705 78.0264 73.0762 77.7432 73.7305 77.1768C74.3945 76.6104 74.7266 75.8047 74.7266 74.7598V73.4121ZM92.9199 64.3154C93.1445 64.3154 93.4033 64.3301 93.6963 64.3594C93.999 64.3789 94.2432 64.4082 94.4287 64.4473L94.0918 68.6367C93.9453 68.5879 93.7354 68.5537 93.4619 68.5342C93.1982 68.5049 92.9688 68.4902 92.7734 68.4902C92.1973 68.4902 91.6357 68.5635 91.0889 68.71C90.5518 68.8564 90.0684 69.0957 89.6387 69.4277C89.209 69.75 88.8672 70.1797 88.6133 70.7168C88.3691 71.2441 88.2471 71.8936 88.2471 72.665V81H83.7793V64.623H87.1631L87.8223 67.377H88.042C88.3643 66.8203 88.7646 66.3125 89.2432 65.8535C89.7314 65.3848 90.2832 65.0137 90.8984 64.7402C91.5234 64.457 92.1973 64.3154 92.9199 64.3154ZM101.87 58.207V68.4023C101.87 69.0176 101.846 69.6328 101.797 70.248C101.748 70.8633 101.694 71.4785 101.636 72.0938H101.694C101.997 71.6641 102.305 71.2393 102.617 70.8193C102.939 70.3994 103.281 69.9941 103.643 69.6035L108.228 64.623H113.267L106.763 71.7275L113.662 81H108.506L103.789 74.3643L101.87 75.9023V81H97.4023V58.207H101.87ZM122.759 64.3154C124.272 64.3154 125.576 64.6084 126.67 65.1943C127.764 65.7705 128.608 66.6104 129.204 67.7139C129.8 68.8174 130.098 70.165 130.098 71.7568V73.9248H119.536C119.585 75.1846 119.961 76.1758 120.664 76.8984C121.377 77.6113 122.363 77.9678 123.623 77.9678C124.668 77.9678 125.625 77.8604 126.494 77.6455C127.363 77.4307 128.257 77.1084 129.175 76.6787V80.1357C128.364 80.5361 127.515 80.8291 126.626 81.0146C125.747 81.2002 124.678 81.293 123.418 81.293C121.777 81.293 120.322 80.9902 119.053 80.3848C117.793 79.7793 116.802 78.8564 116.079 77.6162C115.366 76.376 115.01 74.8135 115.01 72.9287C115.01 71.0146 115.332 69.4229 115.977 68.1533C116.631 66.874 117.539 65.917 118.701 65.2822C119.863 64.6377 121.216 64.3154 122.759 64.3154ZM122.788 67.4941C121.919 67.4941 121.196 67.7725 120.62 68.3291C120.054 68.8857 119.727 69.7598 119.639 70.9512H125.908C125.898 70.2871 125.776 69.6963 125.542 69.1787C125.317 68.6611 124.976 68.251 124.517 67.9482C124.067 67.6455 123.491 67.4941 122.788 67.4941ZM140.63 77.7334C141.118 77.7334 141.592 77.6846 142.051 77.5869C142.52 77.4893 142.983 77.3672 143.442 77.2207V80.5459C142.964 80.7607 142.368 80.9365 141.655 81.0732C140.952 81.2197 140.181 81.293 139.341 81.293C138.364 81.293 137.485 81.1367 136.704 80.8242C135.933 80.502 135.322 79.9502 134.873 79.1689C134.434 78.3779 134.214 77.2793 134.214 75.873V67.9775H132.075V66.0879L134.536 64.5938L135.825 61.1367H138.682V64.623H143.267V67.9775H138.682V75.873C138.682 76.498 138.857 76.9668 139.209 77.2793C139.57 77.582 140.044 77.7334 140.63 77.7334ZM155.879 64.3154C157.725 64.3154 159.214 65.0332 160.347 66.4688C161.489 67.9043 162.061 70.0088 162.061 72.7822C162.061 74.6377 161.792 76.2002 161.255 77.4697C160.718 78.7295 159.976 79.6816 159.028 80.3262C158.081 80.9707 156.992 81.293 155.762 81.293C154.971 81.293 154.292 81.1953 153.726 81C153.159 80.7949 152.676 80.5361 152.275 80.2236C151.875 79.9014 151.528 79.5596 151.235 79.1982H151.001C151.079 79.5889 151.138 79.9893 151.177 80.3994C151.216 80.8096 151.235 81.21 151.235 81.6006V88.207H146.768V64.623H150.4L151.03 66.7471H151.235C151.528 66.3076 151.885 65.9023 152.305 65.5312C152.725 65.1602 153.228 64.8672 153.813 64.6523C154.409 64.4277 155.098 64.3154 155.879 64.3154ZM154.443 67.8896C153.662 67.8896 153.042 68.0508 152.583 68.373C152.124 68.6953 151.787 69.1787 151.572 69.8232C151.367 70.4678 151.255 71.2832 151.235 72.2695V72.7529C151.235 73.8076 151.333 74.7012 151.528 75.4336C151.733 76.166 152.07 76.7227 152.539 77.1035C153.018 77.4844 153.672 77.6748 154.502 77.6748C155.186 77.6748 155.747 77.4844 156.187 77.1035C156.626 76.7227 156.953 76.166 157.168 75.4336C157.393 74.6914 157.505 73.7881 157.505 72.7236C157.505 71.1221 157.256 69.916 156.758 69.1055C156.26 68.2949 155.488 67.8896 154.443 67.8896ZM170.22 81H165.752V58.207H170.22V81ZM181.631 64.2861C183.828 64.2861 185.513 64.7646 186.685 65.7217C187.856 66.6787 188.442 68.1338 188.442 70.0869V81H185.322L184.458 78.7734H184.341C183.872 79.3594 183.394 79.8379 182.905 80.209C182.417 80.5801 181.855 80.8535 181.221 81.0293C180.586 81.2051 179.814 81.293 178.906 81.293C177.939 81.293 177.07 81.1074 176.299 80.7363C175.537 80.3652 174.937 79.7988 174.497 79.0371C174.058 78.2656 173.838 77.2891 173.838 76.1074C173.838 74.3691 174.448 73.0898 175.669 72.2695C176.89 71.4395 178.721 70.9805 181.162 70.8926L184.004 70.8047V70.0869C184.004 69.2275 183.779 68.5977 183.33 68.1973C182.881 67.7969 182.256 67.5967 181.455 67.5967C180.664 67.5967 179.888 67.709 179.126 67.9336C178.364 68.1582 177.603 68.4414 176.841 68.7832L175.361 65.7656C176.23 65.3066 177.202 64.9453 178.276 64.6816C179.36 64.418 180.479 64.2861 181.631 64.2861ZM184.004 73.4121L182.275 73.4707C180.83 73.5098 179.824 73.7686 179.258 74.2471C178.701 74.7256 178.423 75.3555 178.423 76.1367C178.423 76.8203 178.623 77.3086 179.023 77.6016C179.424 77.8848 179.946 78.0264 180.591 78.0264C181.548 78.0264 182.354 77.7432 183.008 77.1768C183.672 76.6104 184.004 75.8047 184.004 74.7598V73.4121ZM199.707 81.293C198.086 81.293 196.704 81 195.562 80.4141C194.419 79.8184 193.55 78.9004 192.954 77.6602C192.358 76.4199 192.061 74.833 192.061 72.8994C192.061 70.8975 192.397 69.2666 193.071 68.0068C193.755 66.7373 194.697 65.8047 195.898 65.209C197.109 64.6133 198.511 64.3154 200.103 64.3154C201.235 64.3154 202.212 64.4277 203.032 64.6523C203.862 64.8672 204.585 65.126 205.2 65.4287L203.882 68.8857C203.179 68.6025 202.524 68.373 201.919 68.1973C201.313 68.0117 200.708 67.9189 200.103 67.9189C199.321 67.9189 198.672 68.1045 198.154 68.4756C197.637 68.8369 197.251 69.3838 196.997 70.1162C196.743 70.8486 196.616 71.7666 196.616 72.8701C196.616 73.9541 196.753 74.8525 197.026 75.5654C197.3 76.2783 197.695 76.8105 198.213 77.1621C198.73 77.5039 199.36 77.6748 200.103 77.6748C201.03 77.6748 201.855 77.5527 202.578 77.3086C203.301 77.0547 204.004 76.7031 204.688 76.2539V80.0771C204.004 80.5068 203.286 80.8145 202.534 81C201.792 81.1953 200.85 81.293 199.707 81.293ZM215.249 64.3154C216.763 64.3154 218.066 64.6084 219.16 65.1943C220.254 65.7705 221.099 66.6104 221.694 67.7139C222.29 68.8174 222.588 70.165 222.588 71.7568V73.9248H212.026C212.075 75.1846 212.451 76.1758 213.154 76.8984C213.867 77.6113 214.854 77.9678 216.113 77.9678C217.158 77.9678 218.115 77.8604 218.984 77.6455C219.854 77.4307 220.747 77.1084 221.665 76.6787V80.1357C220.854 80.5361 220.005 80.8291 219.116 81.0146C218.237 81.2002 217.168 81.293 215.908 81.293C214.268 81.293 212.812 80.9902 211.543 80.3848C210.283 79.7793 209.292 78.8564 208.569 77.6162C207.856 76.376 207.5 74.8135 207.5 72.9287C207.5 71.0146 207.822 69.4229 208.467 68.1533C209.121 66.874 210.029 65.917 211.191 65.2822C212.354 64.6377 213.706 64.3154 215.249 64.3154ZM215.278 67.4941C214.409 67.4941 213.687 67.7725 213.11 68.3291C212.544 68.8857 212.217 69.7598 212.129 70.9512H218.398C218.389 70.2871 218.267 69.6963 218.032 69.1787C217.808 68.6611 217.466 68.251 217.007 67.9482C216.558 67.6455 215.981 67.4941 215.278 67.4941Z" fill="black"/>
</svg>
