<svg width="428" height="158" viewBox="0 0 428 158" fill="none" xmlns="http://www.w3.org/2000/svg">
<rect width="428" height="158" fill="white"/>
<path d="M44.5361 59.584C47.2998 59.584 49.3164 60.1797 50.5859 61.3711C51.8555 62.5527 52.4902 64.1836 52.4902 66.2637C52.4902 67.2012 52.3486 68.0996 52.0654 68.959C51.7822 69.8086 51.3184 70.5654 50.6738 71.2295C50.0391 71.8936 49.1895 72.4209 48.125 72.8115C47.0605 73.1924 45.7471 73.3828 44.1846 73.3828H42.2363V81H37.6953V59.584H44.5361ZM44.3018 63.3047H42.2363V69.6621H43.7305C44.5801 69.6621 45.3174 69.5498 45.9424 69.3252C46.5674 69.1006 47.0508 68.749 47.3926 68.2705C47.7344 67.792 47.9053 67.1768 47.9053 66.4248C47.9053 65.3701 47.6123 64.5889 47.0264 64.0811C46.4404 63.5635 45.5322 63.3047 44.3018 63.3047ZM62.9346 64.3154C64.4482 64.3154 65.752 64.6084 66.8457 65.1943C67.9395 65.7705 68.7842 66.6104 69.3799 67.7139C69.9756 68.8174 70.2734 70.165 70.2734 71.7568V73.9248H59.7119C59.7607 75.1846 60.1367 76.1758 60.8398 76.8984C61.5527 77.6113 62.5391 77.9678 63.7988 77.9678C64.8438 77.9678 65.8008 77.8604 66.6699 77.6455C67.5391 77.4307 68.4326 77.1084 69.3506 76.6787V80.1357C68.54 80.5361 67.6904 80.8291 66.8018 81.0146C65.9229 81.2002 64.8535 81.293 63.5938 81.293C61.9531 81.293 60.498 80.9902 59.2285 80.3848C57.9688 79.7793 56.9775 78.8564 56.2549 77.6162C55.542 76.376 55.1855 74.8135 55.1855 72.9287C55.1855 71.0146 55.5078 69.4229 56.1523 68.1533C56.8066 66.874 57.7148 65.917 58.877 65.2822C60.0391 64.6377 61.3916 64.3154 62.9346 64.3154ZM62.9639 67.4941C62.0947 67.4941 61.3721 67.7725 60.7959 68.3291C60.2295 68.8857 59.9023 69.7598 59.8145 70.9512H66.084C66.0742 70.2871 65.9521 69.6963 65.7178 69.1787C65.4932 68.6611 65.1514 68.251 64.6924 67.9482C64.2432 67.6455 63.667 67.4941 62.9639 67.4941ZM85.332 76.1367C85.332 77.25 85.0684 78.1924 84.541 78.9639C84.0234 79.7256 83.2471 80.3066 82.2119 80.707C81.1768 81.0977 79.8877 81.293 78.3447 81.293C77.2021 81.293 76.2207 81.2197 75.4004 81.0732C74.5898 80.9268 73.7695 80.6826 72.9395 80.3408V76.6494C73.8281 77.0498 74.7803 77.3818 75.7959 77.6455C76.8213 77.8994 77.7197 78.0264 78.4912 78.0264C79.3604 78.0264 79.9805 77.8994 80.3516 77.6455C80.7324 77.3818 80.9229 77.04 80.9229 76.6201C80.9229 76.3467 80.8447 76.1025 80.6885 75.8877C80.542 75.6631 80.2197 75.4141 79.7217 75.1406C79.2236 74.8574 78.4424 74.4912 77.3779 74.042C76.3525 73.6123 75.5078 73.1777 74.8438 72.7383C74.1895 72.2988 73.7012 71.7812 73.3789 71.1855C73.0664 70.5801 72.9102 69.8135 72.9102 68.8857C72.9102 67.3721 73.4961 66.2344 74.668 65.4727C75.8496 64.7012 77.4268 64.3154 79.3994 64.3154C80.415 64.3154 81.3818 64.418 82.2998 64.623C83.2275 64.8281 84.1797 65.1553 85.1562 65.6045L83.8086 68.8271C82.998 68.4756 82.2314 68.1875 81.5088 67.9629C80.7959 67.7383 80.0684 67.626 79.3262 67.626C78.6719 67.626 78.1787 67.7139 77.8467 67.8896C77.5146 68.0654 77.3486 68.334 77.3486 68.6953C77.3486 68.959 77.4316 69.1934 77.5977 69.3984C77.7734 69.6035 78.1055 69.833 78.5938 70.0869C79.0918 70.3311 79.8193 70.6484 80.7764 71.0391C81.7041 71.4199 82.5098 71.8203 83.1934 72.2402C83.877 72.6504 84.4043 73.1631 84.7754 73.7783C85.1465 74.3838 85.332 75.1699 85.332 76.1367ZM95.7178 77.7334C96.2061 77.7334 96.6797 77.6846 97.1387 77.5869C97.6074 77.4893 98.0713 77.3672 98.5303 77.2207V80.5459C98.0518 80.7607 97.4561 80.9365 96.7432 81.0732C96.04 81.2197 95.2686 81.293 94.4287 81.293C93.4521 81.293 92.5732 81.1367 91.792 80.8242C91.0205 80.502 90.4102 79.9502 89.9609 79.1689C89.5215 78.3779 89.3018 77.2793 89.3018 75.873V67.9775H87.1631V66.0879L89.624 64.5938L90.9131 61.1367H93.7695V64.623H98.3545V67.9775H93.7695V75.873C93.7695 76.498 93.9453 76.9668 94.2969 77.2793C94.6582 77.582 95.1318 77.7334 95.7178 77.7334ZM37.6953 120V98.584H42.2363V120H37.6953ZM52.4609 120.293C50.6348 120.293 49.1455 119.58 47.9932 118.154C46.8506 116.719 46.2793 114.614 46.2793 111.841C46.2793 109.038 46.8604 106.919 48.0225 105.483C49.1846 104.038 50.7031 103.315 52.5781 103.315C53.3594 103.315 54.0479 103.423 54.6436 103.638C55.2393 103.853 55.752 104.141 56.1816 104.502C56.6211 104.863 56.9922 105.269 57.2949 105.718H57.4414C57.3828 105.405 57.3096 104.946 57.2217 104.341C57.1436 103.726 57.1045 103.096 57.1045 102.451V97.207H61.5869V120H58.1592L57.2949 117.876H57.1045C56.8213 118.325 56.4648 118.735 56.0352 119.106C55.6152 119.468 55.1123 119.756 54.5264 119.971C53.9404 120.186 53.252 120.293 52.4609 120.293ZM54.0283 116.733C55.249 116.733 56.1084 116.372 56.6064 115.649C57.1143 114.917 57.3828 113.818 57.4121 112.354V111.87C57.4121 110.278 57.168 109.062 56.6797 108.223C56.1914 107.373 55.2832 106.948 53.9551 106.948C52.9688 106.948 52.1973 107.373 51.6406 108.223C51.084 109.072 50.8057 110.298 50.8057 111.899C50.8057 113.501 51.084 114.707 51.6406 115.518C52.207 116.328 53.0029 116.733 54.0283 116.733ZM73.0127 103.315C74.5264 103.315 75.8301 103.608 76.9238 104.194C78.0176 104.771 78.8623 105.61 79.458 106.714C80.0537 107.817 80.3516 109.165 80.3516 110.757V112.925H69.79C69.8389 114.185 70.2148 115.176 70.918 115.898C71.6309 116.611 72.6172 116.968 73.877 116.968C74.9219 116.968 75.8789 116.86 76.748 116.646C77.6172 116.431 78.5107 116.108 79.4287 115.679V119.136C78.6182 119.536 77.7686 119.829 76.8799 120.015C76.001 120.2 74.9316 120.293 73.6719 120.293C72.0312 120.293 70.5762 119.99 69.3066 119.385C68.0469 118.779 67.0557 117.856 66.333 116.616C65.6201 115.376 65.2637 113.813 65.2637 111.929C65.2637 110.015 65.5859 108.423 66.2305 107.153C66.8848 105.874 67.793 104.917 68.9551 104.282C70.1172 103.638 71.4697 103.315 73.0127 103.315ZM73.042 106.494C72.1729 106.494 71.4502 106.772 70.874 107.329C70.3076 107.886 69.9805 108.76 69.8926 109.951H76.1621C76.1523 109.287 76.0303 108.696 75.7959 108.179C75.5713 107.661 75.2295 107.251 74.7705 106.948C74.3213 106.646 73.7451 106.494 73.042 106.494ZM93.2861 103.315C95.0342 103.315 96.4404 103.794 97.5049 104.751C98.5693 105.698 99.1016 107.222 99.1016 109.321V120H94.6338V110.435C94.6338 109.263 94.4189 108.379 93.9893 107.783C93.5693 107.188 92.9053 106.89 91.9971 106.89C90.6299 106.89 89.6973 107.354 89.1992 108.281C88.7012 109.209 88.4521 110.547 88.4521 112.295V120H83.9844V103.623H87.3975L87.998 105.718H88.2471C88.5986 105.151 89.0332 104.692 89.5508 104.341C90.0781 103.989 90.6592 103.73 91.2939 103.564C91.9385 103.398 92.6025 103.315 93.2861 103.315ZM110.601 116.733C111.089 116.733 111.562 116.685 112.021 116.587C112.49 116.489 112.954 116.367 113.413 116.221V119.546C112.935 119.761 112.339 119.937 111.626 120.073C110.923 120.22 110.151 120.293 109.312 120.293C108.335 120.293 107.456 120.137 106.675 119.824C105.903 119.502 105.293 118.95 104.844 118.169C104.404 117.378 104.185 116.279 104.185 114.873V106.978H102.046V105.088L104.507 103.594L105.796 100.137H108.652V103.623H113.237V106.978H108.652V114.873C108.652 115.498 108.828 115.967 109.18 116.279C109.541 116.582 110.015 116.733 110.601 116.733ZM121.206 103.623V120H116.738V103.623H121.206ZM118.979 97.207C119.644 97.207 120.215 97.3633 120.693 97.6758C121.172 97.9785 121.411 98.5498 121.411 99.3896C121.411 100.22 121.172 100.796 120.693 101.118C120.215 101.431 119.644 101.587 118.979 101.587C118.306 101.587 117.729 101.431 117.251 101.118C116.782 100.796 116.548 100.22 116.548 99.3896C116.548 98.5498 116.782 97.9785 117.251 97.6758C117.729 97.3633 118.306 97.207 118.979 97.207ZM134.961 106.978H131.094V120H126.626V106.978H124.165V104.824L126.626 103.623V102.422C126.626 101.025 126.86 99.9414 127.329 99.1699C127.808 98.3887 128.477 97.8418 129.336 97.5293C130.205 97.207 131.23 97.0459 132.412 97.0459C133.281 97.0459 134.072 97.1191 134.785 97.2656C135.498 97.4023 136.079 97.5586 136.528 97.7344L135.386 101.016C135.044 100.908 134.673 100.811 134.272 100.723C133.872 100.635 133.413 100.591 132.896 100.591C132.271 100.591 131.812 100.781 131.519 101.162C131.235 101.533 131.094 102.012 131.094 102.598V103.623H134.961V106.978ZM141.992 103.623V120H137.524V103.623H141.992ZM139.766 97.207C140.43 97.207 141.001 97.3633 141.479 97.6758C141.958 97.9785 142.197 98.5498 142.197 99.3896C142.197 100.22 141.958 100.796 141.479 101.118C141.001 101.431 140.43 101.587 139.766 101.587C139.092 101.587 138.516 101.431 138.037 101.118C137.568 100.796 137.334 100.22 137.334 99.3896C137.334 98.5498 137.568 97.9785 138.037 97.6758C138.516 97.3633 139.092 97.207 139.766 97.207ZM153.33 120.293C151.709 120.293 150.327 120 149.185 119.414C148.042 118.818 147.173 117.9 146.577 116.66C145.981 115.42 145.684 113.833 145.684 111.899C145.684 109.897 146.021 108.267 146.694 107.007C147.378 105.737 148.32 104.805 149.521 104.209C150.732 103.613 152.134 103.315 153.726 103.315C154.858 103.315 155.835 103.428 156.655 103.652C157.485 103.867 158.208 104.126 158.823 104.429L157.505 107.886C156.802 107.603 156.147 107.373 155.542 107.197C154.937 107.012 154.331 106.919 153.726 106.919C152.944 106.919 152.295 107.104 151.777 107.476C151.26 107.837 150.874 108.384 150.62 109.116C150.366 109.849 150.239 110.767 150.239 111.87C150.239 112.954 150.376 113.853 150.649 114.565C150.923 115.278 151.318 115.811 151.836 116.162C152.354 116.504 152.983 116.675 153.726 116.675C154.653 116.675 155.479 116.553 156.201 116.309C156.924 116.055 157.627 115.703 158.311 115.254V119.077C157.627 119.507 156.909 119.814 156.157 120C155.415 120.195 154.473 120.293 153.33 120.293ZM168.828 103.286C171.025 103.286 172.71 103.765 173.882 104.722C175.054 105.679 175.64 107.134 175.64 109.087V120H172.52L171.655 117.773H171.538C171.069 118.359 170.591 118.838 170.103 119.209C169.614 119.58 169.053 119.854 168.418 120.029C167.783 120.205 167.012 120.293 166.104 120.293C165.137 120.293 164.268 120.107 163.496 119.736C162.734 119.365 162.134 118.799 161.694 118.037C161.255 117.266 161.035 116.289 161.035 115.107C161.035 113.369 161.646 112.09 162.866 111.27C164.087 110.439 165.918 109.98 168.359 109.893L171.201 109.805V109.087C171.201 108.228 170.977 107.598 170.527 107.197C170.078 106.797 169.453 106.597 168.652 106.597C167.861 106.597 167.085 106.709 166.323 106.934C165.562 107.158 164.8 107.441 164.038 107.783L162.559 104.766C163.428 104.307 164.399 103.945 165.474 103.682C166.558 103.418 167.676 103.286 168.828 103.286ZM171.201 112.412L169.473 112.471C168.027 112.51 167.021 112.769 166.455 113.247C165.898 113.726 165.62 114.355 165.62 115.137C165.62 115.82 165.82 116.309 166.221 116.602C166.621 116.885 167.144 117.026 167.788 117.026C168.745 117.026 169.551 116.743 170.205 116.177C170.869 115.61 171.201 114.805 171.201 113.76V112.412ZM187.153 116.733C187.642 116.733 188.115 116.685 188.574 116.587C189.043 116.489 189.507 116.367 189.966 116.221V119.546C189.487 119.761 188.892 119.937 188.179 120.073C187.476 120.22 186.704 120.293 185.864 120.293C184.888 120.293 184.009 120.137 183.228 119.824C182.456 119.502 181.846 118.95 181.396 118.169C180.957 117.378 180.737 116.279 180.737 114.873V106.978H178.599V105.088L181.06 103.594L182.349 100.137H185.205V103.623H189.79V106.978H185.205V114.873C185.205 115.498 185.381 115.967 185.732 116.279C186.094 116.582 186.567 116.733 187.153 116.733ZM197.759 103.623V120H193.291V103.623H197.759ZM195.532 97.207C196.196 97.207 196.768 97.3633 197.246 97.6758C197.725 97.9785 197.964 98.5498 197.964 99.3896C197.964 100.22 197.725 100.796 197.246 101.118C196.768 101.431 196.196 101.587 195.532 101.587C194.858 101.587 194.282 101.431 193.804 101.118C193.335 100.796 193.101 100.22 193.101 99.3896C193.101 98.5498 193.335 97.9785 193.804 97.6758C194.282 97.3633 194.858 97.207 195.532 97.207ZM217.344 111.782C217.344 113.149 217.158 114.36 216.787 115.415C216.426 116.47 215.894 117.363 215.19 118.096C214.497 118.818 213.657 119.365 212.671 119.736C211.694 120.107 210.591 120.293 209.36 120.293C208.208 120.293 207.148 120.107 206.182 119.736C205.225 119.365 204.39 118.818 203.677 118.096C202.974 117.363 202.427 116.47 202.036 115.415C201.655 114.36 201.465 113.149 201.465 111.782C201.465 109.966 201.787 108.428 202.432 107.168C203.076 105.908 203.994 104.951 205.186 104.297C206.377 103.643 207.798 103.315 209.448 103.315C210.981 103.315 212.339 103.643 213.521 104.297C214.712 104.951 215.645 105.908 216.318 107.168C217.002 108.428 217.344 109.966 217.344 111.782ZM206.021 111.782C206.021 112.856 206.138 113.76 206.372 114.492C206.606 115.225 206.973 115.776 207.471 116.147C207.969 116.519 208.618 116.704 209.419 116.704C210.21 116.704 210.85 116.519 211.338 116.147C211.836 115.776 212.197 115.225 212.422 114.492C212.656 113.76 212.773 112.856 212.773 111.782C212.773 110.698 212.656 109.8 212.422 109.087C212.197 108.364 211.836 107.822 211.338 107.461C210.84 107.1 210.19 106.919 209.39 106.919C208.208 106.919 207.349 107.324 206.812 108.135C206.284 108.945 206.021 110.161 206.021 111.782ZM230.337 103.315C232.085 103.315 233.491 103.794 234.556 104.751C235.62 105.698 236.152 107.222 236.152 109.321V120H231.685V110.435C231.685 109.263 231.47 108.379 231.04 107.783C230.62 107.188 229.956 106.89 229.048 106.89C227.681 106.89 226.748 107.354 226.25 108.281C225.752 109.209 225.503 110.547 225.503 112.295V120H221.035V103.623H224.448L225.049 105.718H225.298C225.649 105.151 226.084 104.692 226.602 104.341C227.129 103.989 227.71 103.73 228.345 103.564C228.989 103.398 229.653 103.315 230.337 103.315Z" fill="black"/>
</svg>
