<svg width="428" height="160" viewBox="0 0 428 160" fill="none" xmlns="http://www.w3.org/2000/svg">
<rect width="428" height="160" fill="white"/>
<path d="M50.3369 75.0527C50.3369 76.3223 50.0293 77.4258 49.4141 78.3633C48.7988 79.3008 47.9004 80.0234 46.7188 80.5312C45.5469 81.0391 44.1211 81.293 42.4414 81.293C41.6992 81.293 40.9717 81.2441 40.2588 81.1465C39.5557 81.0488 38.877 80.9072 38.2227 80.7217C37.5781 80.5264 36.9629 80.2871 36.377 80.0039V75.7852C37.3926 76.2344 38.4473 76.6396 39.541 77.001C40.6348 77.3623 41.7188 77.543 42.793 77.543C43.5352 77.543 44.1309 77.4453 44.5801 77.25C45.0391 77.0547 45.3711 76.7861 45.5762 76.4443C45.7812 76.1025 45.8838 75.7119 45.8838 75.2725C45.8838 74.7354 45.7031 74.2764 45.3418 73.8955C44.9805 73.5146 44.4824 73.1582 43.8477 72.8262C43.2227 72.4941 42.5146 72.1377 41.7236 71.7568C41.2256 71.5225 40.6836 71.2393 40.0977 70.9072C39.5117 70.5654 38.9551 70.1504 38.4277 69.6621C37.9004 69.1738 37.4658 68.583 37.124 67.8896C36.792 67.1865 36.626 66.3467 36.626 65.3701C36.626 64.0908 36.9189 62.9971 37.5049 62.0889C38.0908 61.1807 38.9258 60.4873 40.0098 60.0088C41.1035 59.5205 42.3926 59.2764 43.877 59.2764C44.9902 59.2764 46.0498 59.4082 47.0557 59.6719C48.0713 59.9258 49.1309 60.2969 50.2344 60.7852L48.7695 64.3154C47.7832 63.915 46.8994 63.6074 46.1182 63.3926C45.3369 63.168 44.541 63.0557 43.7305 63.0557C43.1641 63.0557 42.6807 63.1484 42.2803 63.334C41.8799 63.5098 41.5771 63.7637 41.3721 64.0957C41.167 64.418 41.0645 64.7939 41.0645 65.2236C41.0645 65.7314 41.2109 66.1611 41.5039 66.5127C41.8066 66.8545 42.2559 67.1865 42.8516 67.5088C43.457 67.8311 44.209 68.207 45.1074 68.6367C46.2012 69.1543 47.1338 69.6963 47.9053 70.2627C48.6865 70.8193 49.2871 71.4785 49.707 72.2402C50.127 72.9922 50.3369 73.9297 50.3369 75.0527ZM68.75 72.7822C68.75 74.1494 68.5645 75.3604 68.1934 76.415C67.832 77.4697 67.2998 78.3633 66.5967 79.0957C65.9033 79.8184 65.0635 80.3652 64.0771 80.7363C63.1006 81.1074 61.9971 81.293 60.7666 81.293C59.6143 81.293 58.5547 81.1074 57.5879 80.7363C56.6309 80.3652 55.7959 79.8184 55.083 79.0957C54.3799 78.3633 53.833 77.4697 53.4424 76.415C53.0615 75.3604 52.8711 74.1494 52.8711 72.7822C52.8711 70.9658 53.1934 69.4277 53.8379 68.168C54.4824 66.9082 55.4004 65.9512 56.5918 65.2969C57.7832 64.6426 59.2041 64.3154 60.8545 64.3154C62.3877 64.3154 63.7451 64.6426 64.9268 65.2969C66.1182 65.9512 67.0508 66.9082 67.7246 68.168C68.4082 69.4277 68.75 70.9658 68.75 72.7822ZM57.4268 72.7822C57.4268 73.8564 57.5439 74.7598 57.7783 75.4922C58.0127 76.2246 58.3789 76.7764 58.877 77.1475C59.375 77.5186 60.0244 77.7041 60.8252 77.7041C61.6162 77.7041 62.2559 77.5186 62.7441 77.1475C63.2422 76.7764 63.6035 76.2246 63.8281 75.4922C64.0625 74.7598 64.1797 73.8564 64.1797 72.7822C64.1797 71.6982 64.0625 70.7998 63.8281 70.0869C63.6035 69.3643 63.2422 68.8223 62.7441 68.4609C62.2461 68.0996 61.5967 67.9189 60.7959 67.9189C59.6143 67.9189 58.7549 68.3242 58.2178 69.1348C57.6904 69.9453 57.4268 71.1611 57.4268 72.7822ZM76.9092 64.623V81H72.4414V64.623H76.9092ZM74.6826 58.207C75.3467 58.207 75.918 58.3633 76.3965 58.6758C76.875 58.9785 77.1143 59.5498 77.1143 60.3896C77.1143 61.2197 76.875 61.7959 76.3965 62.1182C75.918 62.4307 75.3467 62.5869 74.6826 62.5869C74.0088 62.5869 73.4326 62.4307 72.9541 62.1182C72.4854 61.7959 72.251 61.2197 72.251 60.3896C72.251 59.5498 72.4854 58.9785 72.9541 58.6758C73.4326 58.3633 74.0088 58.207 74.6826 58.207ZM86.0791 81H81.6113V58.207H86.0791V81ZM46.7627 120L41.6064 103.198H41.4746C41.4941 103.599 41.5234 104.204 41.5625 105.015C41.6113 105.815 41.6553 106.67 41.6943 107.578C41.7334 108.486 41.7529 109.307 41.7529 110.039V120H37.6953V98.584H43.877L48.9453 114.961H49.0332L54.4092 98.584H60.5908V120H56.3574V109.863C56.3574 109.189 56.3672 108.413 56.3867 107.534C56.416 106.655 56.4502 105.82 56.4893 105.029C56.5283 104.229 56.5576 103.628 56.5771 103.228H56.4453L50.9229 120H46.7627ZM72.3535 103.286C74.5508 103.286 76.2354 103.765 77.4072 104.722C78.5791 105.679 79.165 107.134 79.165 109.087V120H76.0449L75.1807 117.773H75.0635C74.5947 118.359 74.1162 118.838 73.6279 119.209C73.1396 119.58 72.5781 119.854 71.9434 120.029C71.3086 120.205 70.5371 120.293 69.6289 120.293C68.6621 120.293 67.793 120.107 67.0215 119.736C66.2598 119.365 65.6592 118.799 65.2197 118.037C64.7803 117.266 64.5605 116.289 64.5605 115.107C64.5605 113.369 65.1709 112.09 66.3916 111.27C67.6123 110.439 69.4434 109.98 71.8848 109.893L74.7266 109.805V109.087C74.7266 108.228 74.502 107.598 74.0527 107.197C73.6035 106.797 72.9785 106.597 72.1777 106.597C71.3867 106.597 70.6104 106.709 69.8486 106.934C69.0869 107.158 68.3252 107.441 67.5635 107.783L66.084 104.766C66.9531 104.307 67.9248 103.945 68.999 103.682C70.083 103.418 71.2012 103.286 72.3535 103.286ZM74.7266 112.412L72.998 112.471C71.5527 112.51 70.5469 112.769 69.9805 113.247C69.4238 113.726 69.1455 114.355 69.1455 115.137C69.1455 115.82 69.3457 116.309 69.7461 116.602C70.1465 116.885 70.6689 117.026 71.3135 117.026C72.2705 117.026 73.0762 116.743 73.7305 116.177C74.3945 115.61 74.7266 114.805 74.7266 113.76V112.412ZM93.0811 103.315C94.8291 103.315 96.2354 103.794 97.2998 104.751C98.3643 105.698 98.8965 107.222 98.8965 109.321V120H94.4287V110.435C94.4287 109.263 94.2139 108.379 93.7842 107.783C93.3643 107.188 92.7002 106.89 91.792 106.89C90.4248 106.89 89.4922 107.354 88.9941 108.281C88.4961 109.209 88.2471 110.547 88.2471 112.295V120H83.7793V103.623H87.1924L87.793 105.718H88.042C88.3936 105.151 88.8281 104.692 89.3457 104.341C89.873 103.989 90.4541 103.73 91.0889 103.564C91.7334 103.398 92.3975 103.315 93.0811 103.315ZM110.205 103.286C112.402 103.286 114.087 103.765 115.259 104.722C116.431 105.679 117.017 107.134 117.017 109.087V120H113.896L113.032 117.773H112.915C112.446 118.359 111.968 118.838 111.479 119.209C110.991 119.58 110.43 119.854 109.795 120.029C109.16 120.205 108.389 120.293 107.48 120.293C106.514 120.293 105.645 120.107 104.873 119.736C104.111 119.365 103.511 118.799 103.071 118.037C102.632 117.266 102.412 116.289 102.412 115.107C102.412 113.369 103.022 112.09 104.243 111.27C105.464 110.439 107.295 109.98 109.736 109.893L112.578 109.805V109.087C112.578 108.228 112.354 107.598 111.904 107.197C111.455 106.797 110.83 106.597 110.029 106.597C109.238 106.597 108.462 106.709 107.7 106.934C106.938 107.158 106.177 107.441 105.415 107.783L103.936 104.766C104.805 104.307 105.776 103.945 106.851 103.682C107.935 103.418 109.053 103.286 110.205 103.286ZM112.578 112.412L110.85 112.471C109.404 112.51 108.398 112.769 107.832 113.247C107.275 113.726 106.997 114.355 106.997 115.137C106.997 115.82 107.197 116.309 107.598 116.602C107.998 116.885 108.521 117.026 109.165 117.026C110.122 117.026 110.928 116.743 111.582 116.177C112.246 115.61 112.578 114.805 112.578 113.76V112.412ZM126.421 127.207C124.136 127.207 122.388 126.807 121.177 126.006C119.976 125.215 119.375 124.102 119.375 122.666C119.375 121.68 119.683 120.854 120.298 120.19C120.913 119.526 121.816 119.053 123.008 118.77C122.549 118.574 122.148 118.257 121.807 117.817C121.465 117.368 121.294 116.895 121.294 116.396C121.294 115.771 121.475 115.254 121.836 114.844C122.197 114.424 122.72 114.014 123.403 113.613C122.544 113.242 121.86 112.646 121.353 111.826C120.854 111.006 120.605 110.039 120.605 108.926C120.605 107.734 120.864 106.724 121.382 105.894C121.909 105.054 122.671 104.414 123.667 103.975C124.673 103.535 125.894 103.315 127.329 103.315C127.632 103.315 127.983 103.335 128.384 103.374C128.784 103.413 129.15 103.457 129.482 103.506C129.824 103.555 130.054 103.594 130.171 103.623H135.884V105.894L133.32 106.553C133.555 106.914 133.73 107.3 133.848 107.71C133.965 108.12 134.023 108.555 134.023 109.014C134.023 110.771 133.408 112.144 132.178 113.13C130.957 114.106 129.258 114.595 127.08 114.595C126.562 114.565 126.074 114.526 125.615 114.478C125.391 114.653 125.22 114.839 125.103 115.034C124.985 115.229 124.927 115.435 124.927 115.649C124.927 115.864 125.015 116.045 125.19 116.191C125.376 116.328 125.649 116.436 126.011 116.514C126.382 116.582 126.841 116.616 127.388 116.616H130.171C131.968 116.616 133.335 117.002 134.272 117.773C135.22 118.545 135.693 119.678 135.693 121.172C135.693 123.086 134.893 124.57 133.291 125.625C131.699 126.68 129.409 127.207 126.421 127.207ZM126.611 124.292C127.676 124.292 128.589 124.189 129.351 123.984C130.122 123.789 130.713 123.506 131.123 123.135C131.533 122.773 131.738 122.339 131.738 121.831C131.738 121.421 131.616 121.094 131.372 120.85C131.138 120.615 130.776 120.449 130.288 120.352C129.81 120.254 129.194 120.205 128.442 120.205H126.128C125.581 120.205 125.088 120.293 124.648 120.469C124.219 120.645 123.877 120.889 123.623 121.201C123.369 121.523 123.242 121.895 123.242 122.314C123.242 122.93 123.535 123.413 124.121 123.765C124.717 124.116 125.547 124.292 126.611 124.292ZM127.329 111.87C128.169 111.87 128.784 111.611 129.175 111.094C129.565 110.576 129.761 109.873 129.761 108.984C129.761 107.998 129.556 107.261 129.146 106.772C128.745 106.274 128.14 106.025 127.329 106.025C126.509 106.025 125.894 106.274 125.483 106.772C125.073 107.261 124.868 107.998 124.868 108.984C124.868 109.873 125.068 110.576 125.469 111.094C125.879 111.611 126.499 111.87 127.329 111.87ZM145.347 103.315C146.86 103.315 148.164 103.608 149.258 104.194C150.352 104.771 151.196 105.61 151.792 106.714C152.388 107.817 152.686 109.165 152.686 110.757V112.925H142.124C142.173 114.185 142.549 115.176 143.252 115.898C143.965 116.611 144.951 116.968 146.211 116.968C147.256 116.968 148.213 116.86 149.082 116.646C149.951 116.431 150.845 116.108 151.763 115.679V119.136C150.952 119.536 150.103 119.829 149.214 120.015C148.335 120.2 147.266 120.293 146.006 120.293C144.365 120.293 142.91 119.99 141.641 119.385C140.381 118.779 139.39 117.856 138.667 116.616C137.954 115.376 137.598 113.813 137.598 111.929C137.598 110.015 137.92 108.423 138.564 107.153C139.219 105.874 140.127 104.917 141.289 104.282C142.451 103.638 143.804 103.315 145.347 103.315ZM145.376 106.494C144.507 106.494 143.784 106.772 143.208 107.329C142.642 107.886 142.314 108.76 142.227 109.951H148.496C148.486 109.287 148.364 108.696 148.13 108.179C147.905 107.661 147.563 107.251 147.104 106.948C146.655 106.646 146.079 106.494 145.376 106.494ZM175.552 103.315C177.407 103.315 178.809 103.794 179.756 104.751C180.713 105.698 181.191 107.222 181.191 109.321V120H176.709V110.435C176.709 109.263 176.509 108.379 176.108 107.783C175.708 107.188 175.088 106.89 174.248 106.89C173.066 106.89 172.227 107.314 171.729 108.164C171.23 109.004 170.981 110.21 170.981 111.782V120H166.514V110.435C166.514 109.653 166.426 108.999 166.25 108.472C166.074 107.944 165.806 107.549 165.444 107.285C165.083 107.021 164.619 106.89 164.053 106.89C163.223 106.89 162.568 107.1 162.09 107.52C161.621 107.93 161.284 108.54 161.079 109.351C160.884 110.151 160.786 111.133 160.786 112.295V120H156.318V103.623H159.731L160.332 105.718H160.581C160.913 105.151 161.328 104.692 161.826 104.341C162.334 103.989 162.891 103.73 163.496 103.564C164.102 103.398 164.717 103.315 165.342 103.315C166.543 103.315 167.559 103.511 168.389 103.901C169.229 104.292 169.873 104.897 170.322 105.718H170.718C171.206 104.878 171.895 104.268 172.783 103.887C173.682 103.506 174.604 103.315 175.552 103.315ZM192.544 103.315C194.058 103.315 195.361 103.608 196.455 104.194C197.549 104.771 198.394 105.61 198.989 106.714C199.585 107.817 199.883 109.165 199.883 110.757V112.925H189.321C189.37 114.185 189.746 115.176 190.449 115.898C191.162 116.611 192.148 116.968 193.408 116.968C194.453 116.968 195.41 116.86 196.279 116.646C197.148 116.431 198.042 116.108 198.96 115.679V119.136C198.149 119.536 197.3 119.829 196.411 120.015C195.532 120.2 194.463 120.293 193.203 120.293C191.562 120.293 190.107 119.99 188.838 119.385C187.578 118.779 186.587 117.856 185.864 116.616C185.151 115.376 184.795 113.813 184.795 111.929C184.795 110.015 185.117 108.423 185.762 107.153C186.416 105.874 187.324 104.917 188.486 104.282C189.648 103.638 191.001 103.315 192.544 103.315ZM192.573 106.494C191.704 106.494 190.981 106.772 190.405 107.329C189.839 107.886 189.512 108.76 189.424 109.951H195.693C195.684 109.287 195.562 108.696 195.327 108.179C195.103 107.661 194.761 107.251 194.302 106.948C193.853 106.646 193.276 106.494 192.573 106.494ZM212.817 103.315C214.565 103.315 215.972 103.794 217.036 104.751C218.101 105.698 218.633 107.222 218.633 109.321V120H214.165V110.435C214.165 109.263 213.95 108.379 213.521 107.783C213.101 107.188 212.437 106.89 211.528 106.89C210.161 106.89 209.229 107.354 208.73 108.281C208.232 109.209 207.983 110.547 207.983 112.295V120H203.516V103.623H206.929L207.529 105.718H207.778C208.13 105.151 208.564 104.692 209.082 104.341C209.609 103.989 210.19 103.73 210.825 103.564C211.47 103.398 212.134 103.315 212.817 103.315ZM230.132 116.733C230.62 116.733 231.094 116.685 231.553 116.587C232.021 116.489 232.485 116.367 232.944 116.221V119.546C232.466 119.761 231.87 119.937 231.157 120.073C230.454 120.22 229.683 120.293 228.843 120.293C227.866 120.293 226.987 120.137 226.206 119.824C225.435 119.502 224.824 118.95 224.375 118.169C223.936 117.378 223.716 116.279 223.716 114.873V106.978H221.577V105.088L224.038 103.594L225.327 100.137H228.184V103.623H232.769V106.978H228.184V114.873C228.184 115.498 228.359 115.967 228.711 116.279C229.072 116.582 229.546 116.733 230.132 116.733Z" fill="black"/>
</svg>
