<svg width="426" height="136" viewBox="0 0 426 136" fill="none" xmlns="http://www.w3.org/2000/svg">
<rect x="-2" width="428" height="136" fill="white"/>
<path d="M44.5361 55.584C47.2998 55.584 49.3164 56.1797 50.5859 57.3711C51.8555 58.5527 52.4902 60.1836 52.4902 62.2637C52.4902 63.2012 52.3486 64.0996 52.0654 64.959C51.7822 65.8086 51.3184 66.5654 50.6738 67.2295C50.0391 67.8936 49.1895 68.4209 48.125 68.8115C47.0605 69.1924 45.7471 69.3828 44.1846 69.3828H42.2363V77H37.6953V55.584H44.5361ZM44.3018 59.3047H42.2363V65.6621H43.7305C44.5801 65.6621 45.3174 65.5498 45.9424 65.3252C46.5674 65.1006 47.0508 64.749 47.3926 64.2705C47.7344 63.792 47.9053 63.1768 47.9053 62.4248C47.9053 61.3701 47.6123 60.5889 47.0264 60.0811C46.4404 59.5635 45.5322 59.3047 44.3018 59.3047ZM62.9346 60.3154C64.4482 60.3154 65.752 60.6084 66.8457 61.1943C67.9395 61.7705 68.7842 62.6104 69.3799 63.7139C69.9756 64.8174 70.2734 66.165 70.2734 67.7568V69.9248H59.7119C59.7607 71.1846 60.1367 72.1758 60.8398 72.8984C61.5527 73.6113 62.5391 73.9678 63.7988 73.9678C64.8438 73.9678 65.8008 73.8604 66.6699 73.6455C67.5391 73.4307 68.4326 73.1084 69.3506 72.6787V76.1357C68.54 76.5361 67.6904 76.8291 66.8018 77.0146C65.9229 77.2002 64.8535 77.293 63.5938 77.293C61.9531 77.293 60.498 76.9902 59.2285 76.3848C57.9688 75.7793 56.9775 74.8564 56.2549 73.6162C55.542 72.376 55.1855 70.8135 55.1855 68.9287C55.1855 67.0146 55.5078 65.4229 56.1523 64.1533C56.8066 62.874 57.7148 61.917 58.877 61.2822C60.0391 60.6377 61.3916 60.3154 62.9346 60.3154ZM62.9639 63.4941C62.0947 63.4941 61.3721 63.7725 60.7959 64.3291C60.2295 64.8857 59.9023 65.7598 59.8145 66.9512H66.084C66.0742 66.2871 65.9521 65.6963 65.7178 65.1787C65.4932 64.6611 65.1514 64.251 64.6924 63.9482C64.2432 63.6455 63.667 63.4941 62.9639 63.4941ZM85.332 72.1367C85.332 73.25 85.0684 74.1924 84.541 74.9639C84.0234 75.7256 83.2471 76.3066 82.2119 76.707C81.1768 77.0977 79.8877 77.293 78.3447 77.293C77.2021 77.293 76.2207 77.2197 75.4004 77.0732C74.5898 76.9268 73.7695 76.6826 72.9395 76.3408V72.6494C73.8281 73.0498 74.7803 73.3818 75.7959 73.6455C76.8213 73.8994 77.7197 74.0264 78.4912 74.0264C79.3604 74.0264 79.9805 73.8994 80.3516 73.6455C80.7324 73.3818 80.9229 73.04 80.9229 72.6201C80.9229 72.3467 80.8447 72.1025 80.6885 71.8877C80.542 71.6631 80.2197 71.4141 79.7217 71.1406C79.2236 70.8574 78.4424 70.4912 77.3779 70.042C76.3525 69.6123 75.5078 69.1777 74.8438 68.7383C74.1895 68.2988 73.7012 67.7812 73.3789 67.1855C73.0664 66.5801 72.9102 65.8135 72.9102 64.8857C72.9102 63.3721 73.4961 62.2344 74.668 61.4727C75.8496 60.7012 77.4268 60.3154 79.3994 60.3154C80.415 60.3154 81.3818 60.418 82.2998 60.623C83.2275 60.8281 84.1797 61.1553 85.1562 61.6045L83.8086 64.8271C82.998 64.4756 82.2314 64.1875 81.5088 63.9629C80.7959 63.7383 80.0684 63.626 79.3262 63.626C78.6719 63.626 78.1787 63.7139 77.8467 63.8896C77.5146 64.0654 77.3486 64.334 77.3486 64.6953C77.3486 64.959 77.4316 65.1934 77.5977 65.3984C77.7734 65.6035 78.1055 65.833 78.5938 66.0869C79.0918 66.3311 79.8193 66.6484 80.7764 67.0391C81.7041 67.4199 82.5098 67.8203 83.1934 68.2402C83.877 68.6504 84.4043 69.1631 84.7754 69.7783C85.1465 70.3838 85.332 71.1699 85.332 72.1367ZM95.7178 73.7334C96.2061 73.7334 96.6797 73.6846 97.1387 73.5869C97.6074 73.4893 98.0713 73.3672 98.5303 73.2207V76.5459C98.0518 76.7607 97.4561 76.9365 96.7432 77.0732C96.04 77.2197 95.2686 77.293 94.4287 77.293C93.4521 77.293 92.5732 77.1367 91.792 76.8242C91.0205 76.502 90.4102 75.9502 89.9609 75.1689C89.5215 74.3779 89.3018 73.2793 89.3018 71.873V63.9775H87.1631V62.0879L89.624 60.5938L90.9131 57.1367H93.7695V60.623H98.3545V63.9775H93.7695V71.873C93.7695 72.498 93.9453 72.9668 94.2969 73.2793C94.6582 73.582 95.1318 73.7334 95.7178 73.7334ZM37.6953 116V94.584H42.2363V116H37.6953ZM52.4609 116.293C50.6348 116.293 49.1455 115.58 47.9932 114.154C46.8506 112.719 46.2793 110.614 46.2793 107.841C46.2793 105.038 46.8604 102.919 48.0225 101.483C49.1846 100.038 50.7031 99.3154 52.5781 99.3154C53.3594 99.3154 54.0479 99.4229 54.6436 99.6377C55.2393 99.8525 55.752 100.141 56.1816 100.502C56.6211 100.863 56.9922 101.269 57.2949 101.718H57.4414C57.3828 101.405 57.3096 100.946 57.2217 100.341C57.1436 99.7256 57.1045 99.0957 57.1045 98.4512V93.207H61.5869V116H58.1592L57.2949 113.876H57.1045C56.8213 114.325 56.4648 114.735 56.0352 115.106C55.6152 115.468 55.1123 115.756 54.5264 115.971C53.9404 116.186 53.252 116.293 52.4609 116.293ZM54.0283 112.733C55.249 112.733 56.1084 112.372 56.6064 111.649C57.1143 110.917 57.3828 109.818 57.4121 108.354V107.87C57.4121 106.278 57.168 105.062 56.6797 104.223C56.1914 103.373 55.2832 102.948 53.9551 102.948C52.9688 102.948 52.1973 103.373 51.6406 104.223C51.084 105.072 50.8057 106.298 50.8057 107.899C50.8057 109.501 51.084 110.707 51.6406 111.518C52.207 112.328 53.0029 112.733 54.0283 112.733ZM73.0127 99.3154C74.5264 99.3154 75.8301 99.6084 76.9238 100.194C78.0176 100.771 78.8623 101.61 79.458 102.714C80.0537 103.817 80.3516 105.165 80.3516 106.757V108.925H69.79C69.8389 110.185 70.2148 111.176 70.918 111.898C71.6309 112.611 72.6172 112.968 73.877 112.968C74.9219 112.968 75.8789 112.86 76.748 112.646C77.6172 112.431 78.5107 112.108 79.4287 111.679V115.136C78.6182 115.536 77.7686 115.829 76.8799 116.015C76.001 116.2 74.9316 116.293 73.6719 116.293C72.0312 116.293 70.5762 115.99 69.3066 115.385C68.0469 114.779 67.0557 113.856 66.333 112.616C65.6201 111.376 65.2637 109.813 65.2637 107.929C65.2637 106.015 65.5859 104.423 66.2305 103.153C66.8848 101.874 67.793 100.917 68.9551 100.282C70.1172 99.6377 71.4697 99.3154 73.0127 99.3154ZM73.042 102.494C72.1729 102.494 71.4502 102.772 70.874 103.329C70.3076 103.886 69.9805 104.76 69.8926 105.951H76.1621C76.1523 105.287 76.0303 104.696 75.7959 104.179C75.5713 103.661 75.2295 103.251 74.7705 102.948C74.3213 102.646 73.7451 102.494 73.042 102.494ZM93.2861 99.3154C95.0342 99.3154 96.4404 99.7939 97.5049 100.751C98.5693 101.698 99.1016 103.222 99.1016 105.321V116H94.6338V106.435C94.6338 105.263 94.4189 104.379 93.9893 103.783C93.5693 103.188 92.9053 102.89 91.9971 102.89C90.6299 102.89 89.6973 103.354 89.1992 104.281C88.7012 105.209 88.4521 106.547 88.4521 108.295V116H83.9844V99.623H87.3975L87.998 101.718H88.2471C88.5986 101.151 89.0332 100.692 89.5508 100.341C90.0781 99.9893 90.6592 99.7305 91.2939 99.5645C91.9385 99.3984 92.6025 99.3154 93.2861 99.3154ZM110.601 112.733C111.089 112.733 111.562 112.685 112.021 112.587C112.49 112.489 112.954 112.367 113.413 112.221V115.546C112.935 115.761 112.339 115.937 111.626 116.073C110.923 116.22 110.151 116.293 109.312 116.293C108.335 116.293 107.456 116.137 106.675 115.824C105.903 115.502 105.293 114.95 104.844 114.169C104.404 113.378 104.185 112.279 104.185 110.873V102.978H102.046V101.088L104.507 99.5938L105.796 96.1367H108.652V99.623H113.237V102.978H108.652V110.873C108.652 111.498 108.828 111.967 109.18 112.279C109.541 112.582 110.015 112.733 110.601 112.733ZM121.206 99.623V116H116.738V99.623H121.206ZM118.979 93.207C119.644 93.207 120.215 93.3633 120.693 93.6758C121.172 93.9785 121.411 94.5498 121.411 95.3896C121.411 96.2197 121.172 96.7959 120.693 97.1182C120.215 97.4307 119.644 97.5869 118.979 97.5869C118.306 97.5869 117.729 97.4307 117.251 97.1182C116.782 96.7959 116.548 96.2197 116.548 95.3896C116.548 94.5498 116.782 93.9785 117.251 93.6758C117.729 93.3633 118.306 93.207 118.979 93.207ZM134.961 102.978H131.094V116H126.626V102.978H124.165V100.824L126.626 99.623V98.4219C126.626 97.0254 126.86 95.9414 127.329 95.1699C127.808 94.3887 128.477 93.8418 129.336 93.5293C130.205 93.207 131.23 93.0459 132.412 93.0459C133.281 93.0459 134.072 93.1191 134.785 93.2656C135.498 93.4023 136.079 93.5586 136.528 93.7344L135.386 97.0156C135.044 96.9082 134.673 96.8105 134.272 96.7227C133.872 96.6348 133.413 96.5908 132.896 96.5908C132.271 96.5908 131.812 96.7812 131.519 97.1621C131.235 97.5332 131.094 98.0117 131.094 98.5977V99.623H134.961V102.978ZM141.992 99.623V116H137.524V99.623H141.992ZM139.766 93.207C140.43 93.207 141.001 93.3633 141.479 93.6758C141.958 93.9785 142.197 94.5498 142.197 95.3896C142.197 96.2197 141.958 96.7959 141.479 97.1182C141.001 97.4307 140.43 97.5869 139.766 97.5869C139.092 97.5869 138.516 97.4307 138.037 97.1182C137.568 96.7959 137.334 96.2197 137.334 95.3896C137.334 94.5498 137.568 93.9785 138.037 93.6758C138.516 93.3633 139.092 93.207 139.766 93.207ZM153.33 116.293C151.709 116.293 150.327 116 149.185 115.414C148.042 114.818 147.173 113.9 146.577 112.66C145.981 111.42 145.684 109.833 145.684 107.899C145.684 105.897 146.021 104.267 146.694 103.007C147.378 101.737 148.32 100.805 149.521 100.209C150.732 99.6133 152.134 99.3154 153.726 99.3154C154.858 99.3154 155.835 99.4277 156.655 99.6523C157.485 99.8672 158.208 100.126 158.823 100.429L157.505 103.886C156.802 103.603 156.147 103.373 155.542 103.197C154.937 103.012 154.331 102.919 153.726 102.919C152.944 102.919 152.295 103.104 151.777 103.476C151.26 103.837 150.874 104.384 150.62 105.116C150.366 105.849 150.239 106.767 150.239 107.87C150.239 108.954 150.376 109.853 150.649 110.565C150.923 111.278 151.318 111.811 151.836 112.162C152.354 112.504 152.983 112.675 153.726 112.675C154.653 112.675 155.479 112.553 156.201 112.309C156.924 112.055 157.627 111.703 158.311 111.254V115.077C157.627 115.507 156.909 115.814 156.157 116C155.415 116.195 154.473 116.293 153.33 116.293ZM168.828 99.2861C171.025 99.2861 172.71 99.7646 173.882 100.722C175.054 101.679 175.64 103.134 175.64 105.087V116H172.52L171.655 113.773H171.538C171.069 114.359 170.591 114.838 170.103 115.209C169.614 115.58 169.053 115.854 168.418 116.029C167.783 116.205 167.012 116.293 166.104 116.293C165.137 116.293 164.268 116.107 163.496 115.736C162.734 115.365 162.134 114.799 161.694 114.037C161.255 113.266 161.035 112.289 161.035 111.107C161.035 109.369 161.646 108.09 162.866 107.27C164.087 106.439 165.918 105.98 168.359 105.893L171.201 105.805V105.087C171.201 104.228 170.977 103.598 170.527 103.197C170.078 102.797 169.453 102.597 168.652 102.597C167.861 102.597 167.085 102.709 166.323 102.934C165.562 103.158 164.8 103.441 164.038 103.783L162.559 100.766C163.428 100.307 164.399 99.9453 165.474 99.6816C166.558 99.418 167.676 99.2861 168.828 99.2861ZM171.201 108.412L169.473 108.471C168.027 108.51 167.021 108.769 166.455 109.247C165.898 109.726 165.62 110.355 165.62 111.137C165.62 111.82 165.82 112.309 166.221 112.602C166.621 112.885 167.144 113.026 167.788 113.026C168.745 113.026 169.551 112.743 170.205 112.177C170.869 111.61 171.201 110.805 171.201 109.76V108.412ZM187.153 112.733C187.642 112.733 188.115 112.685 188.574 112.587C189.043 112.489 189.507 112.367 189.966 112.221V115.546C189.487 115.761 188.892 115.937 188.179 116.073C187.476 116.22 186.704 116.293 185.864 116.293C184.888 116.293 184.009 116.137 183.228 115.824C182.456 115.502 181.846 114.95 181.396 114.169C180.957 113.378 180.737 112.279 180.737 110.873V102.978H178.599V101.088L181.06 99.5938L182.349 96.1367H185.205V99.623H189.79V102.978H185.205V110.873C185.205 111.498 185.381 111.967 185.732 112.279C186.094 112.582 186.567 112.733 187.153 112.733ZM197.759 99.623V116H193.291V99.623H197.759ZM195.532 93.207C196.196 93.207 196.768 93.3633 197.246 93.6758C197.725 93.9785 197.964 94.5498 197.964 95.3896C197.964 96.2197 197.725 96.7959 197.246 97.1182C196.768 97.4307 196.196 97.5869 195.532 97.5869C194.858 97.5869 194.282 97.4307 193.804 97.1182C193.335 96.7959 193.101 96.2197 193.101 95.3896C193.101 94.5498 193.335 93.9785 193.804 93.6758C194.282 93.3633 194.858 93.207 195.532 93.207ZM217.344 107.782C217.344 109.149 217.158 110.36 216.787 111.415C216.426 112.47 215.894 113.363 215.19 114.096C214.497 114.818 213.657 115.365 212.671 115.736C211.694 116.107 210.591 116.293 209.36 116.293C208.208 116.293 207.148 116.107 206.182 115.736C205.225 115.365 204.39 114.818 203.677 114.096C202.974 113.363 202.427 112.47 202.036 111.415C201.655 110.36 201.465 109.149 201.465 107.782C201.465 105.966 201.787 104.428 202.432 103.168C203.076 101.908 203.994 100.951 205.186 100.297C206.377 99.6426 207.798 99.3154 209.448 99.3154C210.981 99.3154 212.339 99.6426 213.521 100.297C214.712 100.951 215.645 101.908 216.318 103.168C217.002 104.428 217.344 105.966 217.344 107.782ZM206.021 107.782C206.021 108.856 206.138 109.76 206.372 110.492C206.606 111.225 206.973 111.776 207.471 112.147C207.969 112.519 208.618 112.704 209.419 112.704C210.21 112.704 210.85 112.519 211.338 112.147C211.836 111.776 212.197 111.225 212.422 110.492C212.656 109.76 212.773 108.856 212.773 107.782C212.773 106.698 212.656 105.8 212.422 105.087C212.197 104.364 211.836 103.822 211.338 103.461C210.84 103.1 210.19 102.919 209.39 102.919C208.208 102.919 207.349 103.324 206.812 104.135C206.284 104.945 206.021 106.161 206.021 107.782ZM230.337 99.3154C232.085 99.3154 233.491 99.7939 234.556 100.751C235.62 101.698 236.152 103.222 236.152 105.321V116H231.685V106.435C231.685 105.263 231.47 104.379 231.04 103.783C230.62 103.188 229.956 102.89 229.048 102.89C227.681 102.89 226.748 103.354 226.25 104.281C225.752 105.209 225.503 106.547 225.503 108.295V116H221.035V99.623H224.448L225.049 101.718H225.298C225.649 101.151 226.084 100.692 226.602 100.341C227.129 99.9893 227.71 99.7305 228.345 99.5645C228.989 99.3984 229.653 99.3154 230.337 99.3154Z" fill="black"/>
</svg>
