<svg width="428" height="307" viewBox="0 0 428 307" fill="none" xmlns="http://www.w3.org/2000/svg">
<rect width="428" height="307" fill="white"/>
<path d="M40.5762 141H37.5391L37.5586 139.057H40.5762C41.4551 139.057 42.1908 138.865 42.7832 138.48C43.3822 138.096 43.8314 137.546 44.1309 136.83C44.4368 136.114 44.5898 135.261 44.5898 134.271V133.5C44.5898 132.732 44.502 132.051 44.3262 131.459C44.1569 130.867 43.903 130.368 43.5645 129.965C43.2324 129.561 42.8223 129.255 42.334 129.047C41.8522 128.839 41.2956 128.734 40.6641 128.734H37.4805V126.781H40.6641C41.6081 126.781 42.4707 126.941 43.252 127.26C44.0332 127.572 44.707 128.025 45.2734 128.617C45.8464 129.21 46.2858 129.919 46.5918 130.746C46.8978 131.573 47.0508 132.497 47.0508 133.52V134.271C47.0508 135.294 46.8978 136.218 46.5918 137.045C46.2858 137.872 45.8464 138.581 45.2734 139.174C44.7005 139.76 44.0169 140.212 43.2227 140.531C42.4349 140.844 41.5527 141 40.5762 141ZM38.8965 126.781V141H36.4453V126.781H38.8965ZM51.7969 130.434V141H49.4336V130.434H51.7969ZM49.2773 127.66C49.2773 127.302 49.3945 127.006 49.6289 126.771C49.8698 126.531 50.2018 126.41 50.625 126.41C51.0417 126.41 51.3704 126.531 51.6113 126.771C51.8522 127.006 51.9727 127.302 51.9727 127.66C51.9727 128.012 51.8522 128.305 51.6113 128.539C51.3704 128.773 51.0417 128.891 50.625 128.891C50.2018 128.891 49.8698 128.773 49.6289 128.539C49.3945 128.305 49.2773 128.012 49.2773 127.66ZM60.3027 138.139C60.3027 137.904 60.2441 137.693 60.127 137.504C60.0098 137.309 59.7852 137.133 59.4531 136.977C59.1276 136.82 58.6458 136.677 58.0078 136.547C57.4479 136.423 56.9336 136.277 56.4648 136.107C56.0026 135.932 55.6055 135.72 55.2734 135.473C54.9414 135.225 54.6842 134.932 54.502 134.594C54.3197 134.255 54.2285 133.865 54.2285 133.422C54.2285 132.992 54.3229 132.585 54.5117 132.201C54.7005 131.817 54.9707 131.479 55.3223 131.186C55.6738 130.893 56.1003 130.661 56.6016 130.492C57.1094 130.323 57.6758 130.238 58.3008 130.238C59.1862 130.238 59.9447 130.388 60.5762 130.688C61.2142 130.98 61.7025 131.381 62.041 131.889C62.3796 132.39 62.5488 132.956 62.5488 133.588H60.1953C60.1953 133.308 60.1237 133.048 59.9805 132.807C59.8438 132.559 59.6354 132.361 59.3555 132.211C59.0755 132.055 58.724 131.977 58.3008 131.977C57.8971 131.977 57.5618 132.042 57.2949 132.172C57.0345 132.296 56.8392 132.458 56.709 132.66C56.5853 132.862 56.5234 133.083 56.5234 133.324C56.5234 133.5 56.556 133.66 56.6211 133.803C56.6927 133.939 56.8099 134.066 56.9727 134.184C57.1354 134.294 57.3568 134.398 57.6367 134.496C57.9232 134.594 58.2812 134.688 58.7109 134.779C59.5182 134.949 60.2116 135.167 60.791 135.434C61.377 135.694 61.8262 136.033 62.1387 136.449C62.4512 136.859 62.6074 137.38 62.6074 138.012C62.6074 138.48 62.5065 138.91 62.3047 139.301C62.1094 139.685 61.8229 140.02 61.4453 140.307C61.0677 140.587 60.6152 140.805 60.0879 140.961C59.5671 141.117 58.9811 141.195 58.3301 141.195C57.373 141.195 56.5625 141.026 55.8984 140.688C55.2344 140.342 54.7298 139.903 54.3848 139.369C54.0462 138.829 53.877 138.269 53.877 137.689H56.1523C56.1784 138.126 56.2988 138.474 56.5137 138.734C56.735 138.988 57.0085 139.174 57.334 139.291C57.666 139.402 58.0078 139.457 58.3594 139.457C58.7826 139.457 59.1374 139.402 59.4238 139.291C59.7103 139.174 59.9284 139.018 60.0781 138.822C60.2279 138.62 60.3027 138.393 60.3027 138.139ZM67.041 126V141H64.6777V126H67.041ZM73.6035 130.434L69.0039 135.531L66.4844 138.109L65.8691 136.117L67.7734 133.764L70.7617 130.434H73.6035ZM71.2695 141L67.8418 136.039L69.3262 134.389L73.9941 141H71.2695ZM77.6172 130.434V141H75.2539V130.434H77.6172ZM75.0977 127.66C75.0977 127.302 75.2148 127.006 75.4492 126.771C75.6901 126.531 76.0221 126.41 76.4453 126.41C76.862 126.41 77.1908 126.531 77.4316 126.771C77.6725 127.006 77.793 127.302 77.793 127.66C77.793 128.012 77.6725 128.305 77.4316 128.539C77.1908 128.773 76.862 128.891 76.4453 128.891C76.0221 128.891 75.6901 128.773 75.4492 128.539C75.2148 128.305 75.0977 128.012 75.0977 127.66ZM82.5293 132.689V141H80.1758V130.434H82.3926L82.5293 132.689ZM82.1094 135.326L81.3477 135.316C81.3542 134.568 81.4583 133.881 81.6602 133.256C81.8685 132.631 82.1549 132.094 82.5195 131.645C82.8906 131.195 83.3333 130.85 83.8477 130.609C84.362 130.362 84.9349 130.238 85.5664 130.238C86.0742 130.238 86.5332 130.31 86.9434 130.453C87.36 130.59 87.7148 130.814 88.0078 131.127C88.3073 131.439 88.5352 131.846 88.6914 132.348C88.8477 132.842 88.9258 133.451 88.9258 134.174V141H86.5625V134.164C86.5625 133.656 86.4876 133.256 86.3379 132.963C86.1947 132.663 85.9831 132.452 85.7031 132.328C85.4297 132.198 85.0879 132.133 84.6777 132.133C84.2741 132.133 83.9128 132.217 83.5938 132.387C83.2747 132.556 83.0046 132.787 82.7832 133.08C82.5684 133.373 82.4023 133.712 82.2852 134.096C82.168 134.48 82.1094 134.89 82.1094 135.326ZM98.0957 130.434H100.234V140.707C100.234 141.658 100.033 142.465 99.6289 143.129C99.2253 143.793 98.6621 144.298 97.9395 144.643C97.2168 144.994 96.3802 145.17 95.4297 145.17C95.026 145.17 94.5768 145.111 94.082 144.994C93.5938 144.877 93.1185 144.688 92.6562 144.428C92.2005 144.174 91.8197 143.839 91.5137 143.422L92.6172 142.035C92.9948 142.484 93.4115 142.813 93.8672 143.021C94.3229 143.23 94.8014 143.334 95.3027 143.334C95.8431 143.334 96.3021 143.233 96.6797 143.031C97.0638 142.836 97.36 142.546 97.5684 142.162C97.7767 141.778 97.8809 141.309 97.8809 140.756V132.826L98.0957 130.434ZM90.918 135.834V135.629C90.918 134.828 91.0156 134.099 91.2109 133.441C91.4062 132.777 91.6862 132.208 92.0508 131.732C92.4154 131.251 92.8581 130.883 93.3789 130.629C93.8997 130.368 94.4889 130.238 95.1465 130.238C95.8301 130.238 96.4128 130.362 96.8945 130.609C97.3828 130.857 97.7897 131.212 98.1152 131.674C98.4408 132.13 98.6947 132.676 98.877 133.314C99.0658 133.946 99.2057 134.649 99.2969 135.424V136.078C99.2122 136.833 99.069 137.523 98.8672 138.148C98.6654 138.773 98.3984 139.314 98.0664 139.77C97.7344 140.225 97.3242 140.577 96.8359 140.824C96.3542 141.072 95.7845 141.195 95.127 141.195C94.4824 141.195 93.8997 141.062 93.3789 140.795C92.8646 140.528 92.4219 140.154 92.0508 139.672C91.6862 139.19 91.4062 138.624 91.2109 137.973C91.0156 137.315 90.918 136.602 90.918 135.834ZM93.2715 135.629V135.834C93.2715 136.316 93.3171 136.765 93.4082 137.182C93.5059 137.598 93.6523 137.966 93.8477 138.285C94.0495 138.598 94.3034 138.845 94.6094 139.027C94.9219 139.203 95.2897 139.291 95.7129 139.291C96.2663 139.291 96.7188 139.174 97.0703 138.939C97.4284 138.705 97.7018 138.389 97.8906 137.992C98.0859 137.589 98.2227 137.139 98.3008 136.645V134.877C98.2617 134.493 98.1803 134.135 98.0566 133.803C97.9395 133.471 97.7799 133.181 97.5781 132.934C97.3763 132.68 97.1224 132.484 96.8164 132.348C96.5104 132.204 96.1491 132.133 95.7324 132.133C95.3092 132.133 94.9414 132.224 94.6289 132.406C94.3164 132.589 94.0592 132.839 93.8574 133.158C93.6621 133.477 93.5156 133.848 93.418 134.271C93.3203 134.695 93.2715 135.147 93.2715 135.629Z" fill="black"/>
<path d="M35 142.953H101.455V143.93H35V142.953Z" fill="black"/>
<a href="https://www.agrivi.com/blog/five-essential-reasons-why-you-should-include-disking-in-soil-tillage/">
<rect fill="black" fill-opacity="0" y="-0.21875" width="66.4551" height="23.4375"/>
</a>
<path d="M44.4238 16.7812H46.8652V26.2832C46.8652 27.3639 46.6309 28.2689 46.1621 28.998C45.6934 29.7272 45.0553 30.2773 44.248 30.6484C43.4473 31.013 42.5521 31.1953 41.5625 31.1953C40.5404 31.1953 39.6289 31.013 38.8281 30.6484C38.0273 30.2773 37.3958 29.7272 36.9336 28.998C36.4779 28.2689 36.25 27.3639 36.25 26.2832V16.7812H38.6914V26.2832C38.6914 26.9668 38.8086 27.5299 39.043 27.9727C39.2773 28.4089 39.6094 28.7311 40.0391 28.9395C40.4688 29.1478 40.9766 29.252 41.5625 29.252C42.1484 29.252 42.653 29.1478 43.0762 28.9395C43.5059 28.7311 43.8379 28.4089 44.0723 27.9727C44.3066 27.5299 44.4238 26.9668 44.4238 26.2832V16.7812ZM51.6309 22.6895V31H49.2773V20.4336H51.4941L51.6309 22.6895ZM51.2109 25.3262L50.4492 25.3164C50.4557 24.5677 50.5599 23.8809 50.7617 23.2559C50.9701 22.6309 51.2565 22.0938 51.6211 21.6445C51.9922 21.1953 52.4349 20.8503 52.9492 20.6094C53.4635 20.362 54.0365 20.2383 54.668 20.2383C55.1758 20.2383 55.6348 20.3099 56.0449 20.4531C56.4616 20.5898 56.8164 20.8145 57.1094 21.127C57.4089 21.4395 57.6367 21.8464 57.793 22.3477C57.9492 22.8424 58.0273 23.4512 58.0273 24.1738V31H55.6641V24.1641C55.6641 23.6562 55.5892 23.2559 55.4395 22.9629C55.2962 22.6634 55.0846 22.4518 54.8047 22.3281C54.5312 22.1979 54.1895 22.1328 53.7793 22.1328C53.3757 22.1328 53.0143 22.2174 52.6953 22.3867C52.3763 22.556 52.1061 22.7871 51.8848 23.0801C51.6699 23.373 51.5039 23.7116 51.3867 24.0957C51.2695 24.4798 51.2109 24.89 51.2109 25.3262ZM66.875 28.8125V16H69.2383V31H67.0996L66.875 28.8125ZM60 25.834V25.6289C60 24.8281 60.0944 24.099 60.2832 23.4414C60.472 22.7773 60.7454 22.2077 61.1035 21.7324C61.4616 21.2507 61.8978 20.8828 62.4121 20.6289C62.9264 20.3685 63.5059 20.2383 64.1504 20.2383C64.7884 20.2383 65.3483 20.362 65.8301 20.6094C66.3118 20.8568 66.722 21.2116 67.0605 21.6738C67.3991 22.1296 67.6693 22.6764 67.8711 23.3145C68.0729 23.946 68.2161 24.6491 68.3008 25.4238V26.0781C68.2161 26.8333 68.0729 27.5234 67.8711 28.1484C67.6693 28.7734 67.3991 29.3138 67.0605 29.7695C66.722 30.2253 66.3086 30.5768 65.8203 30.8242C65.3385 31.0716 64.7754 31.1953 64.1309 31.1953C63.4928 31.1953 62.9167 31.0618 62.4023 30.7949C61.8945 30.528 61.4616 30.1536 61.1035 29.6719C60.7454 29.1901 60.472 28.6237 60.2832 27.9727C60.0944 27.3151 60 26.6022 60 25.834ZM62.3535 25.6289V25.834C62.3535 26.3158 62.3958 26.765 62.4805 27.1816C62.5716 27.5983 62.7116 27.9661 62.9004 28.2852C63.0892 28.5977 63.3333 28.8451 63.6328 29.0273C63.9388 29.2031 64.3034 29.291 64.7266 29.291C65.2604 29.291 65.6999 29.1738 66.0449 28.9395C66.39 28.7051 66.6602 28.3893 66.8555 27.9922C67.0573 27.5885 67.194 27.1393 67.2656 26.6445V24.877C67.2266 24.4928 67.1452 24.1348 67.0215 23.8027C66.9043 23.4707 66.7448 23.181 66.543 22.9336C66.3411 22.6797 66.0905 22.4844 65.791 22.3477C65.498 22.2044 65.1497 22.1328 64.7461 22.1328C64.3164 22.1328 63.9518 22.224 63.6523 22.4062C63.3529 22.5885 63.1055 22.8392 62.9102 23.1582C62.7214 23.4772 62.5814 23.8483 62.4902 24.2715C62.3991 24.6947 62.3535 25.1471 62.3535 25.6289ZM76.3574 31.1953C75.5762 31.1953 74.8698 31.0684 74.2383 30.8145C73.6133 30.554 73.0794 30.1927 72.6367 29.7305C72.2005 29.2682 71.8652 28.7246 71.6309 28.0996C71.3965 27.4746 71.2793 26.8008 71.2793 26.0781V25.6875C71.2793 24.8607 71.3997 24.112 71.6406 23.4414C71.8815 22.7708 72.2168 22.1979 72.6465 21.7227C73.0762 21.2409 73.584 20.873 74.1699 20.6191C74.7559 20.3652 75.3906 20.2383 76.0742 20.2383C76.8294 20.2383 77.4902 20.3652 78.0566 20.6191C78.623 20.873 79.0918 21.2311 79.4629 21.6934C79.8405 22.1491 80.1204 22.6927 80.3027 23.3242C80.4915 23.9557 80.5859 24.6523 80.5859 25.4141V26.4199H72.4219V24.7305H78.2617V24.5449C78.2487 24.1217 78.1641 23.7246 78.0078 23.3535C77.8581 22.9824 77.627 22.6829 77.3145 22.4551C77.002 22.2272 76.5853 22.1133 76.0645 22.1133C75.6738 22.1133 75.3255 22.1979 75.0195 22.3672C74.7201 22.5299 74.4694 22.7676 74.2676 23.0801C74.0658 23.3926 73.9095 23.7702 73.7988 24.2129C73.6947 24.6491 73.6426 25.1406 73.6426 25.6875V26.0781C73.6426 26.5404 73.7044 26.9701 73.8281 27.3672C73.9583 27.7578 74.1471 28.0996 74.3945 28.3926C74.6419 28.6855 74.9414 28.9167 75.293 29.0859C75.6445 29.2487 76.0449 29.3301 76.4941 29.3301C77.0605 29.3301 77.5651 29.2161 78.0078 28.9883C78.4505 28.7604 78.8346 28.4382 79.1602 28.0215L80.4004 29.2227C80.1725 29.5547 79.8763 29.8737 79.5117 30.1797C79.1471 30.4792 78.7012 30.7233 78.1738 30.9121C77.653 31.1009 77.0475 31.1953 76.3574 31.1953ZM84.7852 22.4453V31H82.4316V20.4336H84.6777L84.7852 22.4453ZM88.0176 20.3652L87.998 22.5527C87.8548 22.5267 87.6986 22.5072 87.5293 22.4941C87.3665 22.4811 87.2038 22.4746 87.041 22.4746C86.6374 22.4746 86.2826 22.5332 85.9766 22.6504C85.6706 22.7611 85.4134 22.9238 85.2051 23.1387C85.0033 23.347 84.847 23.6009 84.7363 23.9004C84.6257 24.1999 84.5605 24.5352 84.541 24.9062L84.0039 24.9453C84.0039 24.2812 84.069 23.666 84.1992 23.0996C84.3294 22.5332 84.5247 22.0352 84.7852 21.6055C85.0521 21.1758 85.3841 20.8405 85.7812 20.5996C86.1849 20.3587 86.6504 20.2383 87.1777 20.2383C87.321 20.2383 87.474 20.2513 87.6367 20.2773C87.806 20.3034 87.9329 20.3327 88.0176 20.3652ZM91.8457 22.582V31H89.4922V20.4336H91.709L91.8457 22.582ZM91.4648 25.3262L90.6641 25.3164C90.6641 24.5872 90.7552 23.9134 90.9375 23.2949C91.1198 22.6764 91.3867 22.1393 91.7383 21.6836C92.0898 21.2214 92.526 20.8665 93.0469 20.6191C93.5742 20.3652 94.1829 20.2383 94.873 20.2383C95.3548 20.2383 95.7943 20.3099 96.1914 20.4531C96.5951 20.5898 96.9434 20.8079 97.2363 21.1074C97.5358 21.4069 97.7637 21.791 97.9199 22.2598C98.0827 22.7285 98.1641 23.2949 98.1641 23.959V31H95.8105V24.1641C95.8105 23.6497 95.7324 23.2461 95.5762 22.9531C95.4264 22.6602 95.2083 22.4518 94.9219 22.3281C94.6419 22.1979 94.3066 22.1328 93.916 22.1328C93.4733 22.1328 93.0957 22.2174 92.7832 22.3867C92.4772 22.556 92.2266 22.7871 92.0312 23.0801C91.8359 23.373 91.6927 23.7116 91.6016 24.0957C91.5104 24.4798 91.4648 24.89 91.4648 25.3262ZM98.0176 24.7012L96.9141 24.9453C96.9141 24.3073 97.002 23.7051 97.1777 23.1387C97.36 22.5658 97.6237 22.0645 97.9688 21.6348C98.3203 21.1986 98.7533 20.8568 99.2676 20.6094C99.7819 20.362 100.371 20.2383 101.035 20.2383C101.576 20.2383 102.057 20.3132 102.48 20.4629C102.91 20.6061 103.275 20.834 103.574 21.1465C103.874 21.459 104.102 21.8659 104.258 22.3672C104.414 22.862 104.492 23.4609 104.492 24.1641V31H102.129V24.1543C102.129 23.6204 102.051 23.207 101.895 22.9141C101.745 22.6211 101.53 22.4193 101.25 22.3086C100.97 22.1914 100.635 22.1328 100.244 22.1328C99.8796 22.1328 99.5573 22.2012 99.2773 22.3379C99.0039 22.4681 98.7728 22.6536 98.584 22.8945C98.3952 23.1289 98.252 23.3991 98.1543 23.7051C98.0632 24.0111 98.0176 24.3431 98.0176 24.7012ZM109.434 20.4336V31H107.07V20.4336H109.434ZM106.914 17.6602C106.914 17.3021 107.031 17.0059 107.266 16.7715C107.507 16.5306 107.839 16.4102 108.262 16.4102C108.678 16.4102 109.007 16.5306 109.248 16.7715C109.489 17.0059 109.609 17.3021 109.609 17.6602C109.609 18.0117 109.489 18.3047 109.248 18.5391C109.007 18.7734 108.678 18.8906 108.262 18.8906C107.839 18.8906 107.507 18.7734 107.266 18.5391C107.031 18.3047 106.914 18.0117 106.914 17.6602ZM114.346 22.6895V31H111.992V20.4336H114.209L114.346 22.6895ZM113.926 25.3262L113.164 25.3164C113.171 24.5677 113.275 23.8809 113.477 23.2559C113.685 22.6309 113.971 22.0938 114.336 21.6445C114.707 21.1953 115.15 20.8503 115.664 20.6094C116.178 20.362 116.751 20.2383 117.383 20.2383C117.891 20.2383 118.35 20.3099 118.76 20.4531C119.176 20.5898 119.531 20.8145 119.824 21.127C120.124 21.4395 120.352 21.8464 120.508 22.3477C120.664 22.8424 120.742 23.4512 120.742 24.1738V31H118.379V24.1641C118.379 23.6562 118.304 23.2559 118.154 22.9629C118.011 22.6634 117.799 22.4518 117.52 22.3281C117.246 22.1979 116.904 22.1328 116.494 22.1328C116.09 22.1328 115.729 22.2174 115.41 22.3867C115.091 22.556 114.821 22.7871 114.6 23.0801C114.385 23.373 114.219 23.7116 114.102 24.0957C113.984 24.4798 113.926 24.89 113.926 25.3262ZM125.664 20.4336V31H123.301V20.4336H125.664ZM123.145 17.6602C123.145 17.3021 123.262 17.0059 123.496 16.7715C123.737 16.5306 124.069 16.4102 124.492 16.4102C124.909 16.4102 125.238 16.5306 125.479 16.7715C125.719 17.0059 125.84 17.3021 125.84 17.6602C125.84 18.0117 125.719 18.3047 125.479 18.5391C125.238 18.7734 124.909 18.8906 124.492 18.8906C124.069 18.8906 123.737 18.7734 123.496 18.5391C123.262 18.3047 123.145 18.0117 123.145 17.6602ZM130.576 22.6895V31H128.223V20.4336H130.439L130.576 22.6895ZM130.156 25.3262L129.395 25.3164C129.401 24.5677 129.505 23.8809 129.707 23.2559C129.915 22.6309 130.202 22.0938 130.566 21.6445C130.938 21.1953 131.38 20.8503 131.895 20.6094C132.409 20.362 132.982 20.2383 133.613 20.2383C134.121 20.2383 134.58 20.3099 134.99 20.4531C135.407 20.5898 135.762 20.8145 136.055 21.127C136.354 21.4395 136.582 21.8464 136.738 22.3477C136.895 22.8424 136.973 23.4512 136.973 24.1738V31H134.609V24.1641C134.609 23.6562 134.535 23.2559 134.385 22.9629C134.242 22.6634 134.03 22.4518 133.75 22.3281C133.477 22.1979 133.135 22.1328 132.725 22.1328C132.321 22.1328 131.96 22.2174 131.641 22.3867C131.322 22.556 131.051 22.7871 130.83 23.0801C130.615 23.373 130.449 23.7116 130.332 24.0957C130.215 24.4798 130.156 24.89 130.156 25.3262ZM146.143 20.4336H148.281V30.707C148.281 31.6576 148.079 32.4648 147.676 33.1289C147.272 33.793 146.709 34.2975 145.986 34.6426C145.264 34.9941 144.427 35.1699 143.477 35.1699C143.073 35.1699 142.624 35.1113 142.129 34.9941C141.641 34.877 141.165 34.6882 140.703 34.4277C140.247 34.1738 139.867 33.8385 139.561 33.4219L140.664 32.0352C141.042 32.4844 141.458 32.8132 141.914 33.0215C142.37 33.2298 142.848 33.334 143.35 33.334C143.89 33.334 144.349 33.2331 144.727 33.0312C145.111 32.8359 145.407 32.5462 145.615 32.1621C145.824 31.778 145.928 31.3092 145.928 30.7559V22.8262L146.143 20.4336ZM138.965 25.834V25.6289C138.965 24.8281 139.062 24.099 139.258 23.4414C139.453 22.7773 139.733 22.2077 140.098 21.7324C140.462 21.2507 140.905 20.8828 141.426 20.6289C141.947 20.3685 142.536 20.2383 143.193 20.2383C143.877 20.2383 144.46 20.362 144.941 20.6094C145.43 20.8568 145.837 21.2116 146.162 21.6738C146.488 22.1296 146.742 22.6764 146.924 23.3145C147.113 23.946 147.253 24.6491 147.344 25.4238V26.0781C147.259 26.8333 147.116 27.5234 146.914 28.1484C146.712 28.7734 146.445 29.3138 146.113 29.7695C145.781 30.2253 145.371 30.5768 144.883 30.8242C144.401 31.0716 143.831 31.1953 143.174 31.1953C142.529 31.1953 141.947 31.0618 141.426 30.7949C140.911 30.528 140.469 30.1536 140.098 29.6719C139.733 29.1901 139.453 28.6237 139.258 27.9727C139.062 27.3151 138.965 26.6022 138.965 25.834ZM141.318 25.6289V25.834C141.318 26.3158 141.364 26.765 141.455 27.1816C141.553 27.5983 141.699 27.9661 141.895 28.2852C142.096 28.5977 142.35 28.8451 142.656 29.0273C142.969 29.2031 143.337 29.291 143.76 29.291C144.313 29.291 144.766 29.1738 145.117 28.9395C145.475 28.7051 145.749 28.3893 145.938 27.9922C146.133 27.5885 146.27 27.1393 146.348 26.6445V24.877C146.309 24.4928 146.227 24.1348 146.104 23.8027C145.986 23.4707 145.827 23.181 145.625 22.9336C145.423 22.6797 145.169 22.4844 144.863 22.3477C144.557 22.2044 144.196 22.1328 143.779 22.1328C143.356 22.1328 142.988 22.224 142.676 22.4062C142.363 22.5885 142.106 22.8392 141.904 23.1582C141.709 23.4772 141.562 23.8483 141.465 24.2715C141.367 24.6947 141.318 25.1471 141.318 25.6289ZM155.254 25.834V25.6094C155.254 24.8477 155.365 24.1413 155.586 23.4902C155.807 22.8327 156.126 22.263 156.543 21.7812C156.966 21.293 157.48 20.9154 158.086 20.6484C158.698 20.375 159.388 20.2383 160.156 20.2383C160.931 20.2383 161.621 20.375 162.227 20.6484C162.839 20.9154 163.356 21.293 163.779 21.7812C164.202 22.263 164.525 22.8327 164.746 23.4902C164.967 24.1413 165.078 24.8477 165.078 25.6094V25.834C165.078 26.5957 164.967 27.3021 164.746 27.9531C164.525 28.6042 164.202 29.1738 163.779 29.6621C163.356 30.1439 162.842 30.5215 162.236 30.7949C161.631 31.0618 160.944 31.1953 160.176 31.1953C159.401 31.1953 158.708 31.0618 158.096 30.7949C157.49 30.5215 156.976 30.1439 156.553 29.6621C156.13 29.1738 155.807 28.6042 155.586 27.9531C155.365 27.3021 155.254 26.5957 155.254 25.834ZM157.607 25.6094V25.834C157.607 26.3092 157.656 26.7585 157.754 27.1816C157.852 27.6048 158.005 27.9759 158.213 28.2949C158.421 28.6139 158.688 28.8646 159.014 29.0469C159.339 29.2292 159.727 29.3203 160.176 29.3203C160.612 29.3203 160.99 29.2292 161.309 29.0469C161.634 28.8646 161.901 28.6139 162.109 28.2949C162.318 27.9759 162.471 27.6048 162.568 27.1816C162.673 26.7585 162.725 26.3092 162.725 25.834V25.6094C162.725 25.1406 162.673 24.6979 162.568 24.2812C162.471 23.8581 162.314 23.4837 162.1 23.1582C161.891 22.8327 161.624 22.5788 161.299 22.3965C160.98 22.2077 160.599 22.1133 160.156 22.1133C159.714 22.1133 159.329 22.2077 159.004 22.3965C158.685 22.5788 158.421 22.8327 158.213 23.1582C158.005 23.4837 157.852 23.8581 157.754 24.2812C157.656 24.6979 157.607 25.1406 157.607 25.6094ZM169.414 22.4453V31H167.061V20.4336H169.307L169.414 22.4453ZM172.646 20.3652L172.627 22.5527C172.484 22.5267 172.327 22.5072 172.158 22.4941C171.995 22.4811 171.833 22.4746 171.67 22.4746C171.266 22.4746 170.911 22.5332 170.605 22.6504C170.299 22.7611 170.042 22.9238 169.834 23.1387C169.632 23.347 169.476 23.6009 169.365 23.9004C169.255 24.1999 169.189 24.5352 169.17 24.9062L168.633 24.9453C168.633 24.2812 168.698 23.666 168.828 23.0996C168.958 22.5332 169.154 22.0352 169.414 21.6055C169.681 21.1758 170.013 20.8405 170.41 20.5996C170.814 20.3587 171.279 20.2383 171.807 20.2383C171.95 20.2383 172.103 20.2513 172.266 20.2773C172.435 20.3034 172.562 20.3327 172.646 20.3652ZM181.455 22.582V31H179.102V20.4336H181.318L181.455 22.582ZM181.074 25.3262L180.273 25.3164C180.273 24.5872 180.365 23.9134 180.547 23.2949C180.729 22.6764 180.996 22.1393 181.348 21.6836C181.699 21.2214 182.135 20.8665 182.656 20.6191C183.184 20.3652 183.792 20.2383 184.482 20.2383C184.964 20.2383 185.404 20.3099 185.801 20.4531C186.204 20.5898 186.553 20.8079 186.846 21.1074C187.145 21.4069 187.373 21.791 187.529 22.2598C187.692 22.7285 187.773 23.2949 187.773 23.959V31H185.42V24.1641C185.42 23.6497 185.342 23.2461 185.186 22.9531C185.036 22.6602 184.818 22.4518 184.531 22.3281C184.251 22.1979 183.916 22.1328 183.525 22.1328C183.083 22.1328 182.705 22.2174 182.393 22.3867C182.087 22.556 181.836 22.7871 181.641 23.0801C181.445 23.373 181.302 23.7116 181.211 24.0957C181.12 24.4798 181.074 24.89 181.074 25.3262ZM187.627 24.7012L186.523 24.9453C186.523 24.3073 186.611 23.7051 186.787 23.1387C186.969 22.5658 187.233 22.0645 187.578 21.6348C187.93 21.1986 188.363 20.8568 188.877 20.6094C189.391 20.362 189.98 20.2383 190.645 20.2383C191.185 20.2383 191.667 20.3132 192.09 20.4629C192.52 20.6061 192.884 20.834 193.184 21.1465C193.483 21.459 193.711 21.8659 193.867 22.3672C194.023 22.862 194.102 23.4609 194.102 24.1641V31H191.738V24.1543C191.738 23.6204 191.66 23.207 191.504 22.9141C191.354 22.6211 191.139 22.4193 190.859 22.3086C190.579 22.1914 190.244 22.1328 189.854 22.1328C189.489 22.1328 189.167 22.2012 188.887 22.3379C188.613 22.4681 188.382 22.6536 188.193 22.8945C188.005 23.1289 187.861 23.3991 187.764 23.7051C187.673 24.0111 187.627 24.3431 187.627 24.7012ZM196.074 25.834V25.6094C196.074 24.8477 196.185 24.1413 196.406 23.4902C196.628 22.8327 196.947 22.263 197.363 21.7812C197.786 21.293 198.301 20.9154 198.906 20.6484C199.518 20.375 200.208 20.2383 200.977 20.2383C201.751 20.2383 202.441 20.375 203.047 20.6484C203.659 20.9154 204.176 21.293 204.6 21.7812C205.023 22.263 205.345 22.8327 205.566 23.4902C205.788 24.1413 205.898 24.8477 205.898 25.6094V25.834C205.898 26.5957 205.788 27.3021 205.566 27.9531C205.345 28.6042 205.023 29.1738 204.6 29.6621C204.176 30.1439 203.662 30.5215 203.057 30.7949C202.451 31.0618 201.764 31.1953 200.996 31.1953C200.221 31.1953 199.528 31.0618 198.916 30.7949C198.311 30.5215 197.796 30.1439 197.373 29.6621C196.95 29.1738 196.628 28.6042 196.406 27.9531C196.185 27.3021 196.074 26.5957 196.074 25.834ZM198.428 25.6094V25.834C198.428 26.3092 198.477 26.7585 198.574 27.1816C198.672 27.6048 198.825 27.9759 199.033 28.2949C199.242 28.6139 199.508 28.8646 199.834 29.0469C200.16 29.2292 200.547 29.3203 200.996 29.3203C201.432 29.3203 201.81 29.2292 202.129 29.0469C202.454 28.8646 202.721 28.6139 202.93 28.2949C203.138 27.9759 203.291 27.6048 203.389 27.1816C203.493 26.7585 203.545 26.3092 203.545 25.834V25.6094C203.545 25.1406 203.493 24.6979 203.389 24.2812C203.291 23.8581 203.135 23.4837 202.92 23.1582C202.712 22.8327 202.445 22.5788 202.119 22.3965C201.8 22.2077 201.419 22.1133 200.977 22.1133C200.534 22.1133 200.15 22.2077 199.824 22.3965C199.505 22.5788 199.242 22.8327 199.033 23.1582C198.825 23.4837 198.672 23.8581 198.574 24.2812C198.477 24.6979 198.428 25.1406 198.428 25.6094ZM210.391 16V31H208.027V16H210.391ZM217.627 31.1953C216.846 31.1953 216.139 31.0684 215.508 30.8145C214.883 30.554 214.349 30.1927 213.906 29.7305C213.47 29.2682 213.135 28.7246 212.9 28.0996C212.666 27.4746 212.549 26.8008 212.549 26.0781V25.6875C212.549 24.8607 212.669 24.112 212.91 23.4414C213.151 22.7708 213.486 22.1979 213.916 21.7227C214.346 21.2409 214.854 20.873 215.439 20.6191C216.025 20.3652 216.66 20.2383 217.344 20.2383C218.099 20.2383 218.76 20.3652 219.326 20.6191C219.893 20.873 220.361 21.2311 220.732 21.6934C221.11 22.1491 221.39 22.6927 221.572 23.3242C221.761 23.9557 221.855 24.6523 221.855 25.4141V26.4199H213.691V24.7305H219.531V24.5449C219.518 24.1217 219.434 23.7246 219.277 23.3535C219.128 22.9824 218.896 22.6829 218.584 22.4551C218.271 22.2272 217.855 22.1133 217.334 22.1133C216.943 22.1133 216.595 22.1979 216.289 22.3672C215.99 22.5299 215.739 22.7676 215.537 23.0801C215.335 23.3926 215.179 23.7702 215.068 24.2129C214.964 24.6491 214.912 25.1406 214.912 25.6875V26.0781C214.912 26.5404 214.974 26.9701 215.098 27.3672C215.228 27.7578 215.417 28.0996 215.664 28.3926C215.911 28.6855 216.211 28.9167 216.562 29.0859C216.914 29.2487 217.314 29.3301 217.764 29.3301C218.33 29.3301 218.835 29.2161 219.277 28.9883C219.72 28.7604 220.104 28.4382 220.43 28.0215L221.67 29.2227C221.442 29.5547 221.146 29.8737 220.781 30.1797C220.417 30.4792 219.971 30.7233 219.443 30.9121C218.923 31.1009 218.317 31.1953 217.627 31.1953ZM235.117 28.8125V16H237.48V31H235.342L235.117 28.8125ZM228.242 25.834V25.6289C228.242 24.8281 228.337 24.099 228.525 23.4414C228.714 22.7773 228.988 22.2077 229.346 21.7324C229.704 21.2507 230.14 20.8828 230.654 20.6289C231.169 20.3685 231.748 20.2383 232.393 20.2383C233.031 20.2383 233.59 20.362 234.072 20.6094C234.554 20.8568 234.964 21.2116 235.303 21.6738C235.641 22.1296 235.911 22.6764 236.113 23.3145C236.315 23.946 236.458 24.6491 236.543 25.4238V26.0781C236.458 26.8333 236.315 27.5234 236.113 28.1484C235.911 28.7734 235.641 29.3138 235.303 29.7695C234.964 30.2253 234.551 30.5768 234.062 30.8242C233.581 31.0716 233.018 31.1953 232.373 31.1953C231.735 31.1953 231.159 31.0618 230.645 30.7949C230.137 30.528 229.704 30.1536 229.346 29.6719C228.988 29.1901 228.714 28.6237 228.525 27.9727C228.337 27.3151 228.242 26.6022 228.242 25.834ZM230.596 25.6289V25.834C230.596 26.3158 230.638 26.765 230.723 27.1816C230.814 27.5983 230.954 27.9661 231.143 28.2852C231.331 28.5977 231.576 28.8451 231.875 29.0273C232.181 29.2031 232.546 29.291 232.969 29.291C233.503 29.291 233.942 29.1738 234.287 28.9395C234.632 28.7051 234.902 28.3893 235.098 27.9922C235.299 27.5885 235.436 27.1393 235.508 26.6445V24.877C235.469 24.4928 235.387 24.1348 235.264 23.8027C235.146 23.4707 234.987 23.181 234.785 22.9336C234.583 22.6797 234.333 22.4844 234.033 22.3477C233.74 22.2044 233.392 22.1328 232.988 22.1328C232.559 22.1328 232.194 22.224 231.895 22.4062C231.595 22.5885 231.348 22.8392 231.152 23.1582C230.964 23.4772 230.824 23.8483 230.732 24.2715C230.641 24.6947 230.596 25.1471 230.596 25.6289ZM242.305 22.4453V31H239.951V20.4336H242.197L242.305 22.4453ZM245.537 20.3652L245.518 22.5527C245.374 22.5267 245.218 22.5072 245.049 22.4941C244.886 22.4811 244.723 22.4746 244.561 22.4746C244.157 22.4746 243.802 22.5332 243.496 22.6504C243.19 22.7611 242.933 22.9238 242.725 23.1387C242.523 23.347 242.367 23.6009 242.256 23.9004C242.145 24.1999 242.08 24.5352 242.061 24.9062L241.523 24.9453C241.523 24.2812 241.589 23.666 241.719 23.0996C241.849 22.5332 242.044 22.0352 242.305 21.6055C242.572 21.1758 242.904 20.8405 243.301 20.5996C243.704 20.3587 244.17 20.2383 244.697 20.2383C244.84 20.2383 244.993 20.2513 245.156 20.2773C245.326 20.3034 245.452 20.3327 245.537 20.3652ZM252.617 28.8809V23.8418C252.617 23.4642 252.549 23.1387 252.412 22.8652C252.275 22.5918 252.067 22.3802 251.787 22.2305C251.514 22.0807 251.169 22.0059 250.752 22.0059C250.368 22.0059 250.036 22.071 249.756 22.2012C249.476 22.3314 249.258 22.5072 249.102 22.7285C248.945 22.9499 248.867 23.2005 248.867 23.4805H246.523C246.523 23.0638 246.624 22.6602 246.826 22.2695C247.028 21.8789 247.321 21.5306 247.705 21.2246C248.089 20.9186 248.548 20.6777 249.082 20.502C249.616 20.3262 250.215 20.2383 250.879 20.2383C251.673 20.2383 252.376 20.3717 252.988 20.6387C253.607 20.9056 254.092 21.3092 254.443 21.8496C254.801 22.3835 254.98 23.054 254.98 23.8613V28.5586C254.98 29.0404 255.013 29.4733 255.078 29.8574C255.15 30.235 255.251 30.5638 255.381 30.8438V31H252.969C252.858 30.7461 252.77 30.4238 252.705 30.0332C252.646 29.6361 252.617 29.252 252.617 28.8809ZM252.959 24.5742L252.979 26.0293H251.289C250.853 26.0293 250.469 26.0716 250.137 26.1562C249.805 26.2344 249.528 26.3516 249.307 26.5078C249.085 26.6641 248.919 26.8529 248.809 27.0742C248.698 27.2956 248.643 27.5462 248.643 27.8262C248.643 28.1061 248.708 28.3633 248.838 28.5977C248.968 28.8255 249.157 29.0046 249.404 29.1348C249.658 29.265 249.964 29.3301 250.322 29.3301C250.804 29.3301 251.224 29.2324 251.582 29.0371C251.947 28.8353 252.233 28.5911 252.441 28.3047C252.65 28.0117 252.76 27.735 252.773 27.4746L253.535 28.5195C253.457 28.7865 253.324 29.0729 253.135 29.3789C252.946 29.6849 252.699 29.9779 252.393 30.2578C252.093 30.5312 251.732 30.7559 251.309 30.9316C250.892 31.1074 250.41 31.1953 249.863 31.1953C249.173 31.1953 248.558 31.0586 248.018 30.7852C247.477 30.5052 247.054 30.1309 246.748 29.6621C246.442 29.1868 246.289 28.6497 246.289 28.0508C246.289 27.4909 246.393 26.9961 246.602 26.5664C246.816 26.1302 247.129 25.7656 247.539 25.4727C247.956 25.1797 248.464 24.9583 249.062 24.8086C249.661 24.6523 250.345 24.5742 251.113 24.5742H252.959ZM259.961 20.4336V31H257.598V20.4336H259.961ZM257.441 17.6602C257.441 17.3021 257.559 17.0059 257.793 16.7715C258.034 16.5306 258.366 16.4102 258.789 16.4102C259.206 16.4102 259.535 16.5306 259.775 16.7715C260.016 17.0059 260.137 17.3021 260.137 17.6602C260.137 18.0117 260.016 18.3047 259.775 18.5391C259.535 18.7734 259.206 18.8906 258.789 18.8906C258.366 18.8906 258.034 18.7734 257.793 18.5391C257.559 18.3047 257.441 18.0117 257.441 17.6602ZM264.873 22.6895V31H262.52V20.4336H264.736L264.873 22.6895ZM264.453 25.3262L263.691 25.3164C263.698 24.5677 263.802 23.8809 264.004 23.2559C264.212 22.6309 264.499 22.0938 264.863 21.6445C265.234 21.1953 265.677 20.8503 266.191 20.6094C266.706 20.362 267.279 20.2383 267.91 20.2383C268.418 20.2383 268.877 20.3099 269.287 20.4531C269.704 20.5898 270.059 20.8145 270.352 21.127C270.651 21.4395 270.879 21.8464 271.035 22.3477C271.191 22.8424 271.27 23.4512 271.27 24.1738V31H268.906V24.1641C268.906 23.6562 268.831 23.2559 268.682 22.9629C268.538 22.6634 268.327 22.4518 268.047 22.3281C267.773 22.1979 267.432 22.1328 267.021 22.1328C266.618 22.1328 266.257 22.2174 265.938 22.3867C265.618 22.556 265.348 22.7871 265.127 23.0801C264.912 23.373 264.746 23.7116 264.629 24.0957C264.512 24.4798 264.453 24.89 264.453 25.3262ZM279.629 28.8809V23.8418C279.629 23.4642 279.561 23.1387 279.424 22.8652C279.287 22.5918 279.079 22.3802 278.799 22.2305C278.525 22.0807 278.18 22.0059 277.764 22.0059C277.38 22.0059 277.048 22.071 276.768 22.2012C276.488 22.3314 276.27 22.5072 276.113 22.7285C275.957 22.9499 275.879 23.2005 275.879 23.4805H273.535C273.535 23.0638 273.636 22.6602 273.838 22.2695C274.04 21.8789 274.333 21.5306 274.717 21.2246C275.101 20.9186 275.56 20.6777 276.094 20.502C276.628 20.3262 277.227 20.2383 277.891 20.2383C278.685 20.2383 279.388 20.3717 280 20.6387C280.618 20.9056 281.104 21.3092 281.455 21.8496C281.813 22.3835 281.992 23.054 281.992 23.8613V28.5586C281.992 29.0404 282.025 29.4733 282.09 29.8574C282.161 30.235 282.262 30.5638 282.393 30.8438V31H279.98C279.87 30.7461 279.782 30.4238 279.717 30.0332C279.658 29.6361 279.629 29.252 279.629 28.8809ZM279.971 24.5742L279.99 26.0293H278.301C277.865 26.0293 277.48 26.0716 277.148 26.1562C276.816 26.2344 276.54 26.3516 276.318 26.5078C276.097 26.6641 275.931 26.8529 275.82 27.0742C275.71 27.2956 275.654 27.5462 275.654 27.8262C275.654 28.1061 275.719 28.3633 275.85 28.5977C275.98 28.8255 276.169 29.0046 276.416 29.1348C276.67 29.265 276.976 29.3301 277.334 29.3301C277.816 29.3301 278.236 29.2324 278.594 29.0371C278.958 28.8353 279.245 28.5911 279.453 28.3047C279.661 28.0117 279.772 27.735 279.785 27.4746L280.547 28.5195C280.469 28.7865 280.335 29.0729 280.146 29.3789C279.958 29.6849 279.71 29.9779 279.404 30.2578C279.105 30.5312 278.743 30.7559 278.32 30.9316C277.904 31.1074 277.422 31.1953 276.875 31.1953C276.185 31.1953 275.57 31.0586 275.029 30.7852C274.489 30.5052 274.066 30.1309 273.76 29.6621C273.454 29.1868 273.301 28.6497 273.301 28.0508C273.301 27.4909 273.405 26.9961 273.613 26.5664C273.828 26.1302 274.141 25.7656 274.551 25.4727C274.967 25.1797 275.475 24.9583 276.074 24.8086C276.673 24.6523 277.357 24.5742 278.125 24.5742H279.971ZM291.221 20.4336H293.359V30.707C293.359 31.6576 293.158 32.4648 292.754 33.1289C292.35 33.793 291.787 34.2975 291.064 34.6426C290.342 34.9941 289.505 35.1699 288.555 35.1699C288.151 35.1699 287.702 35.1113 287.207 34.9941C286.719 34.877 286.243 34.6882 285.781 34.4277C285.326 34.1738 284.945 33.8385 284.639 33.4219L285.742 32.0352C286.12 32.4844 286.536 32.8132 286.992 33.0215C287.448 33.2298 287.926 33.334 288.428 33.334C288.968 33.334 289.427 33.2331 289.805 33.0312C290.189 32.8359 290.485 32.5462 290.693 32.1621C290.902 31.778 291.006 31.3092 291.006 30.7559V22.8262L291.221 20.4336ZM284.043 25.834V25.6289C284.043 24.8281 284.141 24.099 284.336 23.4414C284.531 22.7773 284.811 22.2077 285.176 21.7324C285.54 21.2507 285.983 20.8828 286.504 20.6289C287.025 20.3685 287.614 20.2383 288.271 20.2383C288.955 20.2383 289.538 20.362 290.02 20.6094C290.508 20.8568 290.915 21.2116 291.24 21.6738C291.566 22.1296 291.82 22.6764 292.002 23.3145C292.191 23.946 292.331 24.6491 292.422 25.4238V26.0781C292.337 26.8333 292.194 27.5234 291.992 28.1484C291.79 28.7734 291.523 29.3138 291.191 29.7695C290.859 30.2253 290.449 30.5768 289.961 30.8242C289.479 31.0716 288.91 31.1953 288.252 31.1953C287.607 31.1953 287.025 31.0618 286.504 30.7949C285.99 30.528 285.547 30.1536 285.176 29.6719C284.811 29.1901 284.531 28.6237 284.336 27.9727C284.141 27.3151 284.043 26.6022 284.043 25.834ZM286.396 25.6289V25.834C286.396 26.3158 286.442 26.765 286.533 27.1816C286.631 27.5983 286.777 27.9661 286.973 28.2852C287.174 28.5977 287.428 28.8451 287.734 29.0273C288.047 29.2031 288.415 29.291 288.838 29.291C289.391 29.291 289.844 29.1738 290.195 28.9395C290.553 28.7051 290.827 28.3893 291.016 27.9922C291.211 27.5885 291.348 27.1393 291.426 26.6445V24.877C291.387 24.4928 291.305 24.1348 291.182 23.8027C291.064 23.4707 290.905 23.181 290.703 22.9336C290.501 22.6797 290.247 22.4844 289.941 22.3477C289.635 22.2044 289.274 22.1328 288.857 22.1328C288.434 22.1328 288.066 22.224 287.754 22.4062C287.441 22.5885 287.184 22.8392 286.982 23.1582C286.787 23.4772 286.641 23.8483 286.543 24.2715C286.445 24.6947 286.396 25.1471 286.396 25.6289ZM300.459 31.1953C299.678 31.1953 298.971 31.0684 298.34 30.8145C297.715 30.554 297.181 30.1927 296.738 29.7305C296.302 29.2682 295.967 28.7246 295.732 28.0996C295.498 27.4746 295.381 26.8008 295.381 26.0781V25.6875C295.381 24.8607 295.501 24.112 295.742 23.4414C295.983 22.7708 296.318 22.1979 296.748 21.7227C297.178 21.2409 297.686 20.873 298.271 20.6191C298.857 20.3652 299.492 20.2383 300.176 20.2383C300.931 20.2383 301.592 20.3652 302.158 20.6191C302.725 20.873 303.193 21.2311 303.564 21.6934C303.942 22.1491 304.222 22.6927 304.404 23.3242C304.593 23.9557 304.688 24.6523 304.688 25.4141V26.4199H296.523V24.7305H302.363V24.5449C302.35 24.1217 302.266 23.7246 302.109 23.3535C301.96 22.9824 301.729 22.6829 301.416 22.4551C301.104 22.2272 300.687 22.1133 300.166 22.1133C299.775 22.1133 299.427 22.1979 299.121 22.3672C298.822 22.5299 298.571 22.7676 298.369 23.0801C298.167 23.3926 298.011 23.7702 297.9 24.2129C297.796 24.6491 297.744 25.1406 297.744 25.6875V26.0781C297.744 26.5404 297.806 26.9701 297.93 27.3672C298.06 27.7578 298.249 28.0996 298.496 28.3926C298.743 28.6855 299.043 28.9167 299.395 29.0859C299.746 29.2487 300.146 29.3301 300.596 29.3301C301.162 29.3301 301.667 29.2161 302.109 28.9883C302.552 28.7604 302.936 28.4382 303.262 28.0215L304.502 29.2227C304.274 29.5547 303.978 29.8737 303.613 30.1797C303.249 30.4792 302.803 30.7233 302.275 30.9121C301.755 31.1009 301.149 31.1953 300.459 31.1953Z" fill="black"/>
<path d="M35 32.9531H305.303V33.9297H35V32.9531Z" fill="black"/>
<a href="https://www.agrivi.com/blog/undermining-a-simple-and-low-cost-soil-drainage/">
<rect fill="black" fill-opacity="0" y="-0.21875" width="270.303" height="23.4375"/>
</a>
<path d="M41.8457 80.6973H38.1445V78.7539H41.8457C42.4902 78.7539 43.0111 78.6497 43.4082 78.4414C43.8053 78.2331 44.0951 77.9466 44.2773 77.582C44.4661 77.2109 44.5605 76.7878 44.5605 76.3125C44.5605 75.8633 44.4661 75.4434 44.2773 75.0527C44.0951 74.6556 43.8053 74.3366 43.4082 74.0957C43.0111 73.8548 42.4902 73.7344 41.8457 73.7344H38.8965V86H36.4453V71.7812H41.8457C42.946 71.7812 43.8802 71.9766 44.6484 72.3672C45.4232 72.7513 46.0124 73.2852 46.416 73.9688C46.8197 74.6458 47.0215 75.4206 47.0215 76.293C47.0215 77.2109 46.8197 77.9987 46.416 78.6562C46.0124 79.3138 45.4232 79.8184 44.6484 80.1699C43.8802 80.5215 42.946 80.6973 41.8457 80.6973ZM51.5039 71V86H49.1406V71H51.5039ZM53.6328 80.834V80.6094C53.6328 79.8477 53.7435 79.1413 53.9648 78.4902C54.1862 77.8327 54.5052 77.263 54.9219 76.7812C55.3451 76.293 55.8594 75.9154 56.4648 75.6484C57.0768 75.375 57.7669 75.2383 58.5352 75.2383C59.3099 75.2383 60 75.375 60.6055 75.6484C61.2174 75.9154 61.735 76.293 62.1582 76.7812C62.5814 77.263 62.9036 77.8327 63.125 78.4902C63.3464 79.1413 63.457 79.8477 63.457 80.6094V80.834C63.457 81.5957 63.3464 82.3021 63.125 82.9531C62.9036 83.6042 62.5814 84.1738 62.1582 84.6621C61.735 85.1439 61.2207 85.5215 60.6152 85.7949C60.0098 86.0618 59.3229 86.1953 58.5547 86.1953C57.7799 86.1953 57.0866 86.0618 56.4746 85.7949C55.8691 85.5215 55.3548 85.1439 54.9316 84.6621C54.5085 84.1738 54.1862 83.6042 53.9648 82.9531C53.7435 82.3021 53.6328 81.5957 53.6328 80.834ZM55.9863 80.6094V80.834C55.9863 81.3092 56.0352 81.7585 56.1328 82.1816C56.2305 82.6048 56.3835 82.9759 56.5918 83.2949C56.8001 83.6139 57.0671 83.8646 57.3926 84.0469C57.7181 84.2292 58.1055 84.3203 58.5547 84.3203C58.9909 84.3203 59.3685 84.2292 59.6875 84.0469C60.013 83.8646 60.2799 83.6139 60.4883 83.2949C60.6966 82.9759 60.8496 82.6048 60.9473 82.1816C61.0514 81.7585 61.1035 81.3092 61.1035 80.834V80.6094C61.1035 80.1406 61.0514 79.6979 60.9473 79.2812C60.8496 78.8581 60.6934 78.4837 60.4785 78.1582C60.2702 77.8327 60.0033 77.5788 59.6777 77.3965C59.3587 77.2077 58.9779 77.1133 58.5352 77.1133C58.0924 77.1133 57.7083 77.2077 57.3828 77.3965C57.0638 77.5788 56.8001 77.8327 56.5918 78.1582C56.3835 78.4837 56.2305 78.8581 56.1328 79.2812C56.0352 79.6979 55.9863 80.1406 55.9863 80.6094ZM68.3008 83.6562L70.7422 75.4336H72.2461L71.8359 77.8945L69.375 86H68.0273L68.3008 83.6562ZM66.8652 75.4336L68.7695 83.6953L68.9258 86H67.4219L64.5605 75.4336H66.8652ZM74.5312 83.5977L76.377 75.4336H78.6719L75.8203 86H74.3164L74.5312 83.5977ZM72.5 75.4336L74.9121 83.5586L75.2148 86H73.8672L71.377 77.8848L70.9668 75.4336H72.5ZM82.793 75.4336V86H80.4297V75.4336H82.793ZM80.2734 72.6602C80.2734 72.3021 80.3906 72.0059 80.625 71.7715C80.8659 71.5306 81.1979 71.4102 81.6211 71.4102C82.0378 71.4102 82.3665 71.5306 82.6074 71.7715C82.8483 72.0059 82.9688 72.3021 82.9688 72.6602C82.9688 73.0117 82.8483 73.3047 82.6074 73.5391C82.3665 73.7734 82.0378 73.8906 81.6211 73.8906C81.1979 73.8906 80.8659 73.7734 80.625 73.5391C80.3906 73.3047 80.2734 73.0117 80.2734 72.6602ZM87.7051 77.6895V86H85.3516V75.4336H87.5684L87.7051 77.6895ZM87.2852 80.3262L86.5234 80.3164C86.5299 79.5677 86.6341 78.8809 86.8359 78.2559C87.0443 77.6309 87.3307 77.0938 87.6953 76.6445C88.0664 76.1953 88.5091 75.8503 89.0234 75.6094C89.5378 75.362 90.1107 75.2383 90.7422 75.2383C91.25 75.2383 91.709 75.3099 92.1191 75.4531C92.5358 75.5898 92.8906 75.8145 93.1836 76.127C93.4831 76.4395 93.7109 76.8464 93.8672 77.3477C94.0234 77.8424 94.1016 78.4512 94.1016 79.1738V86H91.7383V79.1641C91.7383 78.6562 91.6634 78.2559 91.5137 77.9629C91.3704 77.6634 91.1589 77.4518 90.8789 77.3281C90.6055 77.1979 90.2637 77.1328 89.8535 77.1328C89.4499 77.1328 89.0885 77.2174 88.7695 77.3867C88.4505 77.556 88.1803 77.7871 87.959 78.0801C87.7441 78.373 87.5781 78.7116 87.4609 79.0957C87.3438 79.4798 87.2852 79.89 87.2852 80.3262ZM103.271 75.4336H105.41V85.707C105.41 86.6576 105.208 87.4648 104.805 88.1289C104.401 88.793 103.838 89.2975 103.115 89.6426C102.393 89.9941 101.556 90.1699 100.605 90.1699C100.202 90.1699 99.7526 90.1113 99.2578 89.9941C98.7695 89.877 98.2943 89.6882 97.832 89.4277C97.3763 89.1738 96.9954 88.8385 96.6895 88.4219L97.793 87.0352C98.1706 87.4844 98.5872 87.8132 99.043 88.0215C99.4987 88.2298 99.9772 88.334 100.479 88.334C101.019 88.334 101.478 88.2331 101.855 88.0312C102.24 87.8359 102.536 87.5462 102.744 87.1621C102.952 86.778 103.057 86.3092 103.057 85.7559V77.8262L103.271 75.4336ZM96.0938 80.834V80.6289C96.0938 79.8281 96.1914 79.099 96.3867 78.4414C96.582 77.7773 96.862 77.2077 97.2266 76.7324C97.5911 76.2507 98.0339 75.8828 98.5547 75.6289C99.0755 75.3685 99.6647 75.2383 100.322 75.2383C101.006 75.2383 101.589 75.362 102.07 75.6094C102.559 75.8568 102.965 76.2116 103.291 76.6738C103.617 77.1296 103.87 77.6764 104.053 78.3145C104.242 78.946 104.382 79.6491 104.473 80.4238V81.0781C104.388 81.8333 104.245 82.5234 104.043 83.1484C103.841 83.7734 103.574 84.3138 103.242 84.7695C102.91 85.2253 102.5 85.5768 102.012 85.8242C101.53 86.0716 100.96 86.1953 100.303 86.1953C99.6582 86.1953 99.0755 86.0618 98.5547 85.7949C98.0404 85.528 97.5977 85.1536 97.2266 84.6719C96.862 84.1901 96.582 83.6237 96.3867 82.9727C96.1914 82.3151 96.0938 81.6022 96.0938 80.834ZM98.4473 80.6289V80.834C98.4473 81.3158 98.4928 81.765 98.584 82.1816C98.6816 82.5983 98.8281 82.9661 99.0234 83.2852C99.2253 83.5977 99.4792 83.8451 99.7852 84.0273C100.098 84.2031 100.465 84.291 100.889 84.291C101.442 84.291 101.895 84.1738 102.246 83.9395C102.604 83.7051 102.878 83.3893 103.066 82.9922C103.262 82.5885 103.398 82.1393 103.477 81.6445V79.877C103.438 79.4928 103.356 79.1348 103.232 78.8027C103.115 78.4707 102.956 78.181 102.754 77.9336C102.552 77.6797 102.298 77.4844 101.992 77.3477C101.686 77.2044 101.325 77.1328 100.908 77.1328C100.485 77.1328 100.117 77.224 99.8047 77.4062C99.4922 77.5885 99.235 77.8392 99.0332 78.1582C98.8379 78.4772 98.6914 78.8483 98.5938 79.2715C98.4961 79.6947 98.4473 80.1471 98.4473 80.6289Z" fill="black"/>
<path d="M35 87.9531H106.631V88.9297H35V87.9531Z" fill="black"/>
<a href="https://www.agrivi.com/blog/very-shallow-plowing-the-first-step-in-soil-preparation/">
<rect fill="black" fill-opacity="0" y="-0.21875" width="71.6309" height="23.4375"/>
</a>
<path d="M149.141 300.07C149.141 299.836 149.104 299.628 149.031 299.445C148.964 299.263 148.841 299.096 148.664 298.945C148.487 298.794 148.237 298.648 147.914 298.508C147.596 298.362 147.19 298.214 146.695 298.062C146.154 297.896 145.654 297.711 145.195 297.508C144.742 297.299 144.346 297.06 144.008 296.789C143.669 296.513 143.406 296.198 143.219 295.844C143.031 295.484 142.938 295.07 142.938 294.602C142.938 294.138 143.034 293.716 143.227 293.336C143.424 292.956 143.703 292.628 144.062 292.352C144.427 292.07 144.857 291.854 145.352 291.703C145.846 291.547 146.393 291.469 146.992 291.469C147.836 291.469 148.562 291.625 149.172 291.938C149.786 292.25 150.258 292.669 150.586 293.195C150.919 293.721 151.086 294.302 151.086 294.938H149.141C149.141 294.562 149.06 294.232 148.898 293.945C148.742 293.654 148.503 293.424 148.18 293.258C147.862 293.091 147.458 293.008 146.969 293.008C146.505 293.008 146.12 293.078 145.812 293.219C145.505 293.359 145.276 293.549 145.125 293.789C144.974 294.029 144.898 294.299 144.898 294.602C144.898 294.815 144.948 295.01 145.047 295.188C145.146 295.359 145.297 295.521 145.5 295.672C145.703 295.818 145.958 295.956 146.266 296.086C146.573 296.216 146.935 296.341 147.352 296.461C147.982 296.648 148.531 296.857 149 297.086C149.469 297.31 149.859 297.565 150.172 297.852C150.484 298.138 150.719 298.464 150.875 298.828C151.031 299.188 151.109 299.596 151.109 300.055C151.109 300.534 151.013 300.966 150.82 301.352C150.628 301.732 150.352 302.057 149.992 302.328C149.638 302.594 149.211 302.799 148.711 302.945C148.216 303.086 147.664 303.156 147.055 303.156C146.508 303.156 145.969 303.083 145.438 302.938C144.911 302.792 144.432 302.57 144 302.273C143.568 301.971 143.224 301.596 142.969 301.148C142.714 300.695 142.586 300.167 142.586 299.562H144.547C144.547 299.932 144.609 300.247 144.734 300.508C144.865 300.768 145.044 300.982 145.273 301.148C145.503 301.31 145.768 301.43 146.07 301.508C146.378 301.586 146.706 301.625 147.055 301.625C147.513 301.625 147.896 301.56 148.203 301.43C148.516 301.299 148.75 301.117 148.906 300.883C149.062 300.648 149.141 300.378 149.141 300.07ZM152.297 298.867V298.688C152.297 298.078 152.385 297.513 152.562 296.992C152.74 296.466 152.995 296.01 153.328 295.625C153.667 295.234 154.078 294.932 154.562 294.719C155.052 294.5 155.604 294.391 156.219 294.391C156.839 294.391 157.391 294.5 157.875 294.719C158.365 294.932 158.779 295.234 159.117 295.625C159.456 296.01 159.714 296.466 159.891 296.992C160.068 297.513 160.156 298.078 160.156 298.688V298.867C160.156 299.477 160.068 300.042 159.891 300.562C159.714 301.083 159.456 301.539 159.117 301.93C158.779 302.315 158.367 302.617 157.883 302.836C157.398 303.049 156.849 303.156 156.234 303.156C155.615 303.156 155.06 303.049 154.57 302.836C154.086 302.617 153.674 302.315 153.336 301.93C152.997 301.539 152.74 301.083 152.562 300.562C152.385 300.042 152.297 299.477 152.297 298.867ZM154.18 298.688V298.867C154.18 299.247 154.219 299.607 154.297 299.945C154.375 300.284 154.497 300.581 154.664 300.836C154.831 301.091 155.044 301.292 155.305 301.438C155.565 301.583 155.875 301.656 156.234 301.656C156.583 301.656 156.885 301.583 157.141 301.438C157.401 301.292 157.615 301.091 157.781 300.836C157.948 300.581 158.07 300.284 158.148 299.945C158.232 299.607 158.273 299.247 158.273 298.867V298.688C158.273 298.312 158.232 297.958 158.148 297.625C158.07 297.286 157.945 296.987 157.773 296.727C157.607 296.466 157.393 296.263 157.133 296.117C156.878 295.966 156.573 295.891 156.219 295.891C155.865 295.891 155.557 295.966 155.297 296.117C155.042 296.263 154.831 296.466 154.664 296.727C154.497 296.987 154.375 297.286 154.297 297.625C154.219 297.958 154.18 298.312 154.18 298.688ZM163.75 294.547V303H161.859V294.547H163.75ZM161.734 292.328C161.734 292.042 161.828 291.805 162.016 291.617C162.208 291.424 162.474 291.328 162.812 291.328C163.146 291.328 163.409 291.424 163.602 291.617C163.794 291.805 163.891 292.042 163.891 292.328C163.891 292.609 163.794 292.844 163.602 293.031C163.409 293.219 163.146 293.312 162.812 293.312C162.474 293.312 162.208 293.219 162.016 293.031C161.828 292.844 161.734 292.609 161.734 292.328ZM167.828 291V303H165.938V291H167.828ZM175.758 296.266V303H173.875V294.547H175.648L175.758 296.266ZM175.453 298.461L174.812 298.453C174.812 297.87 174.885 297.331 175.031 296.836C175.177 296.341 175.391 295.911 175.672 295.547C175.953 295.177 176.302 294.893 176.719 294.695C177.141 294.492 177.628 294.391 178.18 294.391C178.565 294.391 178.917 294.448 179.234 294.562C179.557 294.672 179.836 294.846 180.07 295.086C180.31 295.326 180.492 295.633 180.617 296.008C180.747 296.383 180.812 296.836 180.812 297.367V303H178.93V297.531C178.93 297.12 178.867 296.797 178.742 296.562C178.622 296.328 178.448 296.161 178.219 296.062C177.995 295.958 177.727 295.906 177.414 295.906C177.06 295.906 176.758 295.974 176.508 296.109C176.263 296.245 176.062 296.43 175.906 296.664C175.75 296.898 175.635 297.169 175.562 297.477C175.49 297.784 175.453 298.112 175.453 298.461ZM180.695 297.961L179.812 298.156C179.812 297.646 179.883 297.164 180.023 296.711C180.169 296.253 180.38 295.852 180.656 295.508C180.938 295.159 181.284 294.885 181.695 294.688C182.107 294.49 182.578 294.391 183.109 294.391C183.542 294.391 183.927 294.451 184.266 294.57C184.609 294.685 184.901 294.867 185.141 295.117C185.38 295.367 185.562 295.693 185.688 296.094C185.812 296.49 185.875 296.969 185.875 297.531V303H183.984V297.523C183.984 297.096 183.922 296.766 183.797 296.531C183.677 296.297 183.505 296.135 183.281 296.047C183.057 295.953 182.789 295.906 182.477 295.906C182.185 295.906 181.927 295.961 181.703 296.07C181.484 296.174 181.299 296.323 181.148 296.516C180.997 296.703 180.883 296.919 180.805 297.164C180.732 297.409 180.695 297.674 180.695 297.961ZM192.578 301.305V297.273C192.578 296.971 192.523 296.711 192.414 296.492C192.305 296.273 192.138 296.104 191.914 295.984C191.695 295.865 191.419 295.805 191.086 295.805C190.779 295.805 190.513 295.857 190.289 295.961C190.065 296.065 189.891 296.206 189.766 296.383C189.641 296.56 189.578 296.76 189.578 296.984H187.703C187.703 296.651 187.784 296.328 187.945 296.016C188.107 295.703 188.341 295.424 188.648 295.18C188.956 294.935 189.323 294.742 189.75 294.602C190.177 294.461 190.656 294.391 191.188 294.391C191.823 294.391 192.385 294.497 192.875 294.711C193.37 294.924 193.758 295.247 194.039 295.68C194.326 296.107 194.469 296.643 194.469 297.289V301.047C194.469 301.432 194.495 301.779 194.547 302.086C194.604 302.388 194.685 302.651 194.789 302.875V303H192.859C192.771 302.797 192.701 302.539 192.648 302.227C192.602 301.909 192.578 301.602 192.578 301.305ZM192.852 297.859L192.867 299.023H191.516C191.167 299.023 190.859 299.057 190.594 299.125C190.328 299.188 190.107 299.281 189.93 299.406C189.753 299.531 189.62 299.682 189.531 299.859C189.443 300.036 189.398 300.237 189.398 300.461C189.398 300.685 189.451 300.891 189.555 301.078C189.659 301.26 189.81 301.404 190.008 301.508C190.211 301.612 190.456 301.664 190.742 301.664C191.128 301.664 191.464 301.586 191.75 301.43C192.042 301.268 192.271 301.073 192.438 300.844C192.604 300.609 192.693 300.388 192.703 300.18L193.312 301.016C193.25 301.229 193.143 301.458 192.992 301.703C192.841 301.948 192.643 302.182 192.398 302.406C192.159 302.625 191.87 302.805 191.531 302.945C191.198 303.086 190.812 303.156 190.375 303.156C189.823 303.156 189.331 303.047 188.898 302.828C188.466 302.604 188.128 302.305 187.883 301.93C187.638 301.549 187.516 301.12 187.516 300.641C187.516 300.193 187.599 299.797 187.766 299.453C187.938 299.104 188.188 298.812 188.516 298.578C188.849 298.344 189.255 298.167 189.734 298.047C190.214 297.922 190.76 297.859 191.375 297.859H192.852ZM198.305 296.352V303H196.422V294.547H198.195L198.305 296.352ZM197.969 298.461L197.359 298.453C197.365 297.854 197.448 297.305 197.609 296.805C197.776 296.305 198.005 295.875 198.297 295.516C198.594 295.156 198.948 294.88 199.359 294.688C199.771 294.49 200.229 294.391 200.734 294.391C201.141 294.391 201.508 294.448 201.836 294.562C202.169 294.672 202.453 294.852 202.688 295.102C202.927 295.352 203.109 295.677 203.234 296.078C203.359 296.474 203.422 296.961 203.422 297.539V303H201.531V297.531C201.531 297.125 201.471 296.805 201.352 296.57C201.237 296.331 201.068 296.161 200.844 296.062C200.625 295.958 200.352 295.906 200.023 295.906C199.701 295.906 199.411 295.974 199.156 296.109C198.901 296.245 198.685 296.43 198.508 296.664C198.336 296.898 198.203 297.169 198.109 297.477C198.016 297.784 197.969 298.112 197.969 298.461ZM210.109 301.305V297.273C210.109 296.971 210.055 296.711 209.945 296.492C209.836 296.273 209.669 296.104 209.445 295.984C209.227 295.865 208.951 295.805 208.617 295.805C208.31 295.805 208.044 295.857 207.82 295.961C207.596 296.065 207.422 296.206 207.297 296.383C207.172 296.56 207.109 296.76 207.109 296.984H205.234C205.234 296.651 205.315 296.328 205.477 296.016C205.638 295.703 205.872 295.424 206.18 295.18C206.487 294.935 206.854 294.742 207.281 294.602C207.708 294.461 208.188 294.391 208.719 294.391C209.354 294.391 209.917 294.497 210.406 294.711C210.901 294.924 211.289 295.247 211.57 295.68C211.857 296.107 212 296.643 212 297.289V301.047C212 301.432 212.026 301.779 212.078 302.086C212.135 302.388 212.216 302.651 212.32 302.875V303H210.391C210.302 302.797 210.232 302.539 210.18 302.227C210.133 301.909 210.109 301.602 210.109 301.305ZM210.383 297.859L210.398 299.023H209.047C208.698 299.023 208.391 299.057 208.125 299.125C207.859 299.188 207.638 299.281 207.461 299.406C207.284 299.531 207.151 299.682 207.062 299.859C206.974 300.036 206.93 300.237 206.93 300.461C206.93 300.685 206.982 300.891 207.086 301.078C207.19 301.26 207.341 301.404 207.539 301.508C207.742 301.612 207.987 301.664 208.273 301.664C208.659 301.664 208.995 301.586 209.281 301.43C209.573 301.268 209.802 301.073 209.969 300.844C210.135 300.609 210.224 300.388 210.234 300.18L210.844 301.016C210.781 301.229 210.674 301.458 210.523 301.703C210.372 301.948 210.174 302.182 209.93 302.406C209.69 302.625 209.401 302.805 209.062 302.945C208.729 303.086 208.344 303.156 207.906 303.156C207.354 303.156 206.862 303.047 206.43 302.828C205.997 302.604 205.659 302.305 205.414 301.93C205.169 301.549 205.047 301.12 205.047 300.641C205.047 300.193 205.13 299.797 205.297 299.453C205.469 299.104 205.719 298.812 206.047 298.578C206.38 298.344 206.786 298.167 207.266 298.047C207.745 297.922 208.292 297.859 208.906 297.859H210.383ZM219.383 294.547H221.094V302.766C221.094 303.526 220.932 304.172 220.609 304.703C220.286 305.234 219.836 305.638 219.258 305.914C218.68 306.195 218.01 306.336 217.25 306.336C216.927 306.336 216.568 306.289 216.172 306.195C215.781 306.102 215.401 305.951 215.031 305.742C214.667 305.539 214.362 305.271 214.117 304.938L215 303.828C215.302 304.188 215.635 304.451 216 304.617C216.365 304.784 216.747 304.867 217.148 304.867C217.581 304.867 217.948 304.786 218.25 304.625C218.557 304.469 218.794 304.237 218.961 303.93C219.128 303.622 219.211 303.247 219.211 302.805V296.461L219.383 294.547ZM213.641 298.867V298.703C213.641 298.062 213.719 297.479 213.875 296.953C214.031 296.422 214.255 295.966 214.547 295.586C214.839 295.201 215.193 294.906 215.609 294.703C216.026 294.495 216.497 294.391 217.023 294.391C217.57 294.391 218.036 294.49 218.422 294.688C218.812 294.885 219.138 295.169 219.398 295.539C219.659 295.904 219.862 296.341 220.008 296.852C220.159 297.357 220.271 297.919 220.344 298.539V299.062C220.276 299.667 220.161 300.219 220 300.719C219.839 301.219 219.625 301.651 219.359 302.016C219.094 302.38 218.766 302.661 218.375 302.859C217.99 303.057 217.534 303.156 217.008 303.156C216.492 303.156 216.026 303.049 215.609 302.836C215.198 302.622 214.844 302.323 214.547 301.938C214.255 301.552 214.031 301.099 213.875 300.578C213.719 300.052 213.641 299.482 213.641 298.867ZM215.523 298.703V298.867C215.523 299.253 215.56 299.612 215.633 299.945C215.711 300.279 215.828 300.573 215.984 300.828C216.146 301.078 216.349 301.276 216.594 301.422C216.844 301.562 217.138 301.633 217.477 301.633C217.919 301.633 218.281 301.539 218.562 301.352C218.849 301.164 219.068 300.911 219.219 300.594C219.375 300.271 219.484 299.911 219.547 299.516V298.102C219.516 297.794 219.451 297.508 219.352 297.242C219.258 296.977 219.13 296.745 218.969 296.547C218.807 296.344 218.604 296.188 218.359 296.078C218.115 295.964 217.826 295.906 217.492 295.906C217.154 295.906 216.859 295.979 216.609 296.125C216.359 296.271 216.154 296.471 215.992 296.727C215.836 296.982 215.719 297.279 215.641 297.617C215.562 297.956 215.523 298.318 215.523 298.703ZM226.773 303.156C226.148 303.156 225.583 303.055 225.078 302.852C224.578 302.643 224.151 302.354 223.797 301.984C223.448 301.615 223.18 301.18 222.992 300.68C222.805 300.18 222.711 299.641 222.711 299.062V298.75C222.711 298.089 222.807 297.49 223 296.953C223.193 296.417 223.461 295.958 223.805 295.578C224.148 295.193 224.555 294.898 225.023 294.695C225.492 294.492 226 294.391 226.547 294.391C227.151 294.391 227.68 294.492 228.133 294.695C228.586 294.898 228.961 295.185 229.258 295.555C229.56 295.919 229.784 296.354 229.93 296.859C230.081 297.365 230.156 297.922 230.156 298.531V299.336H223.625V297.984H228.297V297.836C228.286 297.497 228.219 297.18 228.094 296.883C227.974 296.586 227.789 296.346 227.539 296.164C227.289 295.982 226.956 295.891 226.539 295.891C226.227 295.891 225.948 295.958 225.703 296.094C225.464 296.224 225.263 296.414 225.102 296.664C224.94 296.914 224.815 297.216 224.727 297.57C224.643 297.919 224.602 298.312 224.602 298.75V299.062C224.602 299.432 224.651 299.776 224.75 300.094C224.854 300.406 225.005 300.68 225.203 300.914C225.401 301.148 225.641 301.333 225.922 301.469C226.203 301.599 226.523 301.664 226.883 301.664C227.336 301.664 227.74 301.573 228.094 301.391C228.448 301.208 228.755 300.951 229.016 300.617L230.008 301.578C229.826 301.844 229.589 302.099 229.297 302.344C229.005 302.583 228.648 302.779 228.227 302.93C227.81 303.081 227.326 303.156 226.773 303.156ZM233.508 296.266V303H231.625V294.547H233.398L233.508 296.266ZM233.203 298.461L232.562 298.453C232.562 297.87 232.635 297.331 232.781 296.836C232.927 296.341 233.141 295.911 233.422 295.547C233.703 295.177 234.052 294.893 234.469 294.695C234.891 294.492 235.378 294.391 235.93 294.391C236.315 294.391 236.667 294.448 236.984 294.562C237.307 294.672 237.586 294.846 237.82 295.086C238.06 295.326 238.242 295.633 238.367 296.008C238.497 296.383 238.562 296.836 238.562 297.367V303H236.68V297.531C236.68 297.12 236.617 296.797 236.492 296.562C236.372 296.328 236.198 296.161 235.969 296.062C235.745 295.958 235.477 295.906 235.164 295.906C234.81 295.906 234.508 295.974 234.258 296.109C234.013 296.245 233.812 296.43 233.656 296.664C233.5 296.898 233.385 297.169 233.312 297.477C233.24 297.784 233.203 298.112 233.203 298.461ZM238.445 297.961L237.562 298.156C237.562 297.646 237.633 297.164 237.773 296.711C237.919 296.253 238.13 295.852 238.406 295.508C238.688 295.159 239.034 294.885 239.445 294.688C239.857 294.49 240.328 294.391 240.859 294.391C241.292 294.391 241.677 294.451 242.016 294.57C242.359 294.685 242.651 294.867 242.891 295.117C243.13 295.367 243.312 295.693 243.438 296.094C243.562 296.49 243.625 296.969 243.625 297.531V303H241.734V297.523C241.734 297.096 241.672 296.766 241.547 296.531C241.427 296.297 241.255 296.135 241.031 296.047C240.807 295.953 240.539 295.906 240.227 295.906C239.935 295.906 239.677 295.961 239.453 296.07C239.234 296.174 239.049 296.323 238.898 296.516C238.747 296.703 238.633 296.919 238.555 297.164C238.482 297.409 238.445 297.674 238.445 297.961ZM249.289 303.156C248.664 303.156 248.099 303.055 247.594 302.852C247.094 302.643 246.667 302.354 246.312 301.984C245.964 301.615 245.695 301.18 245.508 300.68C245.32 300.18 245.227 299.641 245.227 299.062V298.75C245.227 298.089 245.323 297.49 245.516 296.953C245.708 296.417 245.977 295.958 246.32 295.578C246.664 295.193 247.07 294.898 247.539 294.695C248.008 294.492 248.516 294.391 249.062 294.391C249.667 294.391 250.195 294.492 250.648 294.695C251.102 294.898 251.477 295.185 251.773 295.555C252.076 295.919 252.299 296.354 252.445 296.859C252.596 297.365 252.672 297.922 252.672 298.531V299.336H246.141V297.984H250.812V297.836C250.802 297.497 250.734 297.18 250.609 296.883C250.49 296.586 250.305 296.346 250.055 296.164C249.805 295.982 249.471 295.891 249.055 295.891C248.742 295.891 248.464 295.958 248.219 296.094C247.979 296.224 247.779 296.414 247.617 296.664C247.456 296.914 247.331 297.216 247.242 297.57C247.159 297.919 247.117 298.312 247.117 298.75V299.062C247.117 299.432 247.167 299.776 247.266 300.094C247.37 300.406 247.521 300.68 247.719 300.914C247.917 301.148 248.156 301.333 248.438 301.469C248.719 301.599 249.039 301.664 249.398 301.664C249.852 301.664 250.255 301.573 250.609 301.391C250.964 301.208 251.271 300.951 251.531 300.617L252.523 301.578C252.341 301.844 252.104 302.099 251.812 302.344C251.521 302.583 251.164 302.779 250.742 302.93C250.326 303.081 249.841 303.156 249.289 303.156ZM256.008 296.352V303H254.125V294.547H255.898L256.008 296.352ZM255.672 298.461L255.062 298.453C255.068 297.854 255.151 297.305 255.312 296.805C255.479 296.305 255.708 295.875 256 295.516C256.297 295.156 256.651 294.88 257.062 294.688C257.474 294.49 257.932 294.391 258.438 294.391C258.844 294.391 259.211 294.448 259.539 294.562C259.872 294.672 260.156 294.852 260.391 295.102C260.63 295.352 260.812 295.677 260.938 296.078C261.062 296.474 261.125 296.961 261.125 297.539V303H259.234V297.531C259.234 297.125 259.174 296.805 259.055 296.57C258.94 296.331 258.771 296.161 258.547 296.062C258.328 295.958 258.055 295.906 257.727 295.906C257.404 295.906 257.115 295.974 256.859 296.109C256.604 296.245 256.388 296.43 256.211 296.664C256.039 296.898 255.906 297.169 255.812 297.477C255.719 297.784 255.672 298.112 255.672 298.461ZM266.922 294.547V295.922H262.156V294.547H266.922ZM263.531 292.477H265.414V300.664C265.414 300.924 265.451 301.125 265.523 301.266C265.602 301.401 265.708 301.492 265.844 301.539C265.979 301.586 266.138 301.609 266.32 301.609C266.451 301.609 266.576 301.602 266.695 301.586C266.815 301.57 266.911 301.555 266.984 301.539L266.992 302.977C266.836 303.023 266.654 303.065 266.445 303.102C266.242 303.138 266.008 303.156 265.742 303.156C265.31 303.156 264.927 303.081 264.594 302.93C264.26 302.773 264 302.521 263.812 302.172C263.625 301.823 263.531 301.359 263.531 300.781V292.477Z" fill="black"/>
<path d="M45.8398 187.719V189.662H38.291V187.719H45.8398ZM38.8965 181.781V196H36.4453V181.781H38.8965ZM47.7246 181.781V196H45.2832V181.781H47.7246ZM56.3672 193.881V188.842C56.3672 188.464 56.2988 188.139 56.1621 187.865C56.0254 187.592 55.8171 187.38 55.5371 187.23C55.2637 187.081 54.9186 187.006 54.502 187.006C54.1178 187.006 53.7858 187.071 53.5059 187.201C53.2259 187.331 53.0078 187.507 52.8516 187.729C52.6953 187.95 52.6172 188.201 52.6172 188.48H50.2734C50.2734 188.064 50.3743 187.66 50.5762 187.27C50.778 186.879 51.071 186.531 51.4551 186.225C51.8392 185.919 52.2982 185.678 52.832 185.502C53.3659 185.326 53.9648 185.238 54.6289 185.238C55.4232 185.238 56.1263 185.372 56.7383 185.639C57.3568 185.906 57.8418 186.309 58.1934 186.85C58.5514 187.383 58.7305 188.054 58.7305 188.861V193.559C58.7305 194.04 58.763 194.473 58.8281 194.857C58.8997 195.235 59.0007 195.564 59.1309 195.844V196H56.7188C56.6081 195.746 56.5202 195.424 56.4551 195.033C56.3965 194.636 56.3672 194.252 56.3672 193.881ZM56.709 189.574L56.7285 191.029H55.0391C54.6029 191.029 54.2188 191.072 53.8867 191.156C53.5547 191.234 53.278 191.352 53.0566 191.508C52.8353 191.664 52.6693 191.853 52.5586 192.074C52.4479 192.296 52.3926 192.546 52.3926 192.826C52.3926 193.106 52.4577 193.363 52.5879 193.598C52.7181 193.826 52.9069 194.005 53.1543 194.135C53.4082 194.265 53.7142 194.33 54.0723 194.33C54.554 194.33 54.974 194.232 55.332 194.037C55.6966 193.835 55.9831 193.591 56.1914 193.305C56.3997 193.012 56.5104 192.735 56.5234 192.475L57.2852 193.52C57.207 193.786 57.0736 194.073 56.8848 194.379C56.696 194.685 56.4486 194.978 56.1426 195.258C55.8431 195.531 55.4818 195.756 55.0586 195.932C54.6419 196.107 54.1602 196.195 53.6133 196.195C52.9232 196.195 52.3079 196.059 51.7676 195.785C51.2272 195.505 50.804 195.131 50.498 194.662C50.1921 194.187 50.0391 193.65 50.0391 193.051C50.0391 192.491 50.1432 191.996 50.3516 191.566C50.5664 191.13 50.8789 190.766 51.2891 190.473C51.7057 190.18 52.2135 189.958 52.8125 189.809C53.4115 189.652 54.0951 189.574 54.8633 189.574H56.709ZM63.5547 187.445V196H61.2012V185.434H63.4473L63.5547 187.445ZM66.7871 185.365L66.7676 187.553C66.6243 187.527 66.4681 187.507 66.2988 187.494C66.1361 187.481 65.9733 187.475 65.8105 187.475C65.4069 187.475 65.0521 187.533 64.7461 187.65C64.4401 187.761 64.1829 187.924 63.9746 188.139C63.7728 188.347 63.6165 188.601 63.5059 188.9C63.3952 189.2 63.3301 189.535 63.3105 189.906L62.7734 189.945C62.7734 189.281 62.8385 188.666 62.9688 188.1C63.099 187.533 63.2943 187.035 63.5547 186.605C63.8216 186.176 64.1536 185.84 64.5508 185.6C64.9544 185.359 65.4199 185.238 65.9473 185.238C66.0905 185.238 66.2435 185.251 66.4062 185.277C66.5755 185.303 66.7025 185.333 66.7871 185.365ZM70.625 187.445V196H68.2715V185.434H70.5176L70.625 187.445ZM73.8574 185.365L73.8379 187.553C73.6947 187.527 73.5384 187.507 73.3691 187.494C73.2064 187.481 73.0436 187.475 72.8809 187.475C72.4772 187.475 72.1224 187.533 71.8164 187.65C71.5104 187.761 71.2533 187.924 71.0449 188.139C70.8431 188.347 70.6868 188.601 70.5762 188.9C70.4655 189.2 70.4004 189.535 70.3809 189.906L69.8438 189.945C69.8438 189.281 69.9089 188.666 70.0391 188.1C70.1693 187.533 70.3646 187.035 70.625 186.605C70.8919 186.176 71.224 185.84 71.6211 185.6C72.0247 185.359 72.4902 185.238 73.0176 185.238C73.1608 185.238 73.3138 185.251 73.4766 185.277C73.6458 185.303 73.7728 185.333 73.8574 185.365ZM74.6289 190.834V190.609C74.6289 189.848 74.7396 189.141 74.9609 188.49C75.1823 187.833 75.5013 187.263 75.918 186.781C76.3411 186.293 76.8555 185.915 77.4609 185.648C78.0729 185.375 78.763 185.238 79.5312 185.238C80.306 185.238 80.9961 185.375 81.6016 185.648C82.2135 185.915 82.7311 186.293 83.1543 186.781C83.5775 187.263 83.8997 187.833 84.1211 188.49C84.3424 189.141 84.4531 189.848 84.4531 190.609V190.834C84.4531 191.596 84.3424 192.302 84.1211 192.953C83.8997 193.604 83.5775 194.174 83.1543 194.662C82.7311 195.144 82.2168 195.521 81.6113 195.795C81.0059 196.062 80.319 196.195 79.5508 196.195C78.776 196.195 78.0827 196.062 77.4707 195.795C76.8652 195.521 76.3509 195.144 75.9277 194.662C75.5046 194.174 75.1823 193.604 74.9609 192.953C74.7396 192.302 74.6289 191.596 74.6289 190.834ZM76.9824 190.609V190.834C76.9824 191.309 77.0312 191.758 77.1289 192.182C77.2266 192.605 77.3796 192.976 77.5879 193.295C77.7962 193.614 78.0632 193.865 78.3887 194.047C78.7142 194.229 79.1016 194.32 79.5508 194.32C79.987 194.32 80.3646 194.229 80.6836 194.047C81.0091 193.865 81.276 193.614 81.4844 193.295C81.6927 192.976 81.8457 192.605 81.9434 192.182C82.0475 191.758 82.0996 191.309 82.0996 190.834V190.609C82.0996 190.141 82.0475 189.698 81.9434 189.281C81.8457 188.858 81.6895 188.484 81.4746 188.158C81.2663 187.833 80.9993 187.579 80.6738 187.396C80.3548 187.208 79.974 187.113 79.5312 187.113C79.0885 187.113 78.7044 187.208 78.3789 187.396C78.0599 187.579 77.7962 187.833 77.5879 188.158C77.3796 188.484 77.2266 188.858 77.1289 189.281C77.0312 189.698 76.9824 190.141 76.9824 190.609ZM89.2969 193.656L91.7383 185.434H93.2422L92.832 187.895L90.3711 196H89.0234L89.2969 193.656ZM87.8613 185.434L89.7656 193.695L89.9219 196H88.418L85.5566 185.434H87.8613ZM95.5273 193.598L97.373 185.434H99.668L96.8164 196H95.3125L95.5273 193.598ZM93.4961 185.434L95.9082 193.559L96.2109 196H94.8633L92.373 187.885L91.9629 185.434H93.4961ZM103.789 185.434V196H101.426V185.434H103.789ZM101.27 182.66C101.27 182.302 101.387 182.006 101.621 181.771C101.862 181.531 102.194 181.41 102.617 181.41C103.034 181.41 103.363 181.531 103.604 181.771C103.844 182.006 103.965 182.302 103.965 182.66C103.965 183.012 103.844 183.305 103.604 183.539C103.363 183.773 103.034 183.891 102.617 183.891C102.194 183.891 101.862 183.773 101.621 183.539C101.387 183.305 101.27 183.012 101.27 182.66ZM108.701 187.689V196H106.348V185.434H108.564L108.701 187.689ZM108.281 190.326L107.52 190.316C107.526 189.568 107.63 188.881 107.832 188.256C108.04 187.631 108.327 187.094 108.691 186.645C109.062 186.195 109.505 185.85 110.02 185.609C110.534 185.362 111.107 185.238 111.738 185.238C112.246 185.238 112.705 185.31 113.115 185.453C113.532 185.59 113.887 185.814 114.18 186.127C114.479 186.439 114.707 186.846 114.863 187.348C115.02 187.842 115.098 188.451 115.098 189.174V196H112.734V189.164C112.734 188.656 112.66 188.256 112.51 187.963C112.367 187.663 112.155 187.452 111.875 187.328C111.602 187.198 111.26 187.133 110.85 187.133C110.446 187.133 110.085 187.217 109.766 187.387C109.447 187.556 109.176 187.787 108.955 188.08C108.74 188.373 108.574 188.712 108.457 189.096C108.34 189.48 108.281 189.89 108.281 190.326ZM124.268 185.434H126.406V195.707C126.406 196.658 126.204 197.465 125.801 198.129C125.397 198.793 124.834 199.298 124.111 199.643C123.389 199.994 122.552 200.17 121.602 200.17C121.198 200.17 120.749 200.111 120.254 199.994C119.766 199.877 119.29 199.688 118.828 199.428C118.372 199.174 117.992 198.839 117.686 198.422L118.789 197.035C119.167 197.484 119.583 197.813 120.039 198.021C120.495 198.23 120.973 198.334 121.475 198.334C122.015 198.334 122.474 198.233 122.852 198.031C123.236 197.836 123.532 197.546 123.74 197.162C123.949 196.778 124.053 196.309 124.053 195.756V187.826L124.268 185.434ZM117.09 190.834V190.629C117.09 189.828 117.188 189.099 117.383 188.441C117.578 187.777 117.858 187.208 118.223 186.732C118.587 186.251 119.03 185.883 119.551 185.629C120.072 185.368 120.661 185.238 121.318 185.238C122.002 185.238 122.585 185.362 123.066 185.609C123.555 185.857 123.962 186.212 124.287 186.674C124.613 187.13 124.867 187.676 125.049 188.314C125.238 188.946 125.378 189.649 125.469 190.424V191.078C125.384 191.833 125.241 192.523 125.039 193.148C124.837 193.773 124.57 194.314 124.238 194.77C123.906 195.225 123.496 195.577 123.008 195.824C122.526 196.072 121.956 196.195 121.299 196.195C120.654 196.195 120.072 196.062 119.551 195.795C119.036 195.528 118.594 195.154 118.223 194.672C117.858 194.19 117.578 193.624 117.383 192.973C117.188 192.315 117.09 191.602 117.09 190.834ZM119.443 190.629V190.834C119.443 191.316 119.489 191.765 119.58 192.182C119.678 192.598 119.824 192.966 120.02 193.285C120.221 193.598 120.475 193.845 120.781 194.027C121.094 194.203 121.462 194.291 121.885 194.291C122.438 194.291 122.891 194.174 123.242 193.939C123.6 193.705 123.874 193.389 124.062 192.992C124.258 192.589 124.395 192.139 124.473 191.645V189.877C124.434 189.493 124.352 189.135 124.229 188.803C124.111 188.471 123.952 188.181 123.75 187.934C123.548 187.68 123.294 187.484 122.988 187.348C122.682 187.204 122.321 187.133 121.904 187.133C121.481 187.133 121.113 187.224 120.801 187.406C120.488 187.589 120.231 187.839 120.029 188.158C119.834 188.477 119.688 188.848 119.59 189.271C119.492 189.695 119.443 190.147 119.443 190.629Z" fill="black"/>
<path d="M35 197.953H127.627V198.93H35V197.953Z" fill="black"/>
<a href="https://www.agrivi.com/blog/harrowing-a-seedbed-finishing-practice-that-leads-to-successful-farming/">
<rect fill="black" fill-opacity="0" y="-0.21875" width="92.627" height="23.4375"/>
</a>
<path d="M36.4453 236.781H41.4746C42.5553 236.781 43.4766 236.944 44.2383 237.27C45 237.595 45.5827 238.077 45.9863 238.715C46.3965 239.346 46.6016 240.128 46.6016 241.059C46.6016 241.768 46.4714 242.393 46.2109 242.934C45.9505 243.474 45.5827 243.93 45.1074 244.301C44.6322 244.665 44.0658 244.949 43.4082 245.15L42.666 245.512H38.1445L38.125 243.568H41.5137C42.0996 243.568 42.5879 243.464 42.9785 243.256C43.3691 243.048 43.6621 242.764 43.8574 242.406C44.0592 242.042 44.1602 241.632 44.1602 241.176C44.1602 240.681 44.0625 240.251 43.8672 239.887C43.6784 239.516 43.3854 239.232 42.9883 239.037C42.5911 238.835 42.0866 238.734 41.4746 238.734H38.8965V251H36.4453V236.781ZM44.5605 251L41.2207 244.613L43.7891 244.604L47.1777 250.873V251H44.5605ZM48.3594 245.834V245.609C48.3594 244.848 48.4701 244.141 48.6914 243.49C48.9128 242.833 49.2318 242.263 49.6484 241.781C50.0716 241.293 50.5859 240.915 51.1914 240.648C51.8034 240.375 52.4935 240.238 53.2617 240.238C54.0365 240.238 54.7266 240.375 55.332 240.648C55.944 240.915 56.4616 241.293 56.8848 241.781C57.3079 242.263 57.6302 242.833 57.8516 243.49C58.0729 244.141 58.1836 244.848 58.1836 245.609V245.834C58.1836 246.596 58.0729 247.302 57.8516 247.953C57.6302 248.604 57.3079 249.174 56.8848 249.662C56.4616 250.144 55.9473 250.521 55.3418 250.795C54.7363 251.062 54.0495 251.195 53.2812 251.195C52.5065 251.195 51.8132 251.062 51.2012 250.795C50.5957 250.521 50.0814 250.144 49.6582 249.662C49.235 249.174 48.9128 248.604 48.6914 247.953C48.4701 247.302 48.3594 246.596 48.3594 245.834ZM50.7129 245.609V245.834C50.7129 246.309 50.7617 246.758 50.8594 247.182C50.957 247.605 51.11 247.976 51.3184 248.295C51.5267 248.614 51.7936 248.865 52.1191 249.047C52.4447 249.229 52.832 249.32 53.2812 249.32C53.7174 249.32 54.0951 249.229 54.4141 249.047C54.7396 248.865 55.0065 248.614 55.2148 248.295C55.4232 247.976 55.5762 247.605 55.6738 247.182C55.778 246.758 55.8301 246.309 55.8301 245.834V245.609C55.8301 245.141 55.778 244.698 55.6738 244.281C55.5762 243.858 55.4199 243.484 55.2051 243.158C54.9967 242.833 54.7298 242.579 54.4043 242.396C54.0853 242.208 53.7044 242.113 53.2617 242.113C52.819 242.113 52.4349 242.208 52.1094 242.396C51.7904 242.579 51.5267 242.833 51.3184 243.158C51.11 243.484 50.957 243.858 50.8594 244.281C50.7617 244.698 50.7129 245.141 50.7129 245.609ZM62.6758 236V251H60.3125V236H62.6758ZM67.7734 236V251H65.4102V236H67.7734ZM72.8711 240.434V251H70.5078V240.434H72.8711ZM70.3516 237.66C70.3516 237.302 70.4688 237.006 70.7031 236.771C70.944 236.531 71.276 236.41 71.6992 236.41C72.1159 236.41 72.4447 236.531 72.6855 236.771C72.9264 237.006 73.0469 237.302 73.0469 237.66C73.0469 238.012 72.9264 238.305 72.6855 238.539C72.4447 238.773 72.1159 238.891 71.6992 238.891C71.276 238.891 70.944 238.773 70.7031 238.539C70.4688 238.305 70.3516 238.012 70.3516 237.66ZM77.7832 242.689V251H75.4297V240.434H77.6465L77.7832 242.689ZM77.3633 245.326L76.6016 245.316C76.6081 244.568 76.7122 243.881 76.9141 243.256C77.1224 242.631 77.4089 242.094 77.7734 241.645C78.1445 241.195 78.5872 240.85 79.1016 240.609C79.6159 240.362 80.1888 240.238 80.8203 240.238C81.3281 240.238 81.7871 240.31 82.1973 240.453C82.6139 240.59 82.9688 240.814 83.2617 241.127C83.5612 241.439 83.7891 241.846 83.9453 242.348C84.1016 242.842 84.1797 243.451 84.1797 244.174V251H81.8164V244.164C81.8164 243.656 81.7415 243.256 81.5918 242.963C81.4486 242.663 81.237 242.452 80.957 242.328C80.6836 242.198 80.3418 242.133 79.9316 242.133C79.528 242.133 79.1667 242.217 78.8477 242.387C78.5286 242.556 78.2585 242.787 78.0371 243.08C77.8223 243.373 77.6562 243.712 77.5391 244.096C77.4219 244.48 77.3633 244.89 77.3633 245.326ZM93.3496 240.434H95.4883V250.707C95.4883 251.658 95.2865 252.465 94.8828 253.129C94.4792 253.793 93.916 254.298 93.1934 254.643C92.4707 254.994 91.6341 255.17 90.6836 255.17C90.2799 255.17 89.8307 255.111 89.3359 254.994C88.8477 254.877 88.3724 254.688 87.9102 254.428C87.4544 254.174 87.0736 253.839 86.7676 253.422L87.8711 252.035C88.2487 252.484 88.6654 252.813 89.1211 253.021C89.5768 253.23 90.0553 253.334 90.5566 253.334C91.097 253.334 91.556 253.233 91.9336 253.031C92.3177 252.836 92.6139 252.546 92.8223 252.162C93.0306 251.778 93.1348 251.309 93.1348 250.756V242.826L93.3496 240.434ZM86.1719 245.834V245.629C86.1719 244.828 86.2695 244.099 86.4648 243.441C86.6602 242.777 86.9401 242.208 87.3047 241.732C87.6693 241.251 88.112 240.883 88.6328 240.629C89.1536 240.368 89.7428 240.238 90.4004 240.238C91.084 240.238 91.6667 240.362 92.1484 240.609C92.6367 240.857 93.0436 241.212 93.3691 241.674C93.6947 242.13 93.9486 242.676 94.1309 243.314C94.3197 243.946 94.4596 244.649 94.5508 245.424V246.078C94.4661 246.833 94.3229 247.523 94.1211 248.148C93.9193 248.773 93.6523 249.314 93.3203 249.77C92.9883 250.225 92.5781 250.577 92.0898 250.824C91.6081 251.072 91.0384 251.195 90.3809 251.195C89.7363 251.195 89.1536 251.062 88.6328 250.795C88.1185 250.528 87.6758 250.154 87.3047 249.672C86.9401 249.19 86.6602 248.624 86.4648 247.973C86.2695 247.315 86.1719 246.602 86.1719 245.834ZM88.5254 245.629V245.834C88.5254 246.316 88.571 246.765 88.6621 247.182C88.7598 247.598 88.9062 247.966 89.1016 248.285C89.3034 248.598 89.5573 248.845 89.8633 249.027C90.1758 249.203 90.5436 249.291 90.9668 249.291C91.5202 249.291 91.9727 249.174 92.3242 248.939C92.6823 248.705 92.9557 248.389 93.1445 247.992C93.3398 247.589 93.4766 247.139 93.5547 246.645V244.877C93.5156 244.493 93.4342 244.135 93.3105 243.803C93.1934 243.471 93.0339 243.181 92.832 242.934C92.6302 242.68 92.3763 242.484 92.0703 242.348C91.7643 242.204 91.403 242.133 90.9863 242.133C90.5632 242.133 90.1953 242.224 89.8828 242.406C89.5703 242.589 89.3132 242.839 89.1113 243.158C88.916 243.477 88.7695 243.848 88.6719 244.271C88.5742 244.695 88.5254 245.147 88.5254 245.629Z" fill="black"/>
<path d="M35 252.953H96.709V253.93H35V252.953Z" fill="black"/>
<a href="https://www.agrivi.com/blog/soil-rolling-a-good-farm-decision-or-total-yield-breakdown/">
<rect fill="black" fill-opacity="0" y="-0.21875" width="61.709" height="23.4375"/>
</a>
</svg>
