<svg width="394" height="59" viewBox="0 0 394 59" fill="none" xmlns="http://www.w3.org/2000/svg">
<g filter="url(#filter0_d_220_598)">
<rect x="4" y="3" width="386" height="51" rx="10" fill="white"/>
<rect x="4.5" y="3.5" width="385" height="50" rx="9.5" stroke="#D6D6D6"/>
</g>
<path d="M36.9247 24.5625C36.8717 24.0663 36.6482 23.6799 36.2543 23.4034C35.8641 23.1269 35.3565 22.9886 34.7315 22.9886C34.2921 22.9886 33.9152 23.0549 33.6009 23.1875C33.2865 23.3201 33.0459 23.5 32.8793 23.7273C32.7126 23.9545 32.6274 24.214 32.6236 24.5057C32.6236 24.7481 32.6785 24.9583 32.7884 25.1364C32.902 25.3144 33.0554 25.4659 33.2486 25.5909C33.4418 25.7121 33.6558 25.8144 33.8906 25.8977C34.1255 25.9811 34.3622 26.0511 34.6009 26.108L35.6918 26.3807C36.1312 26.483 36.5535 26.6212 36.9588 26.7955C37.3679 26.9697 37.7334 27.1894 38.0554 27.4545C38.3812 27.7197 38.6387 28.0398 38.8281 28.4148C39.0175 28.7898 39.1122 29.2292 39.1122 29.733C39.1122 30.4148 38.938 31.0152 38.5895 31.5341C38.241 32.0492 37.7372 32.4527 37.0781 32.7443C36.4228 33.0322 35.6293 33.1761 34.6974 33.1761C33.7921 33.1761 33.0062 33.036 32.3395 32.7557C31.6766 32.4754 31.1577 32.0663 30.7827 31.5284C30.4115 30.9905 30.2107 30.3352 30.1804 29.5625H32.2543C32.2846 29.9678 32.4096 30.3049 32.6293 30.5739C32.849 30.8428 33.1349 31.0436 33.4872 31.1761C33.8433 31.3087 34.241 31.375 34.6804 31.375C35.1387 31.375 35.5402 31.3068 35.8849 31.1705C36.2334 31.0303 36.5062 30.8371 36.7031 30.5909C36.9001 30.3409 37.0005 30.0492 37.0043 29.7159C37.0005 29.4129 36.9115 29.1629 36.7372 28.9659C36.563 28.7652 36.3187 28.5985 36.0043 28.4659C35.6937 28.3295 35.33 28.2083 34.9134 28.1023L33.5895 27.7614C32.6312 27.5152 31.8736 27.142 31.3168 26.642C30.7637 26.1383 30.4872 25.4697 30.4872 24.6364C30.4872 23.9508 30.6728 23.3504 31.044 22.8352C31.419 22.3201 31.9285 21.9205 32.5724 21.6364C33.2164 21.3485 33.9455 21.2045 34.7599 21.2045C35.5857 21.2045 36.3092 21.3485 36.9304 21.6364C37.5554 21.9205 38.0459 22.3163 38.402 22.8239C38.758 23.3277 38.9418 23.9072 38.9531 24.5625H36.9247ZM44.7642 33.1705C43.8892 33.1705 43.1335 32.9886 42.4972 32.625C41.8646 32.2576 41.3778 31.7386 41.0369 31.0682C40.696 30.3939 40.5256 29.6004 40.5256 28.6875C40.5256 27.7898 40.696 27.0019 41.0369 26.3239C41.3816 25.642 41.8627 25.1117 42.4801 24.733C43.0975 24.3504 43.8229 24.1591 44.6562 24.1591C45.1941 24.1591 45.7017 24.2462 46.179 24.4205C46.66 24.5909 47.0843 24.8561 47.4517 25.2159C47.8229 25.5758 48.1146 26.0341 48.3267 26.5909C48.5388 27.1439 48.6449 27.803 48.6449 28.5682V29.1989H41.4915V27.8125H46.6733C46.6695 27.4186 46.5843 27.0682 46.4176 26.7614C46.2509 26.4508 46.018 26.2064 45.7188 26.0284C45.4233 25.8504 45.0786 25.7614 44.6847 25.7614C44.2642 25.7614 43.8949 25.8636 43.5767 26.0682C43.2585 26.2689 43.0104 26.5341 42.8324 26.8636C42.6581 27.1894 42.5691 27.5473 42.5653 27.9375V29.1477C42.5653 29.6553 42.6581 30.0909 42.8438 30.4545C43.0294 30.8144 43.2888 31.0909 43.6222 31.2841C43.9555 31.4735 44.3456 31.5682 44.7926 31.5682C45.0919 31.5682 45.3627 31.5265 45.6051 31.4432C45.8475 31.3561 46.0578 31.2292 46.2358 31.0625C46.4138 30.8958 46.5483 30.6894 46.6392 30.4432L48.5597 30.6591C48.4384 31.1667 48.2074 31.6098 47.8665 31.9886C47.5294 32.3636 47.0975 32.6553 46.571 32.8636C46.0445 33.0682 45.4422 33.1705 44.7642 33.1705ZM52.8963 33.1761C52.3433 33.1761 51.8452 33.0777 51.402 32.8807C50.9626 32.6799 50.6141 32.3845 50.3565 31.9943C50.1027 31.6042 49.9759 31.1231 49.9759 30.5511C49.9759 30.0587 50.0668 29.6515 50.2486 29.3295C50.4304 29.0076 50.6785 28.75 50.9929 28.5568C51.3073 28.3636 51.6615 28.2178 52.0554 28.1193C52.4531 28.017 52.8641 27.9432 53.2884 27.8977C53.7997 27.8447 54.2145 27.7973 54.5327 27.7557C54.8509 27.7102 55.0819 27.642 55.2259 27.5511C55.3736 27.4564 55.4474 27.3106 55.4474 27.1136V27.0795C55.4474 26.6515 55.3205 26.3201 55.0668 26.0852C54.813 25.8504 54.4474 25.733 53.9702 25.733C53.4664 25.733 53.0668 25.8428 52.7713 26.0625C52.4796 26.2822 52.2827 26.5417 52.1804 26.8409L50.2599 26.5682C50.4115 26.0379 50.6615 25.5947 51.0099 25.2386C51.3584 24.8788 51.7846 24.6098 52.2884 24.4318C52.7921 24.25 53.349 24.1591 53.9588 24.1591C54.3793 24.1591 54.7978 24.2083 55.2145 24.3068C55.6312 24.4053 56.0118 24.5682 56.3565 24.7955C56.7012 25.0189 56.9777 25.3239 57.1861 25.7102C57.3982 26.0966 57.5043 26.5795 57.5043 27.1591V33H55.527V31.8011H55.4588C55.3338 32.0436 55.1577 32.2708 54.9304 32.483C54.7069 32.6913 54.4247 32.8598 54.0838 32.9886C53.7467 33.1136 53.3509 33.1761 52.8963 33.1761ZM53.4304 31.6648C53.8433 31.6648 54.2012 31.5833 54.5043 31.4205C54.8073 31.2538 55.0402 31.0341 55.2031 30.7614C55.3698 30.4886 55.4531 30.1913 55.4531 29.8693V28.8409C55.3887 28.8939 55.2789 28.9432 55.1236 28.9886C54.9721 29.0341 54.8016 29.0739 54.6122 29.108C54.4228 29.142 54.2353 29.1723 54.0497 29.1989C53.8641 29.2254 53.7031 29.2481 53.5668 29.267C53.2599 29.3087 52.9853 29.3769 52.7429 29.4716C52.5005 29.5663 52.3092 29.6989 52.169 29.8693C52.0289 30.036 51.9588 30.2519 51.9588 30.517C51.9588 30.8958 52.0971 31.1818 52.3736 31.375C52.6501 31.5682 53.0024 31.6648 53.4304 31.6648ZM59.5724 33V24.2727H61.5668V25.7273H61.6577C61.8168 25.2235 62.0895 24.8352 62.4759 24.5625C62.866 24.286 63.3111 24.1477 63.8111 24.1477C63.9247 24.1477 64.0516 24.1534 64.1918 24.1648C64.3357 24.1723 64.455 24.1856 64.5497 24.2045V26.0966C64.4626 26.0663 64.3243 26.0398 64.1349 26.017C63.9493 25.9905 63.7694 25.9773 63.5952 25.9773C63.2202 25.9773 62.883 26.0587 62.5838 26.2216C62.2884 26.3807 62.0554 26.6023 61.8849 26.8864C61.7145 27.1705 61.6293 27.4981 61.6293 27.8693V33H59.5724ZM69.3636 33.1705C68.4924 33.1705 67.7443 32.9792 67.1193 32.5966C66.4981 32.214 66.0189 31.6856 65.6818 31.0114C65.3485 30.3333 65.1818 29.553 65.1818 28.6705C65.1818 27.7841 65.3523 27.0019 65.6932 26.3239C66.0341 25.642 66.5152 25.1117 67.1364 24.733C67.7614 24.3504 68.5 24.1591 69.3523 24.1591C70.0606 24.1591 70.6875 24.2898 71.233 24.5511C71.7822 24.8087 72.2197 25.1742 72.5455 25.6477C72.8712 26.1174 73.0568 26.6667 73.1023 27.2955H71.1364C71.0568 26.875 70.8674 26.5246 70.5682 26.2443C70.2727 25.9602 69.8769 25.8182 69.3807 25.8182C68.9602 25.8182 68.5909 25.9318 68.2727 26.1591C67.9545 26.3826 67.7064 26.7045 67.5284 27.125C67.3542 27.5455 67.267 28.0492 67.267 28.6364C67.267 29.2311 67.3542 29.7424 67.5284 30.1705C67.7027 30.5947 67.947 30.9223 68.2614 31.1534C68.5795 31.3807 68.9527 31.4943 69.3807 31.4943C69.6837 31.4943 69.9545 31.4375 70.1932 31.3239C70.4356 31.2064 70.6383 31.0379 70.8011 30.8182C70.964 30.5985 71.0758 30.3314 71.1364 30.017H73.1023C73.053 30.6345 72.8712 31.1818 72.5568 31.6591C72.2424 32.1326 71.8144 32.5038 71.2727 32.7727C70.7311 33.0379 70.0947 33.1705 69.3636 33.1705ZM76.848 27.8864V33H74.7912V21.3636H76.8026V25.7557H76.9048C77.1094 25.2633 77.4257 24.875 77.8537 24.5909C78.2855 24.303 78.8348 24.1591 79.5014 24.1591C80.1075 24.1591 80.6359 24.286 81.0866 24.5398C81.5374 24.7936 81.8859 25.1648 82.1321 25.6534C82.3821 26.142 82.5071 26.7386 82.5071 27.4432V33H80.4503V27.7614C80.4503 27.1742 80.2988 26.7178 79.9957 26.392C79.6965 26.0625 79.276 25.8977 78.7344 25.8977C78.3707 25.8977 78.045 25.9773 77.7571 26.1364C77.473 26.2917 77.2495 26.517 77.0866 26.8125C76.9276 27.108 76.848 27.4659 76.848 27.8864Z" fill="#979797"/>
<path d="M373.036 41.8052L365.484 33.6096C367.299 31.2453 368.204 28.2127 368.01 25.1427C367.817 22.0727 366.541 19.2016 364.447 17.1268C362.353 15.052 359.603 13.9332 356.768 14.0031C353.933 14.073 351.232 15.3262 349.227 17.5021C347.222 19.678 346.067 22.609 346.003 25.6853C345.938 28.7617 346.969 31.7466 348.881 34.019C350.793 36.2915 353.439 37.6766 356.268 37.8861C359.097 38.0957 361.891 37.1136 364.07 35.1441L371.622 43.3397L373.036 41.8052ZM348.036 25.9762C348.036 24.0445 348.564 22.1561 349.553 20.55C350.541 18.9438 351.947 17.692 353.592 16.9527C355.236 16.2135 357.046 16.0201 358.792 16.3969C360.537 16.7738 362.141 17.704 363.4 19.0699C364.658 20.4359 365.516 22.1762 365.863 24.0708C366.21 25.9654 366.032 27.9292 365.351 29.7139C364.669 31.4986 363.516 33.0239 362.036 34.0972C360.556 35.1704 358.816 35.7432 357.036 35.7432C354.65 35.7403 352.362 34.7104 350.675 32.8793C348.987 31.0483 348.038 28.5657 348.036 25.9762Z" fill="#979797" stroke="#979797"/>
<defs>
<filter id="filter0_d_220_598" x="0" y="0" width="394" height="59" filterUnits="userSpaceOnUse" color-interpolation-filters="sRGB">
<feFlood flood-opacity="0" result="BackgroundImageFix"/>
<feColorMatrix in="SourceAlpha" type="matrix" values="0 0 0 0 0 0 0 0 0 0 0 0 0 0 0 0 0 0 127 0" result="hardAlpha"/>
<feOffset dy="1"/>
<feGaussianBlur stdDeviation="2"/>
<feComposite in2="hardAlpha" operator="out"/>
<feColorMatrix type="matrix" values="0 0 0 0 0 0 0 0 0 0 0 0 0 0 0 0 0 0 0.25 0"/>
<feBlend mode="normal" in2="BackgroundImageFix" result="effect1_dropShadow_220_598"/>
<feBlend mode="normal" in="SourceGraphic" in2="effect1_dropShadow_220_598" result="shape"/>
</filter>
</defs>
</svg>
