<svg xmlns="http://www.w3.org/2000/svg" width="69" height="69" fill="none" viewBox="0 0 69 69"><path fill="#D99BFF" fill-rule="evenodd" d="M10.461 5C9.82837 5 9.26436 5.43702 9.04679 6.09423L5.1841 17.7888C5.06213 18.1586 4.99999 18.5454 5 18.9347V23.5869C5 26.2173 6.92633 28.3524 9.30285 28.3524C11.6794 28.3524 13.6074 26.2173 13.6074 23.5869C13.6074 26.219 15.5337 28.3524 17.9102 28.3524C20.2868 28.3524 22.2148 26.2173 22.2148 23.5869C22.2148 26.219 24.1411 28.3524 26.5176 28.3524C28.8941 28.3524 30.8188 26.2207 30.8221 23.5902C30.8221 26.2207 32.7485 28.3524 35.125 28.3524C37.5015 28.3524 39.4279 26.2173 39.4279 23.5869C39.4279 26.219 41.3559 28.3524 43.7324 28.3524C46.1089 28.3524 48.0336 26.2207 48.0352 23.5902C48.0369 26.2207 49.9632 28.3524 52.3398 28.3524C54.7163 28.3524 56.6426 26.2173 56.6426 23.5869C56.6426 26.219 58.5689 28.3524 60.9471 28.3524C63.3237 28.3524 65.25 26.2173 65.25 23.5869V18.9347C65.25 18.5454 65.1879 18.1586 65.0659 17.7888L61.2032 6.0959C60.9856 5.43702 60.4216 5 59.789 5H10.461Z" clip-rule="evenodd"/><path fill="#D99BFF" fill-rule="evenodd" d="M11.6947 30.404V43.3646H7.51063C7.2887 43.3646 7.07585 43.4525 6.91892 43.6089C6.76199 43.7653 6.67383 43.9774 6.67383 44.1986V45.8667C6.67383 46.0879 6.76199 46.3 6.91892 46.4564C7.07585 46.6128 7.2887 46.7007 7.51063 46.7007H62.7398C62.9617 46.7007 63.1746 46.6128 63.3315 46.4564C63.4884 46.3 63.5766 46.0879 63.5766 45.8667V44.1986C63.5766 43.9774 63.4884 43.7653 63.3315 43.6089C63.1746 43.4525 62.9617 43.3646 62.7398 43.3646H58.5558V30.404C57.8552 30.1258 57.208 29.7291 56.6428 29.2314C56.2089 29.6128 55.7267 29.9358 55.2085 30.1922V43.3646H15.0419V30.1922C14.5237 29.9358 14.0415 29.6128 13.6076 29.2314C13.0453 29.7235 12.4026 30.1238 11.6947 30.404ZM55.2085 27.1397C55.3508 26.9979 55.4847 26.8461 55.6102 26.6843H55.2085V27.1397ZM57.6754 26.6843C57.9285 27.0111 58.2246 27.3022 58.5558 27.55V26.6843H57.6754ZM11.6947 27.55C12.0275 27.3042 12.3239 27.0127 12.575 26.6843H11.6947V27.55ZM14.6402 26.6843H15.0419V27.1397C14.8981 26.9969 14.7639 26.8447 14.6402 26.6843ZM9.18424 50.0367C8.96231 50.0367 8.74946 50.1246 8.59253 50.281C8.4356 50.4374 8.34744 50.6496 8.34744 50.8708V63.381C8.34744 63.8234 8.52377 64.2476 8.83763 64.5605C9.15149 64.8733 9.57718 65.049 10.021 65.049H60.2294C60.6732 65.049 61.0989 64.8733 61.4128 64.5605C61.7267 64.2476 61.903 63.8234 61.903 63.381V50.8708C61.903 50.6496 61.8148 50.4374 61.6579 50.281C61.501 50.1246 61.2881 50.0367 61.0662 50.0367H9.18424Z" clip-rule="evenodd"/><path fill="#D99BFF" d="M18.3887 39.1946C18.3887 38.9734 18.4768 38.7613 18.6338 38.6049C18.7907 38.4485 19.0035 38.3606 19.2255 38.3606H24.2463C24.4682 38.3606 24.6811 38.4485 24.838 38.6049C24.995 38.7613 25.0831 38.9734 25.0831 39.1946V42.5307C25.0831 42.7519 24.995 42.964 24.838 43.1204C24.6811 43.2768 24.4682 43.3647 24.2463 43.3647H19.2255C19.0035 43.3647 18.7907 43.2768 18.6338 43.1204C18.4768 42.964 18.3887 42.7519 18.3887 42.5307V39.1946Z"/><path fill="#D99BFF" d="M21.7363 40.8626C21.7363 40.6414 21.8245 40.4293 21.9814 40.2729C22.1384 40.1165 22.3512 40.0286 22.5731 40.0286H27.594C27.8159 40.0286 28.0287 40.1165 28.1857 40.2729C28.3426 40.4293 28.4308 40.6414 28.4308 40.8626V42.5307C28.4308 42.7519 28.3426 42.964 28.1857 43.1204C28.0287 43.2768 27.8159 43.3647 27.594 43.3647H22.5731C22.3512 43.3647 22.1384 43.2768 21.9814 43.1204C21.8245 42.964 21.7363 42.7519 21.7363 42.5307V40.8626ZM35.1252 40.8626C35.1252 41.5262 34.8607 42.1626 34.3899 42.6319C33.9191 43.1011 33.2806 43.3647 32.6148 43.3647C31.949 43.3647 31.3105 43.1011 30.8397 42.6319C30.3689 42.1626 30.1044 41.5262 30.1044 40.8626C30.1044 40.1991 30.3689 39.5627 30.8397 39.0934C31.3105 38.6242 31.949 38.3606 32.6148 38.3606C33.2806 38.3606 33.9191 38.6242 34.3899 39.0934C34.8607 39.5627 35.1252 40.1991 35.1252 40.8626Z"/></svg>