<svg xmlns="http://www.w3.org/2000/svg" width="70" height="52" fill="none" viewBox="0 0 70 52"><path fill="#D99BFF" d="M61.25 18.5714H65.625V52H61.25V18.5714ZM17.5 31.5714L21.875 27.8571V52H17.5V31.5714ZM8.75 39L13.125 35.2857V52H8.75V39ZM26.25 24.1429L30.625 20.4286V52H26.25V24.1429ZM35 20.4286L39.375 24.1429V51.971H35V20.4286ZM45.9375 29.7143L48.125 27.8571V52H43.75V27.8571L45.9375 29.7143ZM52.5 24.1429L56.875 20.4286V52H52.5V24.1429ZM0 46.4286L4.375 42.7143V52H0V46.4286ZM70 0V14.8571H65.625V6.35491L45.9375 23.0402L32.8125 11.8973L0 39.7835V34.5022L32.8125 6.67411L45.9375 17.817L62.5146 3.71429H52.5V0H70Z"/></svg>